<svg xmlns="http://www.w3.org/2000/svg" width="512" height="512" id="calculator"><linearGradient id="a" x1="257.979" x2="257.979" y1="509.568" y2="2.225" gradientUnits="userSpaceOnUse"><stop offset="0" stop-color="#272727"></stop><stop offset="1" stop-color="#57565a"></stop></linearGradient><path fill="url(#a)" d="M459.847 487.612c0 13.476-12.947 24.388-28.91 24.388H85.023c-15.972 0-28.91-10.912-28.91-24.388V24.375C56.113 10.913 69.051 0 85.023 0h345.914c15.963 0 28.91 10.913 28.91 24.375v463.237z"></path><linearGradient id="b" x1="257.98" x2="257.98" y1="503.679" y2="4.998" gradientUnits="userSpaceOnUse"><stop offset="0" stop-color="#424244"></stop><stop offset="1" stop-color="#79787d"></stop></linearGradient><path fill="url(#b)" d="M457.625 485.283c0 13.335-12.818 24.144-28.62 24.144H86.953c-15.805 0-28.615-10.809-28.615-24.144V26.71c0-13.329 12.81-24.132 28.615-24.132h342.054c15.8 0 28.619 10.803 28.619 24.132v458.574z"></path><linearGradient id="c" x1="257.982" x2="257.982" y1="497.857" y2="7.767" gradientUnits="userSpaceOnUse"><stop offset="0" stop-color="#5d5d60"></stop><stop offset="1" stop-color="#9b9ba0"></stop></linearGradient><path fill="url(#c)" d="M455.403 482.953c0 13.195-12.69 23.9-28.327 23.9H88.88c-15.637 0-28.319-10.705-28.319-23.9V29.042c0-13.194 12.682-23.888 28.319-23.888h338.196c15.637 0 28.327 10.694 28.327 23.888v453.911z"></path><linearGradient id="d" x1="257.983" x2="257.983" y1="492.104" y2="10.532" gradientUnits="userSpaceOnUse"><stop offset="0" stop-color="#77787d"></stop><stop offset="1" stop-color="#bdbdc3"></stop></linearGradient><path fill="url(#d)" d="M453.182 480.624c0 13.054-12.563 23.656-28.036 23.656H90.808c-15.47 0-28.023-10.602-28.023-23.656V31.375c0-13.06 12.553-23.643 28.023-23.643h334.338c15.473 0 28.036 10.584 28.036 23.643v449.249z"></path><linearGradient id="e" x1="257.984" x2="257.984" y1="486.418" y2="13.292" gradientUnits="userSpaceOnUse"><stop offset="0" stop-color="#929399"></stop><stop offset="1" stop-color="#dfdfe6"></stop></linearGradient><path fill="url(#e)" d="M450.96 478.295c0 12.913-12.435 23.412-27.745 23.412H92.736c-15.302 0-27.727-10.499-27.727-23.412V33.709c0-12.925 12.425-23.4 27.727-23.4h330.479c15.31 0 27.745 10.475 27.745 23.4v444.586z"></path><path fill="none" d="M445.223 471.813c0 12.55-12.063 22.727-26.944 22.727H97.676c-14.88 0-26.934-10.177-26.934-22.727V40.178c0-12.545 12.053-22.718 26.934-22.718H418.28c14.881 0 26.944 10.173 26.944 22.718v431.635z"></path><path fill="#B3B3B3" d="M79.414 51.591h357.128v119.535H79.414z"></path><path fill="none" d="M409.674 144.286c0 6.18-7.035 11.202-15.725 11.202H122.027c-8.689 0-15.749-5.022-15.749-11.202V78.438c0-6.191 7.06-11.214 15.749-11.214h271.922c8.69 0 15.725 5.023 15.725 11.214v65.848z"></path><linearGradient id="f" x1="257.98" x2="257.98" y1="1.395" y2="177.595" gradientUnits="userSpaceOnUse"><stop offset=".012" stop-color="#484a4d"></stop><stop offset=".982" stop-color="#242626"></stop><stop offset="1"></stop></linearGradient><path fill="url(#f)" d="M430.937 0H85.023c-15.972 0-28.91 10.913-28.91 24.375v157.101h403.734v-157.1C459.847 10.912 446.9 0 430.937 0zm5.605 171.125H79.414V51.591h357.128v119.534z"></path><linearGradient id="g" x1="65.337" x2="448.232" y1="184.582" y2="184.582" gradientUnits="userSpaceOnUse"><stop offset="0" stop-color="#fff"></stop><stop offset=".291" stop-color="#fff"></stop><stop offset=".758" stop-color="#fff"></stop><stop offset="1" stop-color="#fff"></stop></linearGradient><path fill="url(#g)" d="M64.938 181.476h386.021v6.212H64.938z" opacity=".5"></path><linearGradient id="h" x1="82.049" x2="82.049" y1="55.732" y2="169.836" gradientUnits="userSpaceOnUse"><stop offset="0" stop-color="#333"></stop><stop offset=".982" stop-color="#333"></stop><stop offset="1" stop-color="#333"></stop></linearGradient><path fill="url(#h)" d="m84.685 57.568-5.271-5.977v119.534l5.271-5.977z"></path><linearGradient id="i" x1="257.979" x2="257.979" y1="51.076" y2="58.362" gradientUnits="userSpaceOnUse"><stop offset="0"></stop><stop offset="1"></stop></linearGradient><path fill="url(#i)" d="m431.284 57.568 5.258-5.977H79.414l5.271 5.977z"></path><linearGradient id="j" x1="257.978" x2="257.978" y1="172.162" y2="163.823" gradientUnits="userSpaceOnUse"><stop offset="0" stop-color="#4d4d4d"></stop><stop offset="1" stop-color="#4d4d4d"></stop></linearGradient><path fill="url(#j)" d="M431.284 165.148H84.685l-5.271 5.977h357.128z"></path><linearGradient id="k" x1="433.913" x2="433.913" y1="50.039" y2="164.958" gradientUnits="userSpaceOnUse"><stop offset="0" stop-color="#333"></stop><stop offset="1" stop-color="#333"></stop></linearGradient><path fill="url(#k)" d="m436.542 51.591-5.258 5.977v107.58l5.258 5.977z"></path><linearGradient id="l" x1="257.986" x2="257.986" y1="51.069" y2="59.904" gradientUnits="userSpaceOnUse"><stop offset="0" stop-color="gray"></stop><stop offset="1" stop-color="gray"></stop></linearGradient><path fill="url(#l)" d="M79.433 51.591H436.54v8.801H79.433z"></path><linearGradient id="m" x1="63.21" x2="447.3" y1="255.996" y2="255.996" gradientUnits="userSpaceOnUse"><stop offset="0" stop-color="#fff" stop-opacity="0"></stop><stop offset=".291" stop-color="#fff"></stop><stop offset=".758" stop-color="#fff"></stop><stop offset="1" stop-color="#fff" stop-opacity="0"></stop></linearGradient><path fill="url(#m)" d="M423.265 10.227H92.695c-15.331 0-27.757 10.478-27.757 23.42v444.706c0 12.921 12.426 23.413 27.757 23.413h330.57c15.327 0 27.77-10.492 27.77-23.413V33.647c0-12.942-12.443-23.42-27.77-23.42zM446.8 478.353c0 10.574-10.557 19.18-23.536 19.18H92.695c-12.97 0-23.524-8.606-23.524-19.18V33.647c0-10.582 10.553-19.188 23.524-19.188h330.57c12.98 0 23.536 8.606 23.536 19.188v444.706z" opacity=".5"></path><linearGradient id="n" x1="257.982" x2="257.982" y1="159.743" y2="63.441" gradientUnits="userSpaceOnUse"><stop offset="0" stop-color="#333"></stop><stop offset="1" stop-color="#4d4d4d"></stop></linearGradient><path fill="url(#n)" d="M429.102 147.841c0 6.858-7.333 12.417-16.42 12.417H103.27c-9.048 0-16.406-5.56-16.406-12.417V74.88c0-6.87 7.358-12.425 16.406-12.425h309.414c9.086 0 16.419 5.556 16.419 12.425v72.962z"></path><linearGradient id="o" x1="257.98" x2="257.98" y1="158.449" y2="64.725" gradientUnits="userSpaceOnUse"><stop offset="0" stop-color="#555"></stop><stop offset="1" stop-color="#777"></stop></linearGradient><path fill="url(#o)" d="M427.95 146.86c0 6.677-7.284 12.09-16.298 12.09h-307.35c-8.984 0-16.29-5.413-16.29-12.09V75.854c0-6.685 7.306-12.09 16.29-12.09h307.35c9.014 0 16.297 5.405 16.297 12.09v71.006z"></path><linearGradient id="p" x1="257.979" x2="257.979" y1="157.155" y2="66.009" gradientUnits="userSpaceOnUse"><stop offset="0" stop-color="#777"></stop><stop offset="1" stop-color="#a2a2a2"></stop></linearGradient><path fill="url(#p)" d="M426.797 145.879c0 6.497-7.233 11.764-16.176 11.764H105.336c-8.919 0-16.175-5.267-16.175-11.764v-69.05c0-6.499 7.256-11.754 16.175-11.754H410.62c8.943 0 16.176 5.255 16.176 11.753v69.05z"></path><linearGradient id="q" x1="257.978" x2="257.978" y1="155.861" y2="67.293" gradientUnits="userSpaceOnUse"><stop offset="0" stop-color="#999"></stop><stop offset="1" stop-color="#ccc"></stop></linearGradient><path fill="url(#q)" d="M425.646 144.898c0 6.316-7.184 11.437-16.055 11.437H106.369c-8.854 0-16.059-5.121-16.059-11.437V77.802c0-6.312 7.205-11.417 16.06-11.417h303.22c8.872 0 16.056 5.105 16.056 11.417v67.096z"></path><path fill="#CCC" d="M105.352 83.473v20.379l-6.423 6.427-2.141-2.133V80.25l8.564 3.224zm-8.564 58.99v-27.885l2.14-2.15 6.424 6.441v20.379l-8.564 3.215zm37.528 7.507h-32.168c-2.86-.715-4.654-2.492-5.36-5.366l8.564-3.215h25.76l3.204 8.58zm-3.203-68.646h-25.645l-8.577-3.212c.707-2.86 2.492-4.65 5.353-5.37h32.072l-3.203 8.582zm2.133 22.528V81.324l3.22-8.581c2.856.719 4.638 2.508 5.382 5.369v30.034l-2.175 2.133-6.427-6.427zm6.427 8.577 2.175 2.15v30.025c-.744 2.874-2.526 4.65-5.383 5.366l-3.22-8.581v-22.52l6.428-6.44zm21.457-28.956v20.379l-6.44 6.427-2.132-2.133V80.25l8.572 3.224zm-8.572 58.99v-27.885l2.132-2.15 6.44 6.441v20.379l-8.572 3.215zm37.549 7.507h-32.192c-2.86-.715-4.655-2.492-5.357-5.366l8.572-3.215h25.761l3.216 8.58zm-3.216-68.646h-25.645l-8.581-3.212c.711-2.86 2.505-4.65 5.357-5.37h32.085l-3.216 8.582zm2.125 22.528V81.324l3.224-8.581c2.868.719 4.646 2.508 5.365 5.369v30.034l-2.15 2.133-6.44-6.427zm6.44 8.577 2.149 2.15v30.025c-.72 2.874-2.497 4.65-5.365 5.366l-3.224-8.581v-22.52l6.44-6.44zm21.453-28.956v20.379l-6.432 6.427-2.158-2.133V80.25l8.59 3.224zm-8.59 58.99v-27.885l2.158-2.15 6.432 6.441v20.379l-8.59 3.215zm37.55 7.507h-32.184c-2.86-.715-4.655-2.492-5.366-5.366l8.59-3.215h25.736l3.224 8.58zm-3.224-68.646h-25.637l-8.556-3.212c.702-2.86 2.488-4.65 5.34-5.37h32.077l-3.224 8.582zm2.149 22.528V81.324l3.216-8.581c2.868.719 4.654 2.508 5.382 5.369v30.034l-2.166 2.133-6.432-6.427zm6.432 8.577 2.166 2.15v30.025c-.728 2.874-2.514 4.65-5.382 5.366l-3.216-8.581v-22.52l6.432-6.44zm21.453-28.956v20.379l-6.432 6.427-2.15-2.133V80.25l8.582 3.224zm-8.581 58.99v-27.885l2.15-2.15 6.43 6.441v20.379l-8.58 3.215zm37.548 7.507h-32.183c-2.877-.715-4.638-2.492-5.365-5.366l8.58-3.215h25.753l3.215 8.58zm-3.215-68.646h-25.636l-8.59-3.212c.703-2.86 2.505-4.65 5.374-5.37h32.067l-3.215 8.582zm2.141 22.528V81.324l3.208-8.581c2.86.719 4.646 2.508 5.382 5.369v30.034l-2.158 2.133-6.432-6.427zm6.432 8.577 2.158 2.15v30.025c-.736 2.874-2.521 4.65-5.382 5.366l-3.208-8.581v-22.52l6.432-6.44zm21.436-28.956v20.379l-6.422 6.427-2.142-2.133V80.25l8.564 3.224zm-8.564 58.99v-27.885l2.142-2.15 6.422 6.441v20.379l-8.564 3.215zm37.533 7.507h-32.168c-2.86-.715-4.645-2.492-5.365-5.366l8.564-3.215h25.761l3.208 8.58zm-3.208-68.646h-25.628l-8.597-3.212c.71-2.86 2.504-4.65 5.373-5.37h32.06l-3.208 8.582zm2.14 22.528V81.324l3.225-8.581c2.844.719 4.647 2.508 5.366 5.369v30.034l-2.166 2.133-6.424-6.427zm6.425 8.577 2.166 2.15v30.025c-.72 2.874-2.522 4.65-5.366 5.366l-3.224-8.581v-22.52l6.424-6.44zm21.462-28.956v20.379l-6.432 6.427-2.158-2.133V80.25l8.59 3.224zm-8.59 58.99v-27.885l2.158-2.15 6.432 6.441v20.379l-8.59 3.215zm37.54 7.507h-32.166c-2.86-.715-4.663-2.492-5.374-5.366l8.59-3.215h25.735l3.216 8.58zm-3.215-68.646h-25.628l-8.59-3.212c.711-2.86 2.514-4.65 5.365-5.37h32.069l-3.216 8.582zm2.158 22.528V81.324l3.224-8.581c2.843.719 4.63 2.508 5.348 5.369v30.034l-2.14 2.133-6.432-6.427zm6.432 8.577 2.14 2.15v30.025c-.718 2.874-2.505 4.65-5.348 5.366l-3.224-8.581v-22.52l6.432-6.44z"></path><path fill="#4D4D4D" d="M384.228 83.473v20.379l-6.432 6.427-2.158-2.133V80.25l8.59 3.224zm-8.59 58.99v-27.885l2.158-2.15 6.432 6.441v20.379l-8.59 3.215zm37.54 7.507h-32.166c-2.86-.715-4.663-2.492-5.374-5.366l8.59-3.215h25.735l3.216 8.58zm-3.215-68.646h-25.628l-8.59-3.212c.711-2.86 2.514-4.65 5.365-5.37h32.069l-3.216 8.582zm2.158 22.528V81.324l3.224-8.581c2.843.719 4.63 2.508 5.348 5.369v30.034l-2.14 2.133-6.432-6.427zm6.432 8.577 2.14 2.15v30.025c-.718 2.874-2.505 4.65-5.348 5.366l-3.224-8.581v-22.52l6.432-6.44zM264.7 142.013V114.52l2.109-2.109 6.324 6.345v20.073l-8.433 3.183zm40.153 7.403h-34.886c-2.82-.707-4.564-2.472-5.267-5.287l8.433-3.174h28.562l3.158 8.461zm-6.348-67.67h-25.248l-8.457-3.163c.71-2.823 2.471-4.584 5.265-5.282h31.63l-3.19 8.445zm2.116 25.371 4.232 4.237-4.232 4.225h-27.488l-4.217-4.225 4.217-4.237h27.488zm0-3.162v-22.21l3.183-8.444c2.81.698 4.571 2.459 5.283 5.282v29.6l-2.109 2.109-6.357-6.337zm-55.687.558V82.308l3.157-8.454c2.836.707 4.572 2.468 5.3 5.287v29.609l-2.142 2.104-6.315-6.34zm6.315 8.466 2.142 2.104v29.608c-.728 2.815-2.464 4.576-5.3 5.279l-3.157-8.457v-22.198l6.315-6.336zm77.397-28.55v20.08l-6.333 6.34-2.124-2.107V81.25l8.457 3.178zm28.546 65.54h-31.712c-2.819-.706-4.572-2.463-5.29-5.282l8.456-3.174h25.373l3.173 8.457zm0-67.661h-28.43l-8.465-3.17c.694-2.816 2.472-4.585 5.29-5.284h34.78l-3.175 8.454zm-1.05 25.371 4.225 4.23-4.224 4.223h-27.497l-4.224-4.224 4.224-4.229h27.497zm6.334 5.296 2.125 2.104v29.608c-.72 2.82-2.48 4.576-5.284 5.283l-3.174-8.457V119.31l6.333-6.336z"></path><linearGradient id="r" x1="257.979" x2="257.979" y1="69.703" y2="138.024" gradientUnits="userSpaceOnUse"><stop offset="0" stop-color="#e9ffcc"></stop><stop offset=".988" stop-color="#ebffcc"></stop></linearGradient><path fill="url(#r)" d="M425.646 111.358V77.802c0-6.312-7.184-11.417-16.055-11.417H106.369c-8.854 0-16.059 5.105-16.059 11.417v33.556h335.336z" opacity=".1"></path><linearGradient id="s" x1="117.623" x2="117.623" y1="256.511" y2="264.293" gradientUnits="userSpaceOnUse"><stop offset="0" stop-color="#232323"></stop><stop offset="1" stop-color="#232323" stop-opacity="0"></stop></linearGradient><path fill="url(#s)" d="M143.745 255.479c0 3.774-2.732 6.829-6.135 6.829H97.647c-3.397 0-6.147-3.055-6.147-6.829v-44.403c0-3.774 2.75-6.828 6.147-6.828h39.963c3.403 0 6.135 3.054 6.135 6.828v44.403z" opacity=".7"></path><linearGradient id="t" x1="117.628" x2="117.628" y1="200.106" y2="260.689" gradientUnits="userSpaceOnUse"><stop offset="0" stop-color="#fff"></stop><stop offset="1" stop-color="#fff" stop-opacity="0"></stop></linearGradient><path fill="url(#t)" d="M146.659 252.846c0 3.766-3.055 6.825-6.816 6.825H95.432a6.828 6.828 0 0 1-6.833-6.825V208.44a6.83 6.83 0 0 1 6.833-6.829h44.41c3.762 0 6.817 3.06 6.817 6.829v44.407z" opacity=".25"></path><linearGradient id="u" x1="117.621" x2="117.621" y1="258.057" y2="204.762" gradientUnits="userSpaceOnUse"><stop offset="0"></stop><stop offset=".988" stop-color="#303133"></stop></linearGradient><path fill="url(#u)" d="M137.81 204.248H97.44a6.212 6.212 0 0 0-6.212 6.209v40.368c0 3.426 2.782 6.2 6.212 6.2h40.37a6.199 6.199 0 0 0 6.204-6.2v-40.368a6.206 6.206 0 0 0-6.205-6.21zm3.579 44.56a5.59 5.59 0 0 1-5.593 5.588H99.462a5.583 5.583 0 0 1-5.585-5.588v-36.33a5.588 5.588 0 0 1 5.585-5.597h36.334a5.595 5.595 0 0 1 5.593 5.597v36.33z"></path><linearGradient id="v" x1="117.633" x2="117.633" y1="253.407" y2="208.381" gradientUnits="userSpaceOnUse"><stop offset="0" stop-color="#333"></stop><stop offset=".091" stop-color="#181a1a"></stop><stop offset=".945" stop-color="#484a4d"></stop><stop offset="1" stop-color="#5f6266"></stop></linearGradient><path fill="url(#v)" d="M141.389 248.808a5.59 5.59 0 0 1-5.593 5.588H99.462a5.583 5.583 0 0 1-5.585-5.588v-36.33a5.588 5.588 0 0 1 5.585-5.597h36.334a5.595 5.595 0 0 1 5.593 5.597v36.33z"></path><linearGradient id="w" x1="187.188" x2="187.188" y1="256.511" y2="264.293" gradientUnits="userSpaceOnUse"><stop offset="0" stop-color="#232323"></stop><stop offset="1" stop-color="#232323" stop-opacity="0"></stop></linearGradient><path fill="url(#w)" d="M213.313 255.479c0 3.774-2.762 6.829-6.16 6.829H167.19c-3.398 0-6.126-3.055-6.126-6.829v-44.403c0-3.774 2.728-6.828 6.126-6.828h39.964c3.397 0 6.158 3.054 6.158 6.828v44.403z" opacity=".55"></path><linearGradient id="x" x1="187.172" x2="187.172" y1="200.106" y2="260.689" gradientUnits="userSpaceOnUse"><stop offset="0" stop-color="#fff"></stop><stop offset="1" stop-color="#fff" stop-opacity="0"></stop></linearGradient><path fill="url(#x)" d="M216.206 252.846a6.824 6.824 0 0 1-6.829 6.825h-44.402c-3.778 0-6.837-3.06-6.837-6.825V208.44c0-3.77 3.059-6.829 6.837-6.829h44.402a6.825 6.825 0 0 1 6.83 6.829v44.407z" opacity=".25"></path><linearGradient id="y" x1="187.18" x2="187.18" y1="258.057" y2="204.762" gradientUnits="userSpaceOnUse"><stop offset="0"></stop><stop offset=".988" stop-color="#303133"></stop></linearGradient><path fill="url(#y)" d="M207.352 204.248H167a6.214 6.214 0 0 0-6.208 6.209v40.368c0 3.426 2.786 6.2 6.208 6.2h40.352a6.199 6.199 0 0 0 6.217-6.2v-40.368a6.206 6.206 0 0 0-6.217-6.21zm3.58 44.56a5.586 5.586 0 0 1-5.597 5.588h-36.317c-3.101 0-5.581-2.5-5.581-5.588v-36.33a5.576 5.576 0 0 1 5.58-5.597h36.318a5.59 5.59 0 0 1 5.597 5.597v36.33z" opacity=".2"></path><linearGradient id="z" x1="187.184" x2="187.184" y1="253.407" y2="208.381" gradientUnits="userSpaceOnUse"><stop offset="0" stop-color="#999"></stop><stop offset=".091" stop-color="#768080"></stop><stop offset=".945" stop-color="#a8acb3"></stop><stop offset="1" stop-color="#cbd0d9"></stop></linearGradient><path fill="url(#z)" d="M210.932 248.808a5.586 5.586 0 0 1-5.597 5.588h-36.317c-3.101 0-5.581-2.5-5.581-5.588v-36.33a5.576 5.576 0 0 1 5.58-5.597h36.318a5.59 5.59 0 0 1 5.597 5.597v36.33z"></path><linearGradient id="A" x1="256.727" x2="256.727" y1="256.511" y2="264.293" gradientUnits="userSpaceOnUse"><stop offset="0" stop-color="#232323"></stop><stop offset="1" stop-color="#232323" stop-opacity="0"></stop></linearGradient><path fill="url(#A)" d="M282.855 255.479c0 3.774-2.744 6.829-6.133 6.829H236.75c-3.39 0-6.15-3.055-6.15-6.829v-44.403c0-3.774 2.76-6.828 6.15-6.828h39.972c3.39 0 6.133 3.054 6.133 6.828v44.403z" opacity=".55"></path><linearGradient id="B" x1="256.735" x2="256.735" y1="200.106" y2="260.689" gradientUnits="userSpaceOnUse"><stop offset="0" stop-color="#fff"></stop><stop offset="1" stop-color="#fff" stop-opacity="0"></stop></linearGradient><path fill="url(#B)" d="M285.766 252.846a6.83 6.83 0 0 1-6.829 6.825h-44.403a6.825 6.825 0 0 1-6.828-6.825V208.44c0-3.77 3.05-6.829 6.828-6.829h44.404a6.83 6.83 0 0 1 6.828 6.829v44.407z" opacity=".25"></path><linearGradient id="C" x1="256.728" x2="256.728" y1="258.057" y2="204.762" gradientUnits="userSpaceOnUse"><stop offset="0"></stop><stop offset=".988" stop-color="#303133"></stop></linearGradient><path fill="url(#C)" d="M276.903 204.248h-40.351a6.21 6.21 0 0 0-6.217 6.209v40.368c0 3.426 2.777 6.2 6.217 6.2h40.351a6.203 6.203 0 0 0 6.217-6.2v-40.368a6.21 6.21 0 0 0-6.217-6.21zm3.588 44.56a5.585 5.585 0 0 1-5.596 5.588h-36.318a5.58 5.58 0 0 1-5.589-5.588v-36.33a5.584 5.584 0 0 1 5.59-5.597h36.317a5.59 5.59 0 0 1 5.596 5.597v36.33z" opacity=".2"></path><linearGradient id="D" x1="256.74" x2="256.74" y1="253.407" y2="208.381" gradientUnits="userSpaceOnUse"><stop offset="0" stop-color="#999"></stop><stop offset=".091" stop-color="#768080"></stop><stop offset=".945" stop-color="#a8acb3"></stop><stop offset="1" stop-color="#cbd0d9"></stop></linearGradient><path fill="url(#D)" d="M280.491 248.808a5.585 5.585 0 0 1-5.596 5.588h-36.318a5.58 5.58 0 0 1-5.589-5.588v-36.33a5.584 5.584 0 0 1 5.59-5.597h36.317a5.59 5.59 0 0 1 5.596 5.597v36.33z"></path><linearGradient id="E" x1="326.283" x2="326.283" y1="256.511" y2="264.293" gradientUnits="userSpaceOnUse"><stop offset="0" stop-color="#232323"></stop><stop offset="1" stop-color="#232323" stop-opacity="0"></stop></linearGradient><path fill="url(#E)" d="M352.407 255.479c0 3.774-2.745 6.829-6.142 6.829h-39.963c-3.39 0-6.143-3.055-6.143-6.829v-44.403c0-3.774 2.753-6.828 6.143-6.828h39.963c3.397 0 6.142 3.054 6.142 6.828v44.403z" opacity=".55"></path><linearGradient id="F" x1="326.287" x2="326.287" y1="200.106" y2="260.689" gradientUnits="userSpaceOnUse"><stop offset="0" stop-color="#fff"></stop><stop offset="1" stop-color="#fff" stop-opacity="0"></stop></linearGradient><path fill="url(#F)" d="M355.317 252.846c0 3.766-3.058 6.825-6.845 6.825h-44.386a6.82 6.82 0 0 1-6.83-6.825V208.44a6.82 6.82 0 0 1 6.83-6.829h44.386c3.787 0 6.845 3.06 6.845 6.829v44.407z" opacity=".25"></path><linearGradient id="G" x1="326.287" x2="326.287" y1="258.057" y2="204.762" gradientUnits="userSpaceOnUse"><stop offset="0"></stop><stop offset=".988" stop-color="#303133"></stop></linearGradient><path fill="url(#G)" d="M346.472 204.248h-40.36a6.206 6.206 0 0 0-6.217 6.209v40.368c0 3.426 2.77 6.2 6.216 6.2h40.36a6.197 6.197 0 0 0 6.209-6.2v-40.368a6.204 6.204 0 0 0-6.208-6.21zm3.554 44.56a5.579 5.579 0 0 1-5.589 5.588H308.12a5.591 5.591 0 0 1-5.597-5.588v-36.33a5.596 5.596 0 0 1 5.597-5.597h36.317c3.101 0 5.59 2.505 5.59 5.597v36.33z" opacity=".2"></path><linearGradient id="H" x1="326.275" x2="326.275" y1="253.407" y2="208.381" gradientUnits="userSpaceOnUse"><stop offset="0" stop-color="#999"></stop><stop offset=".091" stop-color="#768080"></stop><stop offset=".945" stop-color="#a8acb3"></stop><stop offset="1" stop-color="#cbd0d9"></stop></linearGradient><path fill="url(#H)" d="M350.026 248.808a5.579 5.579 0 0 1-5.589 5.588H308.12a5.591 5.591 0 0 1-5.597-5.588v-36.33a5.596 5.596 0 0 1 5.597-5.597h36.317c3.101 0 5.59 2.505 5.59 5.597v36.33z"></path><linearGradient id="I" x1="395.834" x2="395.834" y1="256.511" y2="264.293" gradientUnits="userSpaceOnUse"><stop offset="0" stop-color="#232323"></stop><stop offset="1" stop-color="#232323" stop-opacity="0"></stop></linearGradient><path fill="url(#I)" d="M421.967 255.479c0 3.774-2.753 6.829-6.15 6.829H375.86c-3.398 0-6.159-3.055-6.159-6.829v-44.403c0-3.774 2.76-6.828 6.16-6.828h39.954c3.398 0 6.15 3.054 6.15 6.828v44.403z" opacity=".7"></path><linearGradient id="J" x1="395.838" x2="395.838" y1="200.106" y2="260.689" gradientUnits="userSpaceOnUse"><stop offset="0" stop-color="#fff"></stop><stop offset="1" stop-color="#fff" stop-opacity="0"></stop></linearGradient><path fill="url(#J)" d="M424.868 252.846a6.823 6.823 0 0 1-6.845 6.825h-44.386a6.83 6.83 0 0 1-6.828-6.825V208.44a6.83 6.83 0 0 1 6.828-6.829h44.386a6.823 6.823 0 0 1 6.845 6.829v44.407z" opacity=".25"></path><linearGradient id="K" x1="395.826" x2="395.826" y1="258.057" y2="204.762" gradientUnits="userSpaceOnUse"><stop offset="0"></stop><stop offset=".988" stop-color="#303133"></stop></linearGradient><path fill="url(#K)" d="M416.015 204.248h-40.377c-3.423 0-6.2 2.782-6.2 6.209v40.368a6.2 6.2 0 0 0 6.2 6.2h40.377c3.447 0 6.2-2.774 6.2-6.2v-40.368a6.191 6.191 0 0 0-6.2-6.21zm3.588 44.56a5.588 5.588 0 0 1-5.606 5.588H377.68a5.584 5.584 0 0 1-5.59-5.588v-36.33a5.589 5.589 0 0 1 5.59-5.597h36.317a5.593 5.593 0 0 1 5.606 5.597v36.33z"></path><linearGradient id="L" x1="395.847" x2="395.847" y1="253.407" y2="208.381" gradientUnits="userSpaceOnUse"><stop offset="0" stop-color="#333"></stop><stop offset=".091" stop-color="#181a1a"></stop><stop offset=".945" stop-color="#484a4d"></stop><stop offset="1" stop-color="#5f6266"></stop></linearGradient><path fill="url(#L)" d="M419.603 248.808a5.588 5.588 0 0 1-5.606 5.588H377.68a5.584 5.584 0 0 1-5.59-5.588v-36.33a5.589 5.589 0 0 1 5.59-5.597h36.317a5.593 5.593 0 0 1 5.606 5.597v36.33z"></path><linearGradient id="M" x1="117.623" x2="117.623" y1="326.055" y2="333.835" gradientUnits="userSpaceOnUse"><stop offset="0" stop-color="#232323"></stop><stop offset=".988" stop-color="#232323" stop-opacity="0"></stop></linearGradient><path fill="url(#M)" d="M143.745 325.04c0 3.76-2.732 6.81-6.135 6.81H97.647c-3.397 0-6.147-3.05-6.147-6.81v-44.412c0-3.77 2.75-6.824 6.147-6.824h39.963c3.403 0 6.135 3.054 6.135 6.824v44.411z" opacity=".7"></path><linearGradient id="N" x1="117.628" x2="117.628" y1="269.658" y2="330.248" gradientUnits="userSpaceOnUse"><stop offset="0" stop-color="#fff"></stop><stop offset="1" stop-color="#fff" stop-opacity="0"></stop></linearGradient><path fill="url(#N)" d="M146.659 322.394c0 3.778-3.055 6.836-6.816 6.836H95.432a6.83 6.83 0 0 1-6.833-6.836v-44.408a6.823 6.823 0 0 1 6.833-6.824h44.41a6.82 6.82 0 0 1 6.817 6.824v44.408z" opacity=".2"></path><linearGradient id="O" x1="117.621" x2="117.621" y1="327.624" y2="274.317" gradientUnits="userSpaceOnUse"><stop offset="0"></stop><stop offset=".988" stop-color="#303133"></stop></linearGradient><path fill="url(#O)" d="M137.81 273.804H97.44a6.208 6.208 0 0 0-6.212 6.204v40.368c0 3.423 2.782 6.217 6.212 6.217h40.37c3.43 0 6.204-2.794 6.204-6.217v-40.368a6.202 6.202 0 0 0-6.205-6.204zm3.579 44.555a5.58 5.58 0 0 1-5.593 5.58H99.462a5.574 5.574 0 0 1-5.585-5.58v-36.33a5.581 5.581 0 0 1 5.585-5.589h36.334a5.588 5.588 0 0 1 5.593 5.59v36.33z"></path><linearGradient id="P" x1="117.633" x2="117.633" y1="322.951" y2="277.941" gradientUnits="userSpaceOnUse"><stop offset="0" stop-color="#2e2e2e"></stop><stop offset=".091" stop-color="#131515"></stop><stop offset=".945" stop-color="#434548"></stop><stop offset="1" stop-color="#5f6266"></stop></linearGradient><path fill="url(#P)" d="M141.389 318.36a5.58 5.58 0 0 1-5.593 5.58H99.462a5.574 5.574 0 0 1-5.585-5.58v-36.33a5.581 5.581 0 0 1 5.585-5.59h36.334a5.588 5.588 0 0 1 5.593 5.59v36.33z"></path><linearGradient id="Q" x1="187.188" x2="187.188" y1="326.055" y2="333.835" gradientUnits="userSpaceOnUse"><stop offset="0" stop-color="#232323"></stop><stop offset=".988" stop-color="#232323" stop-opacity="0"></stop></linearGradient><path fill="url(#Q)" d="M213.313 325.04c0 3.76-2.762 6.81-6.16 6.81H167.19c-3.398 0-6.126-3.05-6.126-6.81v-44.412c0-3.77 2.728-6.824 6.126-6.824h39.964c3.397 0 6.158 3.054 6.158 6.824v44.411z" opacity=".6"></path><linearGradient id="R" x1="187.172" x2="187.172" y1="269.658" y2="330.248" gradientUnits="userSpaceOnUse"><stop offset="0" stop-color="#fff"></stop><stop offset="1" stop-color="#fff" stop-opacity="0"></stop></linearGradient><path fill="url(#R)" d="M216.206 322.394a6.827 6.827 0 0 1-6.829 6.836h-44.402a6.834 6.834 0 0 1-6.837-6.836v-44.408c0-3.773 3.059-6.824 6.837-6.824h44.402a6.82 6.82 0 0 1 6.83 6.824v44.408z" opacity=".2"></path><linearGradient id="S" x1="187.18" x2="187.18" y1="327.624" y2="274.317" gradientUnits="userSpaceOnUse"><stop offset="0"></stop><stop offset=".988" stop-color="#303133"></stop></linearGradient><path fill="url(#S)" d="M207.352 273.804H167a6.21 6.21 0 0 0-6.208 6.204v40.368c0 3.423 2.786 6.217 6.208 6.217h40.352a6.215 6.215 0 0 0 6.217-6.217v-40.368a6.201 6.201 0 0 0-6.217-6.204zm3.58 44.555a5.576 5.576 0 0 1-5.597 5.58h-36.317c-3.101 0-5.581-2.488-5.581-5.58v-36.33a5.57 5.57 0 0 1 5.58-5.589h36.318c3.1 0 5.597 2.497 5.597 5.59v36.33z" opacity=".25"></path><linearGradient id="T" x1="187.184" x2="187.184" y1="322.951" y2="277.941" gradientUnits="userSpaceOnUse"><stop offset="0" stop-color="#949494"></stop><stop offset=".091" stop-color="#717b7b"></stop><stop offset=".945" stop-color="#979ba1"></stop><stop offset="1" stop-color="#cbd1d9"></stop></linearGradient><path fill="url(#T)" d="M210.932 318.36a5.576 5.576 0 0 1-5.597 5.58h-36.317c-3.101 0-5.581-2.489-5.581-5.58v-36.33a5.57 5.57 0 0 1 5.58-5.59h36.318c3.1 0 5.597 2.497 5.597 5.59v36.33z"></path><linearGradient id="U" x1="256.727" x2="256.727" y1="326.055" y2="333.835" gradientUnits="userSpaceOnUse"><stop offset="0" stop-color="#232323"></stop><stop offset=".988" stop-color="#232323" stop-opacity="0"></stop></linearGradient><path fill="url(#U)" d="M282.855 325.04c0 3.76-2.744 6.81-6.133 6.81H236.75c-3.39 0-6.15-3.05-6.15-6.81v-44.412c0-3.77 2.76-6.824 6.15-6.824h39.972c3.39 0 6.133 3.054 6.133 6.824v44.411z" opacity=".6"></path><linearGradient id="V" x1="256.735" x2="256.735" y1="269.658" y2="330.248" gradientUnits="userSpaceOnUse"><stop offset="0" stop-color="#fff"></stop><stop offset="1" stop-color="#fff" stop-opacity="0"></stop></linearGradient><path fill="url(#V)" d="M285.766 322.394a6.832 6.832 0 0 1-6.829 6.836h-44.403a6.827 6.827 0 0 1-6.828-6.836v-44.408a6.82 6.82 0 0 1 6.828-6.824h44.404c3.769 0 6.828 3.05 6.828 6.824v44.408z" opacity=".2"></path><linearGradient id="W" x1="256.728" x2="256.728" y1="327.624" y2="274.317" gradientUnits="userSpaceOnUse"><stop offset="0"></stop><stop offset=".988" stop-color="#303133"></stop></linearGradient><path fill="url(#W)" d="M276.903 273.804h-40.351a6.206 6.206 0 0 0-6.217 6.204v40.368a6.22 6.22 0 0 0 6.217 6.217h40.351a6.22 6.22 0 0 0 6.217-6.217v-40.368a6.206 6.206 0 0 0-6.217-6.204zm3.588 44.555a5.576 5.576 0 0 1-5.596 5.58h-36.318a5.57 5.57 0 0 1-5.589-5.58v-36.33a5.577 5.577 0 0 1 5.59-5.589h36.317c3.1 0 5.596 2.497 5.596 5.59v36.33z" opacity=".25"></path><linearGradient id="X" x1="256.74" x2="256.74" y1="322.951" y2="277.941" gradientUnits="userSpaceOnUse"><stop offset="0" stop-color="#949494"></stop><stop offset=".091" stop-color="#717b7b"></stop><stop offset=".945" stop-color="#979ba1"></stop><stop offset="1" stop-color="#cbd1d9"></stop></linearGradient><path fill="url(#X)" d="M280.491 318.36a5.576 5.576 0 0 1-5.596 5.58h-36.318a5.57 5.57 0 0 1-5.589-5.58v-36.33a5.577 5.577 0 0 1 5.59-5.59h36.317c3.1 0 5.596 2.497 5.596 5.59v36.33z"></path><linearGradient id="Y" x1="326.283" x2="326.283" y1="326.055" y2="333.835" gradientUnits="userSpaceOnUse"><stop offset="0" stop-color="#232323"></stop><stop offset="1" stop-color="#232323" stop-opacity="0"></stop></linearGradient><path fill="url(#Y)" d="M352.407 325.04c0 3.76-2.745 6.81-6.142 6.81h-39.963c-3.39 0-6.143-3.05-6.143-6.81v-44.412c0-3.77 2.753-6.824 6.143-6.824h39.963c3.397 0 6.142 3.054 6.142 6.824v44.411z" opacity=".6"></path><linearGradient id="Z" x1="326.287" x2="326.287" y1="269.658" y2="330.248" gradientUnits="userSpaceOnUse"><stop offset="0" stop-color="#fff"></stop><stop offset="1" stop-color="#fff" stop-opacity="0"></stop></linearGradient><path fill="url(#Z)" d="M355.317 322.394a6.836 6.836 0 0 1-6.845 6.836h-44.386a6.822 6.822 0 0 1-6.83-6.836v-44.408a6.815 6.815 0 0 1 6.83-6.824h44.386c3.787 0 6.845 3.05 6.845 6.824v44.408z" opacity=".2"></path><linearGradient id="aa" x1="326.287" x2="326.287" y1="327.624" y2="274.317" gradientUnits="userSpaceOnUse"><stop offset="0"></stop><stop offset=".988" stop-color="#303133"></stop></linearGradient><path fill="url(#aa)" d="M346.472 273.804h-40.36a6.201 6.201 0 0 0-6.217 6.204v40.368a6.215 6.215 0 0 0 6.216 6.217h40.36c3.44 0 6.209-2.794 6.209-6.217v-40.368a6.2 6.2 0 0 0-6.208-6.204zm3.554 44.555a5.57 5.57 0 0 1-5.589 5.58H308.12a5.581 5.581 0 0 1-5.597-5.58v-36.33a5.589 5.589 0 0 1 5.597-5.589h36.317c3.101 0 5.59 2.497 5.59 5.59v36.33z" opacity=".25"></path><linearGradient id="ab" x1="326.275" x2="326.275" y1="322.951" y2="277.941" gradientUnits="userSpaceOnUse"><stop offset="0" stop-color="#949494"></stop><stop offset=".091" stop-color="#717b7b"></stop><stop offset=".945" stop-color="#979ba1"></stop><stop offset="1" stop-color="#cbd1d9"></stop></linearGradient><path fill="url(#ab)" d="M350.026 318.36a5.57 5.57 0 0 1-5.589 5.58H308.12a5.581 5.581 0 0 1-5.597-5.58v-36.33a5.589 5.589 0 0 1 5.597-5.59h36.317c3.101 0 5.59 2.497 5.59 5.59v36.33z"></path><linearGradient id="ac" x1="395.834" x2="395.834" y1="326.055" y2="333.835" gradientUnits="userSpaceOnUse"><stop offset="0" stop-color="#232323"></stop><stop offset=".988" stop-color="#232323" stop-opacity="0"></stop></linearGradient><path fill="url(#ac)" d="M421.967 325.04c0 3.76-2.753 6.81-6.15 6.81H375.86c-3.398 0-6.159-3.05-6.159-6.81v-44.412c0-3.77 2.76-6.824 6.16-6.824h39.954c3.398 0 6.15 3.054 6.15 6.824v44.411z" opacity=".7"></path><linearGradient id="ad" x1="395.838" x2="395.838" y1="269.658" y2="330.248" gradientUnits="userSpaceOnUse"><stop offset="0" stop-color="#fff"></stop><stop offset="1" stop-color="#fff" stop-opacity="0"></stop></linearGradient><path fill="url(#ad)" d="M424.868 322.394a6.825 6.825 0 0 1-6.845 6.836h-44.386a6.832 6.832 0 0 1-6.828-6.836v-44.408a6.824 6.824 0 0 1 6.828-6.824h44.386a6.817 6.817 0 0 1 6.845 6.824v44.408z" opacity=".2"></path><linearGradient id="ae" x1="395.826" x2="395.826" y1="327.624" y2="274.317" gradientUnits="userSpaceOnUse"><stop offset="0"></stop><stop offset=".988" stop-color="#303133"></stop></linearGradient><path fill="url(#ae)" d="M416.015 273.804h-40.377a6.203 6.203 0 0 0-6.2 6.204v40.368c0 3.423 2.777 6.217 6.2 6.217h40.377c3.447 0 6.2-2.794 6.2-6.217v-40.368a6.187 6.187 0 0 0-6.2-6.204zm3.588 44.555a5.578 5.578 0 0 1-5.606 5.58H377.68a5.575 5.575 0 0 1-5.59-5.58v-36.33a5.582 5.582 0 0 1 5.59-5.589h36.317a5.586 5.586 0 0 1 5.606 5.59v36.33z"></path><linearGradient id="af" x1="395.847" x2="395.847" y1="322.951" y2="277.941" gradientUnits="userSpaceOnUse"><stop offset="0" stop-color="#2e2e2e"></stop><stop offset=".091" stop-color="#131515"></stop><stop offset=".945" stop-color="#434548"></stop><stop offset="1" stop-color="#5f6266"></stop></linearGradient><path fill="url(#af)" d="M419.603 318.36a5.578 5.578 0 0 1-5.606 5.58H377.68a5.575 5.575 0 0 1-5.59-5.58v-36.33a5.582 5.582 0 0 1 5.59-5.59h36.317a5.586 5.586 0 0 1 5.606 5.59v36.33z"></path><linearGradient id="ag" x1="117.623" x2="117.623" y1="395.62" y2="403.404" gradientUnits="userSpaceOnUse"><stop offset="0" stop-color="#232323"></stop><stop offset=".994" stop-color="#232323" stop-opacity="0"></stop></linearGradient><path fill="url(#ag)" d="M143.745 394.599c0 3.753-2.732 6.82-6.135 6.82H97.647c-3.397 0-6.147-3.067-6.147-6.82v-44.411c0-3.779 2.75-6.837 6.147-6.837h39.963c3.403 0 6.135 3.058 6.135 6.837v44.41z" opacity=".7"></path><linearGradient id="ah" x1="117.628" x2="117.628" y1="339.209" y2="399.799" gradientUnits="userSpaceOnUse"><stop offset="0" stop-color="#fff"></stop><stop offset="1" stop-color="#fff" stop-opacity="0"></stop></linearGradient><path fill="url(#ah)" d="M146.659 391.944c0 3.779-3.055 6.837-6.816 6.837H95.432a6.83 6.83 0 0 1-6.833-6.837v-44.402a6.834 6.834 0 0 1 6.833-6.83h44.41c3.762 0 6.817 3.068 6.817 6.83v44.402z" opacity=".15"></path><linearGradient id="ai" x1="117.621" x2="117.621" y1="397.167" y2="343.864" gradientUnits="userSpaceOnUse"><stop offset="0"></stop><stop offset=".988" stop-color="#303133"></stop></linearGradient><path fill="url(#ai)" d="M137.81 343.35H97.44c-3.43 0-6.212 2.795-6.212 6.217v40.352a6.217 6.217 0 0 0 6.212 6.217h40.37c3.43 0 6.204-2.786 6.204-6.217v-40.352c0-3.422-2.774-6.216-6.205-6.216zm3.579 44.552a5.6 5.6 0 0 1-5.593 5.597H99.462c-3.088 0-5.585-2.514-5.585-5.597v-36.334a5.572 5.572 0 0 1 5.585-5.572h36.334c3.088 0 5.593 2.488 5.593 5.572v36.334z"></path><linearGradient id="aj" x1="117.633" x2="117.633" y1="392.511" y2="347.496" gradientUnits="userSpaceOnUse"><stop offset="0" stop-color="#262626"></stop><stop offset=".091" stop-color="#0c0d0d"></stop><stop offset=".945" stop-color="#3c3e40"></stop><stop offset="1" stop-color="#5f6366"></stop></linearGradient><path fill="url(#aj)" d="M141.389 387.902a5.6 5.6 0 0 1-5.593 5.597H99.462c-3.088 0-5.585-2.514-5.585-5.597v-36.334a5.572 5.572 0 0 1 5.585-5.572h36.334c3.088 0 5.593 2.488 5.593 5.572v36.334z"></path><linearGradient id="ak" x1="187.188" x2="187.188" y1="395.62" y2="403.404" gradientUnits="userSpaceOnUse"><stop offset="0" stop-color="#232323"></stop><stop offset=".994" stop-color="#232323" stop-opacity="0"></stop></linearGradient><path fill="url(#ak)" d="M213.313 394.599c0 3.753-2.762 6.82-6.16 6.82H167.19c-3.398 0-6.126-3.067-6.126-6.82v-44.411c0-3.779 2.728-6.837 6.126-6.837h39.964c3.397 0 6.158 3.058 6.158 6.837v44.41z" opacity=".65"></path><linearGradient id="al" x1="187.172" x2="187.172" y1="339.209" y2="399.799" gradientUnits="userSpaceOnUse"><stop offset="0" stop-color="#fff"></stop><stop offset="1" stop-color="#fff" stop-opacity="0"></stop></linearGradient><path fill="url(#al)" d="M216.206 391.944a6.827 6.827 0 0 1-6.829 6.837h-44.402a6.834 6.834 0 0 1-6.837-6.837v-44.402c0-3.762 3.059-6.83 6.837-6.83h44.402a6.83 6.83 0 0 1 6.83 6.83v44.402z" opacity=".15"></path><linearGradient id="am" x1="187.18" x2="187.18" y1="397.167" y2="343.864" gradientUnits="userSpaceOnUse"><stop offset="0"></stop><stop offset=".988" stop-color="#303133"></stop></linearGradient><path fill="url(#am)" d="M207.352 343.35H167c-3.422 0-6.208 2.795-6.208 6.217v40.352c0 3.43 2.786 6.217 6.208 6.217h40.352a6.21 6.21 0 0 0 6.217-6.217v-40.352a6.215 6.215 0 0 0-6.217-6.216zm3.58 44.552a5.596 5.596 0 0 1-5.597 5.597h-36.317c-3.101 0-5.581-2.514-5.581-5.597v-36.334a5.56 5.56 0 0 1 5.58-5.572h36.318c3.1 0 5.597 2.488 5.597 5.572v36.334z" opacity=".3"></path><linearGradient id="an" x1="187.184" x2="187.184" y1="392.511" y2="347.496" gradientUnits="userSpaceOnUse"><stop offset="0" stop-color="#8c8c8c"></stop><stop offset=".091" stop-color="#6a7373"></stop><stop offset=".945" stop-color="#9ca0a6"></stop><stop offset="1" stop-color="#cbd1d9"></stop></linearGradient><path fill="url(#an)" d="M210.932 387.902a5.596 5.596 0 0 1-5.597 5.597h-36.317c-3.101 0-5.581-2.514-5.581-5.597v-36.334a5.56 5.56 0 0 1 5.58-5.572h36.318c3.1 0 5.597 2.488 5.597 5.572v36.334z"></path><linearGradient id="ao" x1="256.727" x2="256.727" y1="395.62" y2="403.404" gradientUnits="userSpaceOnUse"><stop offset="0" stop-color="#232323"></stop><stop offset=".994" stop-color="#232323" stop-opacity="0"></stop></linearGradient><path fill="url(#ao)" d="M282.855 394.599c0 3.753-2.744 6.82-6.133 6.82H236.75c-3.39 0-6.15-3.067-6.15-6.82v-44.411c0-3.779 2.76-6.837 6.15-6.837h39.972c3.39 0 6.133 3.058 6.133 6.837v44.41z" opacity=".65"></path><linearGradient id="ap" x1="256.735" x2="256.735" y1="339.209" y2="399.799" gradientUnits="userSpaceOnUse"><stop offset="0" stop-color="#fff"></stop><stop offset="1" stop-color="#fff" stop-opacity="0"></stop></linearGradient><path fill="url(#ap)" d="M285.766 391.944a6.832 6.832 0 0 1-6.829 6.837h-44.403a6.827 6.827 0 0 1-6.828-6.837v-44.402c0-3.762 3.05-6.83 6.828-6.83h44.404c3.769 0 6.828 3.068 6.828 6.83v44.402z" opacity=".15"></path><linearGradient id="aq" x1="256.728" x2="256.728" y1="397.167" y2="343.864" gradientUnits="userSpaceOnUse"><stop offset="0"></stop><stop offset=".988" stop-color="#303133"></stop></linearGradient><path fill="url(#aq)" d="M276.903 343.35h-40.351a6.22 6.22 0 0 0-6.217 6.217v40.352a6.215 6.215 0 0 0 6.217 6.217h40.351a6.215 6.215 0 0 0 6.217-6.217v-40.352a6.22 6.22 0 0 0-6.217-6.216zm3.588 44.552a5.596 5.596 0 0 1-5.596 5.597h-36.318a5.59 5.59 0 0 1-5.589-5.597v-36.334a5.568 5.568 0 0 1 5.59-5.572h36.317c3.1 0 5.596 2.488 5.596 5.572v36.334z" opacity=".3"></path><linearGradient id="ar" x1="256.74" x2="256.74" y1="392.511" y2="347.496" gradientUnits="userSpaceOnUse"><stop offset="0" stop-color="#8c8c8c"></stop><stop offset=".091" stop-color="#6a7373"></stop><stop offset=".945" stop-color="#9ca0a6"></stop><stop offset="1" stop-color="#cbd1d9"></stop></linearGradient><path fill="url(#ar)" d="M280.491 387.902a5.596 5.596 0 0 1-5.596 5.597h-36.318a5.59 5.59 0 0 1-5.589-5.597v-36.334a5.568 5.568 0 0 1 5.59-5.572h36.317c3.1 0 5.596 2.488 5.596 5.572v36.334z"></path><linearGradient id="as" x1="326.283" x2="326.283" y1="395.62" y2="403.404" gradientUnits="userSpaceOnUse"><stop offset="0" stop-color="#232323"></stop><stop offset=".994" stop-color="#232323" stop-opacity="0"></stop></linearGradient><path fill="url(#as)" d="M352.407 394.599c0 3.753-2.745 6.82-6.142 6.82h-39.963c-3.39 0-6.143-3.067-6.143-6.82v-44.411c0-3.779 2.753-6.837 6.143-6.837h39.963c3.397 0 6.142 3.058 6.142 6.837v44.41z" opacity=".65"></path><linearGradient id="at" x1="326.287" x2="326.287" y1="339.209" y2="399.799" gradientUnits="userSpaceOnUse"><stop offset="0" stop-color="#fff"></stop><stop offset="1" stop-color="#fff" stop-opacity="0"></stop></linearGradient><path fill="url(#at)" d="M355.317 391.944a6.836 6.836 0 0 1-6.845 6.837h-44.386a6.822 6.822 0 0 1-6.83-6.837v-44.402a6.826 6.826 0 0 1 6.83-6.83h44.386c3.787 0 6.845 3.068 6.845 6.83v44.402z" opacity=".15"></path><linearGradient id="au" x1="326.287" x2="326.287" y1="397.167" y2="343.864" gradientUnits="userSpaceOnUse"><stop offset="0"></stop><stop offset=".988" stop-color="#303133"></stop></linearGradient><path fill="url(#au)" d="M346.472 343.35h-40.36a6.215 6.215 0 0 0-6.217 6.217v40.352a6.21 6.21 0 0 0 6.216 6.217h40.36a6.208 6.208 0 0 0 6.209-6.217v-40.352c0-3.422-2.77-6.216-6.208-6.216zm3.554 44.552a5.589 5.589 0 0 1-5.589 5.597H308.12a5.601 5.601 0 0 1-5.597-5.597v-36.334c0-3.084 2.505-5.572 5.597-5.572h36.317c3.101 0 5.59 2.488 5.59 5.572v36.334z" opacity=".3"></path><linearGradient id="av" x1="326.275" x2="326.275" y1="392.511" y2="347.496" gradientUnits="userSpaceOnUse"><stop offset="0" stop-color="#8c8c8c"></stop><stop offset=".091" stop-color="#6a7373"></stop><stop offset=".945" stop-color="#9ca0a6"></stop><stop offset="1" stop-color="#cbd1d9"></stop></linearGradient><path fill="url(#av)" d="M350.026 387.902a5.589 5.589 0 0 1-5.589 5.597H308.12a5.601 5.601 0 0 1-5.597-5.597v-36.334c0-3.084 2.505-5.572 5.597-5.572h36.317c3.101 0 5.59 2.488 5.59 5.572v36.334z"></path><linearGradient id="aw" x1="117.623" x2="117.623" y1="465.163" y2="472.947" gradientUnits="userSpaceOnUse"><stop offset="0" stop-color="#801919"></stop><stop offset="1" stop-color="#801a1a" stop-opacity="0"></stop></linearGradient><path fill="url(#aw)" d="M143.745 464.142c0 3.761-2.732 6.82-6.135 6.82H97.647c-3.397 0-6.147-3.059-6.147-6.82v-44.403c0-3.77 2.75-6.845 6.147-6.845h39.963c3.403 0 6.135 3.075 6.135 6.845v44.403z" opacity=".7"></path><linearGradient id="ax" x1="117.628" x2="117.628" y1="408.777" y2="469.358" gradientUnits="userSpaceOnUse"><stop offset="0" stop-color="#fff"></stop><stop offset="1" stop-color="#fff" stop-opacity="0"></stop></linearGradient><path fill="url(#ax)" d="M146.659 461.504c0 3.762-3.055 6.837-6.816 6.837H95.432c-3.779 0-6.833-3.075-6.833-6.837v-44.419c0-3.753 3.054-6.804 6.833-6.804h44.41c3.762 0 6.817 3.051 6.817 6.804v44.419z" opacity=".1"></path><linearGradient id="ay" x1="117.621" x2="117.621" y1="466.719" y2="413.407" gradientUnits="userSpaceOnUse"><stop offset="0" stop-color="#330a0a"></stop><stop offset=".994" stop-color="#661515"></stop></linearGradient><path fill="url(#ay)" d="M137.81 412.894H97.44c-3.43 0-6.212 2.786-6.212 6.225v40.36a6.204 6.204 0 0 0 6.212 6.209h40.37c3.43 0 6.204-2.77 6.204-6.21V419.12c0-3.44-2.774-6.225-6.205-6.225zm3.579 44.568a5.588 5.588 0 0 1-5.593 5.589H99.462a5.581 5.581 0 0 1-5.585-5.59v-36.333a5.586 5.586 0 0 1 5.585-5.589h36.334a5.593 5.593 0 0 1 5.593 5.589v36.334z" opacity=".5"></path><linearGradient id="az" x1="117.633" x2="117.633" y1="462.063" y2="417.04" gradientUnits="userSpaceOnUse"><stop offset="0" stop-color="#a02828"></stop><stop offset=".091" stop-color="#881b1b"></stop><stop offset=".945" stop-color="#bb2525"></stop><stop offset="1" stop-color="#e63a3a"></stop></linearGradient><path fill="url(#az)" d="M141.389 457.462a5.588 5.588 0 0 1-5.593 5.589H99.462a5.581 5.581 0 0 1-5.585-5.59v-36.333a5.586 5.586 0 0 1 5.585-5.589h36.334a5.593 5.593 0 0 1 5.593 5.589v36.334z"></path><linearGradient id="aA" x1="187.188" x2="187.188" y1="465.163" y2="472.947" gradientUnits="userSpaceOnUse"><stop offset="0" stop-color="#232323"></stop><stop offset=".988" stop-color="#232323" stop-opacity="0"></stop></linearGradient><path fill="url(#aA)" d="M213.313 464.142c0 3.761-2.762 6.82-6.16 6.82H167.19c-3.398 0-6.126-3.059-6.126-6.82v-44.403c0-3.77 2.728-6.845 6.126-6.845h39.964c3.397 0 6.158 3.075 6.158 6.845v44.403z" opacity=".7"></path><linearGradient id="aB" x1="187.172" x2="187.172" y1="408.777" y2="469.358" gradientUnits="userSpaceOnUse"><stop offset="0" stop-color="#fff"></stop><stop offset="1" stop-color="#fff" stop-opacity="0"></stop></linearGradient><path fill="url(#aB)" d="M216.206 461.504c0 3.762-3.05 6.837-6.829 6.837h-44.402c-3.778 0-6.837-3.075-6.837-6.837v-44.419c0-3.753 3.059-6.804 6.837-6.804h44.402c3.779 0 6.83 3.051 6.83 6.804v44.419z" opacity=".1"></path><linearGradient id="aC" x1="187.18" x2="187.18" y1="466.719" y2="413.407" gradientUnits="userSpaceOnUse"><stop offset="0"></stop><stop offset=".988" stop-color="#303133"></stop></linearGradient><path fill="url(#aC)" d="M207.352 412.894H167c-3.422 0-6.208 2.786-6.208 6.225v40.36a6.206 6.206 0 0 0 6.208 6.209h40.352a6.198 6.198 0 0 0 6.217-6.21V419.12c0-3.44-2.77-6.225-6.217-6.225zm3.58 44.568a5.584 5.584 0 0 1-5.597 5.589h-36.317a5.57 5.57 0 0 1-5.581-5.59v-36.333a5.575 5.575 0 0 1 5.58-5.589h36.318c3.1 0 5.597 2.505 5.597 5.589v36.334z" opacity=".35"></path><linearGradient id="aD" x1="187.184" x2="187.184" y1="462.063" y2="417.04" gradientUnits="userSpaceOnUse"><stop offset="0" stop-color="#878787"></stop><stop offset=".085" stop-color="#666e6e"></stop><stop offset=".945" stop-color="#979ba1"></stop><stop offset="1" stop-color="#cbd1d9"></stop></linearGradient><path fill="url(#aD)" d="M210.932 457.462a5.584 5.584 0 0 1-5.597 5.589h-36.317a5.57 5.57 0 0 1-5.581-5.59v-36.333a5.575 5.575 0 0 1 5.58-5.589h36.318c3.1 0 5.597 2.505 5.597 5.589v36.334z"></path><linearGradient id="aE" x1="256.727" x2="256.727" y1="465.163" y2="472.947" gradientUnits="userSpaceOnUse"><stop offset="0" stop-color="#232323"></stop><stop offset=".988" stop-color="#232323" stop-opacity="0"></stop></linearGradient><path fill="url(#aE)" d="M282.855 464.142c0 3.761-2.744 6.82-6.133 6.82H236.75c-3.39 0-6.15-3.059-6.15-6.82v-44.403c0-3.77 2.76-6.845 6.15-6.845h39.972c3.39 0 6.133 3.075 6.133 6.845v44.403z" opacity=".7"></path><linearGradient id="aF" x1="256.735" x2="256.735" y1="408.777" y2="469.358" gradientUnits="userSpaceOnUse"><stop offset="0" stop-color="#fff"></stop><stop offset="1" stop-color="#fff" stop-opacity="0"></stop></linearGradient><path fill="url(#aF)" d="M285.766 461.504c0 3.762-3.059 6.837-6.829 6.837h-44.403c-3.778 0-6.828-3.075-6.828-6.837v-44.419c0-3.753 3.05-6.804 6.828-6.804h44.404c3.769 0 6.828 3.051 6.828 6.804v44.419z" opacity=".1"></path><linearGradient id="aG" x1="256.728" x2="256.728" y1="466.719" y2="413.407" gradientUnits="userSpaceOnUse"><stop offset="0"></stop><stop offset=".988" stop-color="#303133"></stop></linearGradient><path fill="url(#aG)" d="M276.903 412.894h-40.351a6.217 6.217 0 0 0-6.217 6.225v40.36a6.202 6.202 0 0 0 6.217 6.209h40.351c3.44 0 6.217-2.77 6.217-6.21V419.12a6.217 6.217 0 0 0-6.217-6.225zm3.588 44.568a5.583 5.583 0 0 1-5.596 5.589h-36.318a5.577 5.577 0 0 1-5.589-5.59v-36.333a5.582 5.582 0 0 1 5.59-5.589h36.317c3.1 0 5.596 2.505 5.596 5.589v36.334z" opacity=".35"></path><linearGradient id="aH" x1="256.74" x2="256.74" y1="462.063" y2="417.04" gradientUnits="userSpaceOnUse"><stop offset="0" stop-color="#878787"></stop><stop offset=".085" stop-color="#666e6e"></stop><stop offset=".945" stop-color="#979ba1"></stop><stop offset="1" stop-color="#cbd1d9"></stop></linearGradient><path fill="url(#aH)" d="M280.491 457.462a5.583 5.583 0 0 1-5.596 5.589h-36.318a5.577 5.577 0 0 1-5.589-5.59v-36.333a5.582 5.582 0 0 1 5.59-5.589h36.317c3.1 0 5.596 2.505 5.596 5.589v36.334z"></path><linearGradient id="aI" x1="326.283" x2="326.283" y1="465.163" y2="472.947" gradientUnits="userSpaceOnUse"><stop offset="0" stop-color="#232323"></stop><stop offset=".994" stop-color="#232323" stop-opacity="0"></stop></linearGradient><path fill="url(#aI)" d="M352.407 464.142c0 3.761-2.745 6.82-6.142 6.82h-39.963c-3.39 0-6.143-3.059-6.143-6.82v-44.403c0-3.77 2.753-6.845 6.143-6.845h39.963c3.397 0 6.142 3.075 6.142 6.845v44.403z" opacity=".7"></path><linearGradient id="aJ" x1="326.287" x2="326.287" y1="408.777" y2="469.358" gradientUnits="userSpaceOnUse"><stop offset="0" stop-color="#fff"></stop><stop offset="1" stop-color="#fff" stop-opacity="0"></stop></linearGradient><path fill="url(#aJ)" d="M355.317 461.504c0 3.762-3.058 6.837-6.845 6.837h-44.386c-3.786 0-6.83-3.075-6.83-6.837v-44.419c0-3.753 3.044-6.804 6.83-6.804h44.386c3.787 0 6.845 3.051 6.845 6.804v44.419z" opacity=".1"></path><linearGradient id="aK" x1="326.287" x2="326.287" y1="466.719" y2="413.407" gradientUnits="userSpaceOnUse"><stop offset="0"></stop><stop offset=".988" stop-color="#303133"></stop></linearGradient><path fill="url(#aK)" d="M346.472 412.894h-40.36a6.212 6.212 0 0 0-6.217 6.225v40.36c0 3.439 2.77 6.209 6.216 6.209h40.36a6.196 6.196 0 0 0 6.209-6.21V419.12c0-3.44-2.77-6.225-6.208-6.225zm3.554 44.568a5.577 5.577 0 0 1-5.589 5.589H308.12a5.589 5.589 0 0 1-5.597-5.59v-36.333a5.594 5.594 0 0 1 5.597-5.589h36.317c3.101 0 5.59 2.505 5.59 5.589v36.334z"></path><linearGradient id="aL" x1="326.275" x2="326.275" y1="462.063" y2="417.04" gradientUnits="userSpaceOnUse"><stop offset="0" stop-color="#212121"></stop><stop offset=".091" stop-color="#080808"></stop><stop offset=".945" stop-color="#37393b"></stop><stop offset="1" stop-color="#5f6266"></stop></linearGradient><path fill="url(#aL)" d="M350.026 457.462a5.577 5.577 0 0 1-5.589 5.589H308.12a5.589 5.589 0 0 1-5.597-5.59v-36.333a5.594 5.594 0 0 1 5.597-5.589h36.317c3.101 0 5.59 2.505 5.59 5.589v36.334z"></path><linearGradient id="aM" x1="395.834" x2="395.834" y1="395.62" y2="403.404" gradientUnits="userSpaceOnUse"><stop offset="0" stop-color="#232323"></stop><stop offset=".988" stop-color="#232323"></stop></linearGradient><path fill="url(#aM)" d="M421.967 394.599c0 3.753-2.753 6.82-6.15 6.82h-39.964c-3.398 0-6.15-3.067-6.15-6.82v-44.411c0-3.779 2.752-6.837 6.15-6.837h39.963c3.398 0 6.15 3.058 6.15 6.837v44.41z" opacity=".7"></path><linearGradient id="aN" x1="395.834" x2="395.834" y1="465.163" y2="472.947" gradientUnits="userSpaceOnUse"><stop offset="0" stop-color="#232323"></stop><stop offset=".994" stop-color="#232323" stop-opacity="0"></stop></linearGradient><path fill="url(#aN)" d="M421.967 464.142c0 3.761-2.753 6.82-6.15 6.82h-39.964c-3.398 0-6.15-3.059-6.15-6.82v-44.403c0-3.77 2.752-6.845 6.15-6.845h39.963c3.398 0 6.15 3.075 6.15 6.845v44.403z" opacity=".7"></path><linearGradient id="aO" x1="395.83" x2="395.83" y1="333.148" y2="461.272" gradientUnits="userSpaceOnUse"><stop offset="0" stop-color="#fff"></stop><stop offset="1" stop-color="#fff" stop-opacity="0"></stop></linearGradient><path fill="url(#aO)" d="M418.016 340.713h-44.38c-3.777 0-6.844 3.067-6.844 6.829v113.962c0 3.762 3.067 6.837 6.845 6.837h44.379a6.837 6.837 0 0 0 6.852-6.837V347.542a6.83 6.83 0 0 0-6.852-6.83z" opacity=".15"></path><linearGradient id="aP" x1="395.826" x2="395.826" y1="468.077" y2="344.54" gradientUnits="userSpaceOnUse"><stop offset="0"></stop><stop offset=".988" stop-color="#303133"></stop></linearGradient><path fill="url(#aP)" d="M416.015 343.35h-40.377c-3.407 0-6.2 2.795-6.2 6.217V459.48a6.21 6.21 0 0 0 6.2 6.209h40.377c3.455 0 6.2-2.77 6.2-6.21v-109.91c0-3.423-2.745-6.217-6.2-6.217zm3.588 70.834s-.01 0-.01-.017v43.295a5.589 5.589 0 0 1-5.596 5.589h-36.334c-3.075 0-5.572-2.497-5.572-5.59V351.569a5.57 5.57 0 0 1 5.572-5.572h36.334c3.092 0 5.597 2.488 5.597 5.572l.009 62.616z"></path><linearGradient id="aQ" x1="395.842" x2="395.842" y1="463.396" y2="345.268" gradientUnits="userSpaceOnUse"><stop offset=".018" stop-color="#212121"></stop><stop offset=".061" stop-color="#080808"></stop><stop offset=".952" stop-color="#3c3e40"></stop><stop offset=".982" stop-color="#5f6366"></stop></linearGradient><path fill="url(#aQ)" d="M413.997 345.996h-36.334a5.57 5.57 0 0 0-5.572 5.572v105.894c0 3.092 2.497 5.589 5.572 5.589h36.334a5.589 5.589 0 0 0 5.597-5.59V351.569c0-3.084-2.505-5.572-5.597-5.572z"></path><path fill="#FFF" d="M394.288 410.231v-7.316h-7.267v-3.067h7.267v-7.258h3.1v7.258h7.25v3.067h-7.25v7.316h-3.1zm6.705-170.07-5.183-5.172-5.118 5.13-2.166-2.158 5.118-5.13-5.118-5.134 2.19-2.182 5.118 5.13 5.143-5.13 2.166 2.158-5.143 5.13 5.184 5.166-2.19 2.191zm-13.972 61.685v-3.3h17.618v3.3H387.02zm-279.023-67.324v-3.29h17.605v3.29h-17.605zm-3.278 59.2c0-1.714.438-3.165 1.298-4.368.86-1.211 2.112-1.802 3.749-1.802 1.504 0 2.749.537 3.74 1.612.989 1.07 1.472 2.645 1.472 4.732 0 2.026-.483 3.597-1.496 4.7-.984 1.088-2.212 1.641-3.695 1.641-1.439 0-2.65-.546-3.61-1.616-.97-1.087-1.458-2.716-1.458-4.898zm5.117-4.149c-.732 0-1.335.318-1.818.96-.484.623-.728 1.784-.728 3.48 0 1.537.244 2.624.735 3.249.51.635 1.113.942 1.81.942.758 0 1.365-.31 1.849-.947.487-.632.732-1.781.732-3.472 0-1.55-.245-2.641-.732-3.27-.484-.624-1.108-.942-1.848-.942zm.03 23.272 13.132-25.293h2.393L112.3 312.845h-2.435zm10.383-6.511c0-1.731.434-3.183 1.28-4.394.869-1.186 2.126-1.786 3.77-1.786 1.522 0 2.758.546 3.746 1.617.988 1.075 1.484 2.645 1.484 4.746 0 2.029-.505 3.583-1.5 4.691-.997 1.09-2.233 1.637-3.72 1.637-1.435 0-2.65-.546-3.61-1.63-.971-1.082-1.45-2.702-1.45-4.881zm5.142-4.154c-.76 0-1.364.327-1.848.955-.488.633-.731 1.786-.731 3.493 0 1.53.243 2.604.73 3.249.497.62 1.1.935 1.815.935.757 0 1.39-.315 1.873-.935.484-.645.727-1.803.727-3.484 0-1.551-.243-2.634-.73-3.262-.5-.624-1.113-.951-1.836-.951zm65.64 80.96h-3.273v-20.866c-.777.744-1.827 1.497-3.1 2.248-1.282.761-2.431 1.324-3.448 1.687v-3.142c1.828-.884 3.448-1.918 4.804-3.141 1.372-1.232 2.347-2.414 2.893-3.572h2.125v26.787zm75.752-4.39v3.142h-17.6a5.688 5.688 0 0 1 .363-2.282c.455-1.19 1.166-2.38 2.175-3.538.975-1.166 2.397-2.521 4.25-4.043 2.918-2.38 4.86-4.258 5.885-5.638 1.026-1.397 1.522-2.711 1.522-3.935 0-1.307-.447-2.397-1.381-3.307-.935-.877-2.125-1.33-3.63-1.33-1.595 0-2.844.47-3.786 1.421-.959.95-1.414 2.257-1.438 3.935l-3.365-.356c.248-2.512 1.108-4.406 2.613-5.737 1.504-1.298 3.538-1.976 6.043-1.976 2.57 0 4.596.72 6.092 2.125 1.48 1.43 2.233 3.183 2.233 5.283a8.08 8.08 0 0 1-.654 3.15c-.43 1.033-1.165 2.124-2.166 3.257-1.033 1.14-2.711 2.703-5.06 4.679-1.975 1.662-3.223 2.778-3.777 3.373a11.037 11.037 0 0 0-1.397 1.777h13.078zm51.48-2.885 3.265-.438c.365 1.852 1.01 3.182 1.918 4.01.893.818 2.018 1.231 3.3 1.231 1.528 0 2.85-.545 3.893-1.595 1.075-1.083 1.595-2.397 1.595-3.976 0-1.514-.496-2.738-1.471-3.729-.993-.975-2.216-1.464-3.745-1.464-.612 0-1.38.133-2.315.365l.356-2.86c.239.007.413.024.545.024 1.39 0 2.637-.364 3.761-1.091 1.125-.728 1.687-1.853 1.687-3.365 0-1.199-.438-2.19-1.223-2.985-.836-.785-1.87-1.181-3.158-1.181-1.266 0-2.332.413-3.184 1.189-.851.81-1.396 2.001-1.644 3.621l-3.275-.587c.414-2.198 1.316-3.901 2.745-5.108 1.406-1.2 3.183-1.81 5.284-1.81 1.47 0 2.801.305 4.017.942 1.224.628 2.183 1.471 2.827 2.546.637 1.091.976 2.24.976 3.463a5.63 5.63 0 0 1-.935 3.125c-.61.943-1.537 1.696-2.76 2.266 1.579.363 2.827 1.116 3.695 2.257.885 1.157 1.298 2.588 1.298 4.315 0 2.315-.852 4.3-2.546 5.92-1.703 1.612-3.861 2.422-6.45 2.422-2.33 0-4.265-.694-5.81-2.092-1.563-1.388-2.431-3.199-2.646-5.415zM188.47 313.54v-6.39h-11.574v-3.01l12.169-17.282h2.687v17.283h3.588v3.008h-3.588v6.391h-3.282zm0-9.4v-12.028l-8.358 12.029h8.358zm59.416 1.993 3.43-.294c.257 1.675.86 2.94 1.787 3.774.934.843 2.042 1.274 3.356 1.274 1.57 0 2.894-.604 4.001-1.794 1.092-1.183 1.637-2.758 1.637-4.73 0-1.864-.52-3.34-1.57-4.418-1.06-1.079-2.423-1.616-4.118-1.616-1.066 0-2.025.24-2.868.719-.844.483-1.513 1.092-1.984 1.856l-3.076-.397 2.58-13.698h13.244v3.125h-10.64l-1.439 7.18c1.604-1.125 3.282-1.675 5.051-1.675 2.331 0 4.3.806 5.911 2.41 1.587 1.62 2.39 3.691 2.39 6.225 0 2.414-.703 4.497-2.134 6.267-1.71 2.15-4.042 3.232-6.985 3.232-2.422 0-4.423-.686-5.953-2.033-1.52-1.364-2.414-3.167-2.62-5.407zm86.722-12.922-3.249.26c-.29-1.284-.72-2.219-1.24-2.806-.877-.926-1.968-1.397-3.265-1.397-1.06 0-1.968.285-2.762.872-1.025.753-1.826 1.843-2.43 3.295-.603 1.442-.901 3.497-.918 6.163.785-1.207 1.744-2.083 2.894-2.67a7.662 7.662 0 0 1 3.579-.877c2.182 0 4.043.806 5.58 2.41 1.521 1.608 2.307 3.679 2.307 6.233 0 1.674-.372 3.233-1.1 4.663-.719 1.439-1.702 2.546-2.951 3.298-1.282.778-2.711 1.158-4.307 1.158-2.736 0-4.969-1.008-6.68-3.017-1.728-2.001-2.587-5.308-2.587-9.925 0-5.15.95-8.904 2.86-11.243 1.662-2.038 3.893-3.055 6.722-3.055 2.083 0 3.81.587 5.141 1.765 1.348 1.17 2.15 2.799 2.406 4.873zm-13.36 11.508c0 1.12.231 2.199.72 3.233.47 1.033 1.15 1.819 2.016 2.348a4.839 4.839 0 0 0 2.696.818c1.388 0 2.571-.562 3.58-1.679.992-1.107 1.48-2.62 1.48-4.546 0-1.844-.48-3.29-1.472-4.353-.976-1.059-2.2-1.596-3.712-1.596-1.496 0-2.72.537-3.762 1.596-1.033 1.063-1.546 2.451-1.546 4.179zm-142.699-84.101v-3.138h17.27v2.546c-1.694 1.803-3.381 4.204-5.043 7.197-1.678 3.001-2.967 6.085-3.869 9.247-.66 2.236-1.074 4.675-1.273 7.329h-3.356c.033-2.096.454-4.63 1.24-7.606a39.731 39.731 0 0 1 3.406-8.59c1.463-2.757 3.034-5.088 4.696-6.985h-13.07zm75.727 8.717c-1.38-.496-2.38-1.207-3.05-2.124-.653-.926-.96-2.03-.96-3.315 0-1.939.695-3.572 2.084-4.895 1.389-1.314 3.257-1.98 5.572-1.98s4.208.683 5.613 2.03c1.414 1.352 2.142 2.997 2.142 4.931 0 1.245-.34 2.324-.968 3.233-.661.917-1.645 1.624-2.984 2.12 1.645.538 2.902 1.397 3.754 2.584.868 1.19 1.28 2.608 1.28 4.257 0 2.286-.801 4.204-2.421 5.75-1.612 1.554-3.729 2.331-6.358 2.331-2.662 0-4.746-.777-6.374-2.339-1.604-1.559-2.414-3.51-2.414-5.828 0-1.74.413-3.188 1.314-4.357.869-1.174 2.141-1.968 3.77-2.398zm-1.728 6.775c0 .93.216 1.84.662 2.703a4.663 4.663 0 0 0 1.967 2.03 5.776 5.776 0 0 0 2.82.723c1.57 0 2.86-.503 3.877-1.512 1.024-1.01 1.53-2.282 1.53-3.84 0-1.575-.521-2.878-1.572-3.91-1.033-1.03-2.348-1.547-3.927-1.547-1.553 0-2.819.505-3.82 1.53-1.032 1.02-1.537 2.29-1.537 3.823zm1.05-12.318c0 1.257.414 2.29 1.224 3.092.81.798 1.877 1.199 3.166 1.199 1.257 0 2.29-.397 3.092-1.195.81-.79 1.224-1.769 1.224-2.914 0-1.207-.43-2.216-1.248-3.026-.844-.826-1.86-1.236-3.1-1.236s-2.283.406-3.11 1.203c-.81.798-1.247 1.753-1.247 2.877zm64.41 13.84 3.141-.281c.265 1.47.769 2.546 1.52 3.211.745.67 1.72 1.004 2.903 1.004.992 0 1.876-.231 2.637-.698a5.573 5.573 0 0 0 1.877-1.847c.48-.766.885-1.803 1.224-3.118.305-1.31.48-2.64.48-4.005 0-.14 0-.36-.018-.649-.653 1.046-1.554 1.89-2.686 2.538a7.222 7.222 0 0 1-3.671.976c-2.207 0-4.067-.806-5.605-2.41-1.53-1.596-2.298-3.704-2.298-6.325 0-2.707.801-4.881 2.397-6.535 1.587-1.649 3.58-2.471 5.986-2.471 1.736 0 3.332.467 4.745 1.405 1.455.93 2.538 2.265 3.282 3.985.752 1.74 1.124 4.228 1.124 7.506 0 3.41-.372 6.126-1.108 8.14-.751 2.025-1.843 3.562-3.306 4.62-1.455 1.046-3.175 1.58-5.126 1.58-2.1 0-3.803-.575-5.117-1.733-1.331-1.16-2.117-2.794-2.381-4.894zm13.392-11.773c0-1.877-.488-3.365-1.496-4.472-1-1.108-2.191-1.654-3.588-1.654-1.471 0-2.745.591-3.811 1.782-1.09 1.186-1.637 2.728-1.637 4.617 0 1.703.53 3.083 1.554 4.146 1.009 1.058 2.282 1.587 3.795 1.587 1.505 0 2.753-.529 3.728-1.587.976-1.063 1.455-2.534 1.455-4.42zm-152.917 213.44c0-3.149.323-5.67.976-7.613.645-1.902 1.603-3.398 2.877-4.423 1.306-1.058 2.893-1.58 4.836-1.58 1.43 0 2.695.29 3.778.869a7.434 7.434 0 0 1 2.67 2.48c.703 1.1 1.249 2.414 1.654 3.977.405 1.562.603 3.645.603 6.29 0 3.142-.322 5.664-.959 7.582-.653 1.926-1.604 3.423-2.901 4.447-1.282 1.067-2.877 1.588-4.845 1.588-2.57 0-4.588-.901-6.043-2.762-1.77-2.223-2.646-5.828-2.646-10.854zm3.365 0c0 4.39.496 7.31 1.538 8.765 1.025 1.446 2.281 2.157 3.786 2.157s2.761-.72 3.811-2.183c1.009-1.463 1.521-4.365 1.521-8.738 0-4.382-.512-7.283-1.52-8.746-1.05-1.44-2.307-2.175-3.845-2.175-1.505 0-2.712.653-3.604 1.935-1.125 1.612-1.687 4.613-1.687 8.986zm153.95-2.52h-17.616v-3.051h17.617v3.05zm0 8.1h-17.616v-3.065h17.617v3.066zm-79.686 8.037v-3.72h3.744v3.72h-3.744zm-141.166-210.89V238.3h3.72v3.724h-3.72zm-.012-14.65v-3.724h3.733v3.724h-3.733zM99.358 448.641l7.184-18.676h2.663l7.634 18.676h-2.818l-2.175-5.655h-7.8l-2.054 5.655h-2.634zm5.395-7.68h6.329l-1.943-5.167c-.592-1.563-1.05-2.86-1.323-3.87a24.145 24.145 0 0 1-1.013 3.563l-2.05 5.474zm27.385 1.124 2.476.628c-.521 2.025-1.46 3.58-2.795 4.638-1.36 1.075-3 1.587-4.952 1.587-2.013 0-3.637-.397-4.902-1.223-1.265-.81-2.232-2.001-2.881-3.564-.657-1.546-.988-3.207-.988-4.984 0-1.943.384-3.638 1.12-5.102.736-1.438 1.81-2.545 3.162-3.29 1.385-.76 2.894-1.124 4.539-1.124 1.873 0 3.447.48 4.704 1.43 1.294.942 2.158 2.282 2.658 4.002l-2.435.57c-.421-1.364-1.046-2.34-1.872-2.967-.823-.613-1.868-.927-3.105-.927-1.438 0-2.65.347-3.596 1.05-.963.678-1.637 1.587-2.034 2.754a11.293 11.293 0 0 0-.599 3.579c0 1.604.236 2.976.703 4.167.454 1.173 1.182 2.058 2.15 2.653.991.579 2.041.868 3.182.868 1.385 0 2.55-.38 3.518-1.19.942-.794 1.6-1.993 1.947-3.555zm-3.53-79.356H117.404s-5.22 14.434-5.518 15.46c-.227-.794-2.1-6.135-3.567-10.318h-3.302l5.377 14.161h3.06l6.063-16.021h9.09v-3.282z" opacity=".5"></path></svg>