<svg xmlns="http://www.w3.org/2000/svg" width="512" height="512" id="clip"><linearGradient id="a" x1="257.209" x2="257.209" y1="507.709" y2="209.552" gradientUnits="userSpaceOnUse"><stop offset="0"></stop><stop offset="1" stop-color="#18191a"></stop></linearGradient><path fill="url(#a)" d="M487.813 501.354c0 4.602-3.578 8.33-7.999 8.33H34.604c-4.42 0-7.999-3.728-7.999-8.33V214.569c0-4.605 3.579-8.275 8-8.275h445.21c4.42 0 7.998 3.67 7.998 8.275v286.785z"></path><linearGradient id="b" x1="257.209" x2="257.209" y1="506.149" y2="210.899" gradientUnits="userSpaceOnUse"><stop offset="0" stop-color="#020203"></stop><stop offset="1" stop-color="#1d1e20"></stop></linearGradient><path fill="url(#b)" d="M35.271 208.377h443.877c3.684 0 6.665 4.826 6.665 8.664v281.826c0 3.835-2.981 8.734-6.665 8.734H35.271c-3.684 0-6.666-4.88-6.666-8.715V217.059c0-3.838 2.982-8.682 6.666-8.682z"></path><linearGradient id="c" x1="257.209" x2="257.209" y1="504.575" y2="212.266" gradientUnits="userSpaceOnUse"><stop offset="0" stop-color="#050506"></stop><stop offset="1" stop-color="#222327"></stop></linearGradient><path fill="url(#c)" d="M35.938 210.46H478.48c2.948 0 5.332 5.981 5.332 9.052V496.38c0 3.068-2.384 9.138-5.332 9.138H35.938c-2.948 0-5.333-6.033-5.333-9.101V219.549c0-3.07 2.385-9.089 5.332-9.089z"></path><linearGradient id="d" x1="257.208" x2="257.208" y1="502.986" y2="213.65" gradientUnits="userSpaceOnUse"><stop offset="0" stop-color="#070709"></stop><stop offset="1" stop-color="#26282d"></stop></linearGradient><path fill="url(#d)" d="M36.604 212.542h441.21c2.21 0 3.999 7.138 3.999 9.44v271.91c0 2.302-1.789 9.542-3.999 9.542H36.604c-2.21 0-4-7.184-4-9.485V222.04c0-2.304 1.79-9.497 4-9.497z"></path><linearGradient id="e" x1="257.209" x2="257.209" y1="501.386" y2="215.056" gradientUnits="userSpaceOnUse"><stop offset="0" stop-color="#0a0a0c"></stop><stop offset="1" stop-color="#2b2d33"></stop></linearGradient><path fill="url(#e)" d="M37.27 214.625h439.878c1.473 0 2.666 8.293 2.666 9.829v266.952c0 1.535-1.193 9.946-2.666 9.946H37.271c-1.474 0-2.667-8.336-2.667-9.872V224.528c0-1.535 1.193-9.903 2.667-9.903z"></path><linearGradient id="f" x1="257.209" x2="257.209" y1="499.771" y2="216.48" gradientUnits="userSpaceOnUse"><stop offset="0" stop-color="#0d0d0f"></stop><stop offset="1" stop-color="#30323a"></stop></linearGradient><path fill="url(#f)" d="M37.937 216.708H476.48c.738 0 1.334 9.449 1.334 10.216V488.92c0 .768-.596 10.349-1.334 10.349H37.937c-.737 0-1.333-9.489-1.333-10.255V227.018c0-.768.596-10.31 1.333-10.31z"></path><linearGradient id="g" x1="257.209" x2="257.209" y1="498.141" y2="217.923" gradientUnits="userSpaceOnUse"><stop offset="0" stop-color="#0f0f12"></stop><stop offset="1" stop-color="#353740"></stop></linearGradient><path fill="url(#g)" d="M38.604 218.791h437.211v278.395H38.604z"></path><linearGradient id="h" x1="41.274" x2="475.169" y1="357.988" y2="357.988" gradientUnits="userSpaceOnUse"><stop offset="0" stop-color="#fff" stop-opacity=".2"></stop><stop offset=".291" stop-color="#fff"></stop><stop offset=".758" stop-color="#fff" stop-opacity=".8"></stop><stop offset="1" stop-color="#fff" stop-opacity=".2"></stop></linearGradient><path fill="url(#h)" d="M38.604 218.79v278.396h437.21V218.79H38.604zm433.211 274.232H42.603V222.956h429.212v270.066z" opacity=".15"></path><path fill="#FFF" d="M461.64 327.984v-4.265H52.737v4.265h84.771v75.712h-84.77v4.267H461.64v-4.267H248.58v-75.712H461.64zm-217.326 75.712h-102.54v-75.712h102.54v75.712zM52.737 467.947v-4.267H461.64v4.267" opacity=".3"></path><path fill="#FFF" d="M67.535 312.169h-2.314v-8.179h-9.04v8.179h-2.304v-17.386h2.304v7.147h9.04v-7.147h2.314v17.386zm11.413-17.689c2.43 0 4.433.829 5.984 2.48 1.542 1.648 2.322 3.836 2.322 6.542 0 2.703-.78 4.861-2.33 6.5-1.564 1.65-3.556 2.462-5.976 2.462-2.5 0-4.52-.85-6.035-2.54-1.54-1.708-2.294-3.778-2.294-6.236 0-2.852.77-5.098 2.315-6.738 1.552-1.65 3.544-2.47 6.014-2.47zm-.02 16.021c1.757 0 3.191-.614 4.287-1.846 1.092-1.238 1.648-2.949 1.659-5.153 0-2.266-.567-4.005-1.68-5.224-1.123-1.212-2.527-1.815-4.209-1.815-1.747 0-3.181.585-4.304 1.784-1.133 1.191-1.679 3.018-1.679 5.487 0 2.022.546 3.654 1.65 4.893 1.094 1.249 2.528 1.874 4.275 1.874zm25.041-5.662c0 .889-.05 1.726-.136 2.478-.108.772-.37 1.544-.79 2.354-.423.792-1.114 1.465-2.062 1.992-.955.546-2.225.8-3.807.8-1.57 0-2.801-.244-3.758-.713-.947-.478-1.65-1.083-2.08-1.826a6.332 6.332 0 0 1-.857-2.362c-.12-.801-.178-1.718-.178-2.723v-10.056h2.305v10.027c0 1.044.069 1.943.214 2.694.148.762.556 1.426 1.192 2.01.643.587 1.62.879 2.967.879s2.362-.233 3.047-.702a3.218 3.218 0 0 0 1.326-1.866c.206-.78.314-1.776.314-3.015v-10.027h2.303v10.056zm19.223 7.33h-2.9c-1.736-2.733-2.812-4.412-3.231-5.036a10.118 10.118 0 0 0-1.318-1.612c-.458-.437-.898-.732-1.307-.848-.4-.118-.949-.187-1.613-.187h-2.665v7.683h-2.293v-17.386h7.694c1.044 0 1.932.067 2.644.204.714.137 1.339.41 1.876.849.535.419.946.967 1.239 1.623.292.664.43 1.357.43 2.088 0 1.307-.412 2.361-1.242 3.163-.828.8-2.048 1.299-3.63 1.515v.047c1.16.51 2.256 1.572 3.27 3.164l3.046 4.733zm-13.034-9.733h4.94c.988 0 1.778-.087 2.364-.264.587-.155 1.044-.496 1.396-.985.34-.487.517-1.035.517-1.64 0-.791-.282-1.474-.859-2.03-.585-.548-1.534-.822-2.86-.822h-5.498v5.74zm52.915 9.773h-2.187v-14.565h-.05l-5.006 14.565h-2.06l-4.988-14.8h-.07v14.8h-2.175v-17.386h3.434l4.112 12.31c.457 1.367.73 2.226.8 2.566h.049c.214-.662.516-1.601.927-2.78l4.15-12.096h3.064v17.386zm6.385 0h-2.312v-17.386h2.312v17.386zm17.807 0h-2.362l-9.089-13.658h-.047v13.658h-2.18v-17.386h2.344l9.088 13.636h.04v-13.636h2.206v17.386zm17.546-7.333c0 .89-.059 1.73-.158 2.48-.096.762-.361 1.535-.78 2.343-.43.802-1.113 1.474-2.06 2.001-.959.54-2.227.791-3.829.791-1.542 0-2.801-.234-3.748-.702-.948-.478-1.64-1.083-2.08-1.845a6.327 6.327 0 0 1-.848-2.342 19.313 19.313 0 0 1-.187-2.726v-10.053h2.304v10.025c0 1.046.07 1.933.236 2.693.137.743.527 1.428 1.181 2.014.635.574 1.62.867 2.95.867 1.365 0 2.37-.225 3.062-.693.675-.47 1.125-1.092 1.33-1.875.194-.769.302-1.776.302-3.006v-10.025h2.325v10.053zm16.233-7.994h-5.759v15.327h-2.304v-15.327h-5.7v-2.059h13.763v2.059zm15.437 15.327h-12.985v-17.386h12.593v2.059h-10.288v5.321h9.626v2.049h-9.626v5.888h10.68v2.069zm38.563-12.33c-.098-1.105-.498-1.933-1.2-2.5-.703-.547-1.71-.821-3.017-.821-1.191 0-2.159.215-2.9.656-.742.448-1.115 1.083-1.115 1.932 0 .753.286 1.31.86 1.68.57.37 1.67.734 3.292 1.104 1.444.31 2.615.634 3.523.966.91.333 1.69.85 2.344 1.553.635.69.965 1.63.965 2.81 0 1.494-.594 2.744-1.785 3.73-1.19.986-2.743 1.475-4.647 1.475-2.45 0-4.277-.537-5.498-1.631-1.21-1.086-1.855-2.499-1.922-4.246l2.178-.195c.106 1.394.643 2.41 1.62 3.044.966.645 2.147.957 3.525.957 1.278 0 2.322-.264 3.113-.789.79-.538 1.201-1.251 1.201-2.168 0-.947-.41-1.63-1.25-2.07-.829-.44-2.226-.87-4.177-1.3-1.953-.41-3.37-1.004-4.23-1.776-.867-.762-1.297-1.758-1.297-2.986 0-1.397.546-2.551 1.64-3.458 1.086-.907 2.578-1.366 4.462-1.366 1.924 0 3.476.46 4.658 1.366 1.172.907 1.795 2.198 1.863 3.858l-2.206.175zm18.92 12.29H280.97v-17.386h12.595v2.06h-10.29v5.321h9.626v2.06h-9.626v5.886h10.689v2.059zm17.886-5.504c-.506 1.951-1.387 3.406-2.655 4.363-1.252.956-2.775 1.436-4.52 1.436-2.85 0-4.929-.88-6.229-2.675-1.31-1.78-1.953-3.917-1.953-6.436 0-2.762.762-4.94 2.294-6.51 1.531-1.572 3.495-2.363 5.899-2.363 1.687 0 3.141.43 4.341 1.297 1.203.86 2.05 2.121 2.52 3.788l-2.246.53c-.38-1.212-.954-2.109-1.727-2.726-.772-.616-1.747-.906-2.9-.906-1.903 0-3.347.614-4.324 1.863-.986 1.24-1.463 2.91-1.463 5.019 0 2.41.506 4.207 1.531 5.387 1.034 1.183 2.383 1.769 4.041 1.769 1.368 0 2.472-.372 3.31-1.105.86-.74 1.454-1.844 1.797-3.329l2.284.598zm10.419-12.185c2.44 0 4.43.829 5.972 2.48 1.564 1.648 2.333 3.836 2.333 6.542 0 2.703-.77 4.861-2.333 6.5-1.56 1.65-3.553 2.462-5.972 2.462-2.501 0-4.521-.85-6.044-2.54-1.524-1.708-2.295-3.778-2.295-6.236 0-2.852.78-5.098 2.324-6.738 1.542-1.65 3.553-2.47 6.015-2.47zm-.011 16.021c1.758 0 3.181-.614 4.286-1.846 1.083-1.238 1.64-2.949 1.647-5.153 0-2.266-.564-4.005-1.676-5.224-1.125-1.212-2.53-1.815-4.21-1.815-1.746 0-3.183.585-4.304 1.784-1.122 1.191-1.68 3.018-1.68 5.487 0 2.022.547 3.654 1.64 4.893 1.102 1.249 2.539 1.874 4.297 1.874zm25.04 1.668h-2.361l-9.091-13.658h-.048v13.658h-2.186v-17.386h2.363l9.078 13.649h.05v-13.649h2.195v17.386zm3.877-17.386h6.002c1.056 0 1.964.048 2.715.156.772.117 1.486.37 2.187.78.693.42 1.3.997 1.817 1.718.516.723.916 1.572 1.22 2.51.292.947.45 2.09.45 3.437 0 2.567-.617 4.666-1.827 6.307-1.23 1.648-3.32 2.478-6.297 2.478h-6.267v-17.386zm2.304 15.327h3.729c.762 0 1.435-.05 2.032-.145.604-.1 1.2-.353 1.814-.772.616-.41 1.115-1.104 1.534-2.06.39-.957.603-2.215.603-3.788 0-.878-.076-1.69-.242-2.451a5.935 5.935 0 0 0-.85-2.061c-.41-.614-.887-1.084-1.435-1.366a4.647 4.647 0 0 0-1.571-.528c-.498-.068-1.153-.096-1.953-.096h-3.661v13.267zM52.968 430.37h6.006c1.054 0 1.962.049 2.723.155a5.846 5.846 0 0 1 2.167.78c.693.422 1.3.986 1.816 1.718.527.723.927 1.564 1.23 2.51.283.946.44 2.09.44 3.437 0 2.567-.605 4.666-1.836 6.305-1.21 1.652-3.31 2.482-6.279 2.482h-6.267v-17.388zm2.303 15.316h3.73c.753 0 1.436-.038 2.032-.137.606-.098 1.2-.35 1.814-.772.616-.409 1.125-1.102 1.523-2.06.411-.953.606-2.215.606-3.797 0-.867-.077-1.677-.234-2.44a5.863 5.863 0 0 0-.85-2.06c-.418-.626-.896-1.083-1.434-1.365-.537-.284-1.056-.461-1.572-.53-.507-.068-1.16-.097-1.962-.097h-3.653v13.258zm29.525 2.07h-2.598l-2.05-5.291h-7.252l-1.926 5.292h-2.43l6.678-17.388h2.48l7.098 17.388zm-5.341-7.117c-1.424-3.757-2.236-5.897-2.4-6.413-.197-.51-.382-1.192-.616-2.04h-.05c-.235 1.171-.517 2.243-.899 3.239l-1.942 5.214h5.907zm19.625-8.211h-5.751v15.329h-2.325v-15.33h-5.701v-2.058H99.08v2.059zm15.443 15.329h-12.986v-17.388h12.586v2.059h-10.29v5.322h9.625v2.05h-9.625v5.886h10.69v2.07z" opacity=".8"></path><linearGradient id="i" x1="193.043" x2="193.043" y1="403.956" y2="327.748" gradientUnits="userSpaceOnUse"><stop offset="0" stop-color="gray"></stop><stop offset="1" stop-color="#353740"></stop></linearGradient><path fill="url(#i)" d="M141.773 327.984h102.541v75.712H141.773z"></path><linearGradient id="j" x1="95.238" x2="95.238" y1="403.956" y2="327.748" gradientUnits="userSpaceOnUse"><stop offset="0" stop-color="gray"></stop><stop offset="1" stop-color="#353740"></stop></linearGradient><path fill="url(#j)" d="M52.968 327.984h84.541v75.712H52.968z"></path><linearGradient id="k" x1="355.11" x2="355.11" y1="403.956" y2="327.748" gradientUnits="userSpaceOnUse"><stop offset="0" stop-color="gray"></stop><stop offset="1" stop-color="#353740"></stop></linearGradient><path fill="url(#k)" d="M248.581 327.984H461.64v75.712H248.581z"></path><linearGradient id="l" x1="70.444" x2="70.444" y1="396.345" y2="341.613" gradientUnits="userSpaceOnUse"><stop offset="0" stop-color="#b30000"></stop><stop offset="1" stop-color="#c00"></stop></linearGradient><path fill="url(#l)" d="m71.879 366.666 1.465 1.63L71.06 391.2c-.761 2.188-2.264 3.543-4.501 4.091l-1.795-6.55 1.708-17.172 5.408-4.902zm-4.256-6.55 1.708-17.175 3.115-6.55c2.127.56 3.358 1.915 3.68 4.1l-2.296 22.896-1.793 1.64-4.414-4.91z"></path><linearGradient id="m" x1="98.952" x2="98.952" y1="396.345" y2="341.613" gradientUnits="userSpaceOnUse"><stop offset="0" stop-color="#b30000"></stop><stop offset="1" stop-color="#c00"></stop></linearGradient><path fill="url(#m)" d="M107.464 395.29H82.92c-2.129-.548-3.357-1.903-3.68-4.09l6.785-2.46h19.634l1.805 6.55zm-28.068-5.73 2.138-21.263 1.787-1.631 4.423 4.902-1.553 15.541-6.795 2.452zm11.041-44.987-1.552 15.543-5.398 4.91-1.476-1.64 2.13-21.264 6.296 2.451zm19.8-1.632H90.683l-6.297-2.45c.761-2.185 2.264-3.54 4.5-4.1h24.467l-3.116 6.55zm4.168 23.725 1.475 1.63-2.285 22.903c-.772 2.188-2.264 3.543-4.5 4.091l-1.805-6.55 1.719-17.172 5.396-4.902zm-4.247-6.55 1.71-17.175 3.113-6.55c2.13.56 3.359 1.915 3.683 4.1l-2.296 22.896-1.795 1.64-4.415-4.91z"></path><linearGradient id="n" x1="124.959" x2="124.959" y1="396.345" y2="341.584" gradientUnits="userSpaceOnUse"><stop offset="0" stop-color="#b30000"></stop><stop offset="1" stop-color="#c00"></stop></linearGradient><path fill="url(#n)" d="M127.907 395.29h-6.55l.664-6.55h6.54l-.654 6.55z"></path><linearGradient id="o" x1="171.462" x2="171.462" y1="396.345" y2="341.613" gradientUnits="userSpaceOnUse"><stop offset="0" stop-color="#b30000"></stop><stop offset="1" stop-color="#c00"></stop></linearGradient><path fill="url(#o)" d="m172.893 366.666 1.464 1.63-2.284 22.903c-.762 2.188-2.267 3.543-4.5 4.091l-1.797-6.55 1.71-17.172 5.407-4.902zm-4.257-6.55 1.718-17.175 3.105-6.55c2.13.56 3.358 1.915 3.69 4.1l-2.294 22.896-1.807 1.64-4.412-4.91z"></path><linearGradient id="p" x1="198.574" x2="198.574" y1="396.345" y2="341.613" gradientUnits="userSpaceOnUse"><stop offset="0" stop-color="#b30000"></stop><stop offset="1" stop-color="#c00"></stop></linearGradient><path fill="url(#p)" d="M208.48 395.29h-24.544c-2.13-.548-3.36-1.903-3.682-4.09l6.795-2.46h19.623l1.808 6.55zm-28.068-5.73 2.137-21.263 1.796-1.631 4.412 4.902-1.552 15.541-6.793 2.452zm11.05-44.987-1.562 15.543-5.39 4.91-1.473-1.64 2.12-21.264 6.304 2.451zm22.24-1.632h-21.996l-6.297-2.45c.76-2.185 2.265-3.54 4.491-4.1h26.914l-3.112 6.55zm-2.773 19.626 2.947 3.28-3.603 3.268h-21.26l-2.95-3.268 3.593-3.28h21.273zm4.5 4.099 1.465 1.63-2.286 22.903c-.761 2.188-2.264 3.543-4.5 4.091l-1.796-6.55 1.708-17.172 5.408-4.902z"></path><linearGradient id="q" x1="225.984" x2="225.984" y1="396.345" y2="341.584" gradientUnits="userSpaceOnUse"><stop offset="0" stop-color="#b30000"></stop><stop offset="1" stop-color="#c00"></stop></linearGradient><path fill="url(#q)" d="M228.923 395.29h-6.542l.654-6.55h6.552l-.664 6.55z"></path><linearGradient id="r" x1="286.258" x2="286.258" y1="396.345" y2="341.613" gradientUnits="userSpaceOnUse"><stop offset="0" stop-color="#b30000"></stop><stop offset="1" stop-color="#c00"></stop></linearGradient><path fill="url(#r)" d="M297.22 395.29h-26.993c-2.127-.548-3.358-1.903-3.68-4.09l6.795-2.46h22.083l1.795 6.55zm-30.517-5.73 2.138-21.263 1.795-1.631 4.414 4.902-1.554 15.541-6.793 2.452zm30.839-46.619h-19.545l-6.295-2.45c.76-2.185 2.265-3.54 4.49-4.1h24.465l-3.115 6.55zm-.322 19.626 2.949 3.28-3.603 3.268h-21.262l-2.95-3.268 3.595-3.28h21.27zm.245-2.45 1.719-17.176 3.102-6.55c2.129.56 3.36 1.915 3.682 4.1l-2.285 22.896-1.806 1.64-4.412-4.91z"></path><linearGradient id="s" x1="328.795" x2="328.795" y1="396.345" y2="341.613" gradientUnits="userSpaceOnUse"><stop offset="0" stop-color="#b30000"></stop><stop offset="1" stop-color="#c00"></stop></linearGradient><path fill="url(#s)" d="M337.307 395.29h-24.544c-2.127-.548-3.358-1.903-3.68-4.09l6.795-2.46H335.5l1.806 6.55zm-28.068-5.73 2.138-21.263 1.797-1.631 4.412 4.902-1.552 15.541-6.795 2.452zm11.051-44.987-1.562 15.543-5.388 4.91-1.485-1.64 2.128-21.264 6.307 2.451zm19.79-1.632h-19.547l-6.304-2.45c.771-2.185 2.274-3.54 4.499-4.1h24.464l-3.112 6.55zm-.324 19.626 2.938 3.28-3.6 3.268H317.83l-2.938-3.268 3.591-3.28h21.272zm4.504 4.099 1.463 1.63-2.285 22.903c-.762 2.188-2.264 3.543-4.5 4.091l-1.797-6.55 1.708-17.172 5.41-4.902zm-4.259-6.55 1.719-17.175 3.104-6.55c2.13.56 3.359 1.915 3.682 4.1l-2.295 22.896-1.798 1.64-4.412-4.91z"></path><linearGradient id="t" x1="354.813" x2="354.813" y1="396.345" y2="341.584" gradientUnits="userSpaceOnUse"><stop offset="0" stop-color="#b30000"></stop><stop offset="1" stop-color="#c00"></stop></linearGradient><path fill="url(#t)" d="M357.75 395.29h-6.54l.654-6.55h6.55l-.664 6.55z"></path><linearGradient id="u" x1="386.058" x2="386.058" y1="396.345" y2="341.613" gradientUnits="userSpaceOnUse"><stop offset="0" stop-color="#b30000"></stop><stop offset="1" stop-color="#c00"></stop></linearGradient><path fill="url(#u)" d="M394.566 395.29h-24.545c-2.118-.548-3.347-1.903-3.68-4.09l6.796-2.46h19.632l1.797 6.55zm-28.058-5.73 2.128-21.263 1.797-1.631 4.422 4.902-1.562 15.541-6.785 2.452zm11.042-44.987-1.553 15.543-5.398 4.91-1.476-1.64 2.13-21.264 6.297 2.451zm19.799-1.632h-19.555l-6.297-2.45c.76-2.185 2.265-3.54 4.5-4.1h24.457l-3.105 6.55zm-.332 19.626 2.947 3.28-3.6 3.268h-21.265l-2.95-3.268 3.595-3.28h21.273zm4.5 4.099 1.464 1.63L400.7 391.2c-.763 2.188-2.266 3.543-4.494 4.091l-1.805-6.55 1.718-17.172 5.399-4.902zm-4.255-6.55 1.718-17.175 3.114-6.55c2.117.56 3.35 1.915 3.68 4.1l-2.295 22.896-1.805 1.64-4.412-4.91z"></path><linearGradient id="v" x1="428.594" x2="428.594" y1="396.345" y2="341.613" gradientUnits="userSpaceOnUse"><stop offset="0" stop-color="#b30000"></stop><stop offset="1" stop-color="#c00"></stop></linearGradient><path fill="url(#v)" d="M437.102 395.29h-24.544c-2.118-.548-3.348-1.903-3.68-4.09l6.795-2.46h19.632l1.797 6.55zm-28.068-5.73 2.138-21.263 1.797-1.631 4.412 4.902-1.552 15.541-6.795 2.452zm11.054-44.987-1.566 15.543-5.387 4.91-1.474-1.64 2.117-21.264 6.31 2.451zm19.787-1.632H420.33l-6.297-2.45c.762-2.185 2.265-3.54 4.49-4.1h24.465l-3.113 6.55zm-.322 19.626 2.949 3.28-3.603 3.268h-21.264l-2.947-3.268 3.592-3.28h21.273zm4.502 4.099 1.463 1.63-2.286 22.903c-.76 2.188-2.261 3.543-4.499 4.091l-1.797-6.55 1.71-17.172 5.409-4.902zm-4.257-6.55 1.719-17.175 3.102-6.55c2.129.56 3.36 1.915 3.69 4.1l-2.293 22.896-1.808 1.64-4.41-4.91z"></path><linearGradient id="w" x1="98.903" x2="98.903" y1="251.84" y2="144.844" gradientUnits="userSpaceOnUse"><stop offset="0" stop-color="#0a0b0d"></stop><stop offset="1" stop-color="#232526"></stop></linearGradient><path fill="url(#w)" d="M51.395 142.43a7.49 7.49 0 0 0-7.493 7.494v95.007c0 4.14 3.352 7.502 7.493 7.502h95.017c4.134 0 7.492-3.362 7.492-7.502v-21.958l-80.543-80.544H51.395z"></path><linearGradient id="x" x1="98.904" x2="98.904" y1="249.779" y2="146.835" gradientUnits="userSpaceOnUse"><stop offset="0" stop-color="#050607"></stop><stop offset="1" stop-color="#1e1f20"></stop></linearGradient><path fill="url(#x)" d="M51.395 250.35c-2.99 0-5.41-2.43-5.41-5.42v-95.006c0-2.99 2.42-5.412 5.41-5.412H72.5l79.322 79.323v21.096a5.418 5.418 0 0 1-5.41 5.419H51.395z"></path><linearGradient id="y" x1="98.904" x2="98.904" y1="247.717" y2="148.827" gradientUnits="userSpaceOnUse"><stop offset="0"></stop><stop offset="1" stop-color="#18191a"></stop></linearGradient><path fill="url(#y)" d="M51.395 248.266a3.332 3.332 0 0 1-3.327-3.335v-95.007a3.327 3.327 0 0 1 3.327-3.33h20.243l78.103 78.103v20.234a3.333 3.333 0 0 1-3.329 3.335H51.395z"></path><linearGradient id="z" x1="257.214" x2="257.214" y1="274.696" y2="214.196" gradientUnits="userSpaceOnUse"><stop offset=".067" stop-color="#2f3133"></stop><stop offset=".097" stop-color="#616266"></stop><stop offset=".43" stop-color="#939399"></stop><stop offset=".455" stop-color="#a3a3a9"></stop><stop offset="1" stop-color="#c6c6cc"></stop></linearGradient><path fill="url(#z)" d="M26.747 214.57c-.02.259-.142-.262-.142 0v52.093c0 4.604 3.579 8.331 8 8.331h445.21c4.42 0 7.998-3.727 7.998-8.33v-52.095c0-.261.023.26 0 0H26.747z"></path><linearGradient id="A" x1="257.209" x2="257.209" y1="206.642" y2="213.956" gradientUnits="userSpaceOnUse"><stop offset="0" stop-color="#313133"></stop><stop offset=".406" stop-color="#626266"></stop><stop offset=".564" stop-color="#6c6c70"></stop><stop offset="1" stop-color="#959599"></stop></linearGradient><path fill="url(#A)" d="M479.814 206.294H34.604c-4.42 0-7.999 3.67-7.999 8.275h461.208c0-4.605-3.578-8.275-7.999-8.275z"></path><path fill="#303033" d="M72.086 214.57h-45.48v52.093c0 .926.236 1.79.51 2.617l44.97-54.71zM82.396 274.994h59.981l49.674-60.425h-59.98zM202.361 274.994h59.986l49.671-60.425h-59.983zM322.326 274.994h59.985l49.672-60.425h-59.981zM479.814 274.994c4.421 0 7.998-3.727 7.998-8.33v-46.985l-45.517 55.315h37.52z"></path><linearGradient id="B" x1="257.209" x2="257.209" y1="209.702" y2="244.139" gradientUnits="userSpaceOnUse"><stop offset="0" stop-color="#fff"></stop><stop offset="1" stop-color="#fff" stop-opacity="0"></stop></linearGradient><path fill="url(#B)" d="M26.605 214.569h461.207v27.694H26.605z" opacity=".4"></path><path fill="#48484D" d="M34.604 206.294c-4.42 0-7.999 3.67-7.999 8.275h45.481l4-8.275H34.604zM135.779 206.294h60.273l-4.001 8.275H131.78zM255.746 206.294h60.272l-4 8.275h-60.274zM375.711 206.294h60.272l-4 8.275h-60.272z"></path><linearGradient id="C" x1="114.702" x2="114.702" y1="298.861" y2="238.352" gradientTransform="rotate(-17.998 -338.13 -206.184)" gradientUnits="userSpaceOnUse"><stop offset=".067" stop-color="#2f3133"></stop><stop offset=".097" stop-color="#616266"></stop><stop offset=".43" stop-color="#939399"></stop><stop offset=".455" stop-color="#a3a3a9"></stop><stop offset="1" stop-color="#c6c6cc"></stop></linearGradient><path fill="url(#C)" d="M10.84 148.26c.063.252-.211-.204-.132.043l16.097 49.542c1.424 4.38 5.977 6.818 10.182 5.452L460.405 65.72c4.204-1.365 6.454-6.014 5.034-10.393L449.341 5.78c-.081-.245-.031.286-.135.046L10.841 148.259z"></path><linearGradient id="D" x1="114.701" x2="114.701" y1="230.799" y2="238.124" gradientTransform="rotate(-17.998 -338.13 -206.184)" gradientUnits="userSpaceOnUse"><stop offset="0" stop-color="#313133"></stop><stop offset=".406" stop-color="#626266"></stop><stop offset=".564" stop-color="#6c6c70"></stop><stop offset="1" stop-color="#959599"></stop></linearGradient><path fill="url(#D)" d="M439.178.385 15.759 137.96c-4.204 1.366-6.475 5.96-5.051 10.342L449.341 5.78c-1.422-4.38-5.96-6.762-10.163-5.396z"></path><path fill="#303033" d="m53.962 134.248-43.254 14.055 16.097 49.542c.288.883.776 1.632 1.295 2.333l25.862-65.93zM82.439 188.531l57.047-18.538 28.571-72.814-57.048 18.533zM196.534 151.458l57.047-18.536 28.569-72.817-57.046 18.536zM310.629 114.386l57.046-18.535 28.57-72.817-57.046 18.536zM460.405 65.72c4.204-1.366 6.454-6.015 5.034-10.394l-14.52-44.684-26.197 66.673 35.683-11.596z"></path><linearGradient id="E" x1="114.701" x2="114.701" y1="233.854" y2="268.309" gradientTransform="rotate(-17.998 -338.13 -206.184)" gradientUnits="userSpaceOnUse"><stop offset="0" stop-color="#fff"></stop><stop offset="1" stop-color="#fff" stop-opacity="0"></stop></linearGradient><path fill="url(#E)" d="m457.897 32.122-438.63 142.52-8.559-26.339L449.341 5.781z" opacity=".4"></path><path fill="#48484D" d="M15.76 137.96c-4.205 1.367-6.476 5.961-5.052 10.343l43.254-14.055 1.247-9.105-39.45 12.818zM111.98 106.697l57.324-18.625-1.247 9.107-57.322 18.623zM226.075 69.625 283.397 51l-1.247 9.105-57.322 18.625zM340.171 32.554l57.321-18.625-1.247 9.105-57.323 18.625z"></path><linearGradient id="F" x1="94.739" x2="94.739" y1="260.173" y2="153.176" gradientUnits="userSpaceOnUse"><stop offset="0"></stop><stop offset="1" stop-color="#18191a"></stop></linearGradient><path fill="url(#F)" d="M47.231 150.76a7.49 7.49 0 0 0-7.494 7.494v95.007c0 4.141 3.352 7.505 7.494 7.505h95.016c4.132 0 7.494-3.364 7.494-7.505v-21.958L69.198 150.76H47.23z"></path><linearGradient id="G" x1="94.738" x2="94.738" y1="259.603" y2="153.16" gradientUnits="userSpaceOnUse"><stop offset="0" stop-color="#040404"></stop><stop offset=".945" stop-color="#1e1f22"></stop><stop offset=".976" stop-color="#282a2e"></stop><stop offset="1" stop-color="#292b2f"></stop></linearGradient><path fill="url(#G)" d="M47.231 260.14c-3.796 0-6.87-3.083-6.87-6.879v-95.007a6.868 6.868 0 0 1 6.87-6.869h21.707l80.178 80.177v21.7c0 3.795-3.082 6.879-6.87 6.879H47.232z"></path><linearGradient id="H" x1="94.737" x2="94.737" y1="259.03" y2="153.159" gradientUnits="userSpaceOnUse"><stop offset="0" stop-color="#080809"></stop><stop offset=".945" stop-color="#25262a"></stop><stop offset=".976" stop-color="#3a3c44"></stop><stop offset="1" stop-color="#3a3d44"></stop></linearGradient><path fill="url(#H)" d="M47.231 259.514a6.251 6.251 0 0 1-6.247-6.253v-95.007a6.246 6.246 0 0 1 6.247-6.244H68.68l79.811 79.811v21.44c0 3.45-2.803 6.253-6.244 6.253H47.231z"></path><linearGradient id="I" x1="94.736" x2="94.736" y1="258.458" y2="153.171" gradientUnits="userSpaceOnUse"><stop offset="0" stop-color="#0c0c0d"></stop><stop offset=".945" stop-color="#2b2d33"></stop><stop offset=".976" stop-color="#4b4e59"></stop><stop offset="1" stop-color="#4b4f59"></stop></linearGradient><path fill="url(#I)" d="M47.231 258.889a5.629 5.629 0 0 1-5.624-5.628v-95.007c0-3.1 2.519-5.62 5.624-5.62H68.42l79.445 79.446v21.18c0 3.105-2.522 5.629-5.618 5.629H47.231z"></path><linearGradient id="J" x1="94.735" x2="94.735" y1="257.884" y2="153.198" gradientUnits="userSpaceOnUse"><stop offset="0" stop-color="#101011"></stop><stop offset=".945" stop-color="#32353c"></stop><stop offset=".976" stop-color="#5c616e"></stop><stop offset="1" stop-color="#5d616f"></stop></linearGradient><path fill="url(#J)" d="M47.231 258.263c-2.759 0-5-2.243-5-5.002v-95.007a5.002 5.002 0 0 1 5-4.994h20.93l79.078 79.08v20.92c0 2.76-2.243 5.003-4.993 5.003H47.231z"></path><linearGradient id="K" x1="94.735" x2="94.735" y1="257.31" y2="153.239" gradientUnits="userSpaceOnUse"><stop offset="0" stop-color="#141416"></stop><stop offset=".945" stop-color="#393c44"></stop><stop offset=".976" stop-color="#6e7384"></stop><stop offset="1" stop-color="#6e7384"></stop></linearGradient><path fill="url(#K)" d="M47.231 257.638a4.381 4.381 0 0 1-4.376-4.377v-95.007a4.38 4.38 0 0 1 4.376-4.369h20.67l78.713 78.714v20.662a4.38 4.38 0 0 1-4.367 4.377H47.23z"></path><linearGradient id="L" x1="94.734" x2="94.734" y1="256.733" y2="153.294" gradientUnits="userSpaceOnUse"><stop offset="0" stop-color="#18181a"></stop><stop offset=".945" stop-color="#40434d"></stop><stop offset=".976" stop-color="#7f8599"></stop></linearGradient><path fill="url(#L)" d="M47.231 257.012a3.757 3.757 0 0 1-3.752-3.75v-95.008a3.757 3.757 0 0 1 3.752-3.744h20.41l78.348 78.348v20.403a3.754 3.754 0 0 1-3.742 3.75H47.23z"></path><linearGradient id="M" x1="102.645" x2="99.874" y1="188.745" y2="191.516" gradientUnits="userSpaceOnUse"><stop offset="0" stop-color="#fff"></stop><stop offset="1" stop-color="#fff" stop-opacity="0"></stop></linearGradient><path fill="url(#M)" d="M67.641 154.51h-20.41a3.757 3.757 0 0 0-3.752 3.744v3.748a3.757 3.757 0 0 1 3.752-3.748h20.41L145.99 236.6v-3.742L67.64 154.51z" opacity=".3"></path><linearGradient id="N" x1="61.057" x2="61.057" y1="162.686" y2="182.795" gradientUnits="userSpaceOnUse"><stop offset="0" stop-color="#626366"></stop><stop offset="1" stop-color="#949699"></stop></linearGradient><path fill="url(#N)" d="M70.856 172.84c0 5.403-4.394 9.797-9.802 9.797-5.42 0-9.796-4.394-9.796-9.796s4.377-9.797 9.796-9.797c5.408 0 9.802 4.394 9.802 9.797z" opacity=".5"></path><radialGradient id="O" cx="60.706" cy="165.806" r="22.064" gradientTransform="matrix(1 0 0 .40284 0 99.013)" gradientUnits="userSpaceOnUse"><stop offset=".236" stop-color="#f5f6f7"></stop><stop offset=".8" stop-color="#4b4b4d"></stop><stop offset=".909" stop-color="#4b4b4d"></stop><stop offset="1" stop-color="#717173"></stop></radialGradient><path fill="url(#O)" d="M69.783 172.84c0 4.816-3.906 8.73-8.73 8.73-4.817 0-8.722-3.914-8.722-8.73 0-4.815 3.905-8.729 8.723-8.729 4.823 0 8.729 3.914 8.729 8.73z"></path><linearGradient id="P" x1="61.057" x2="61.057" y1="230.164" y2="250.279" gradientUnits="userSpaceOnUse"><stop offset="0" stop-color="#626366"></stop><stop offset="1" stop-color="#949699"></stop></linearGradient><path fill="url(#P)" d="M70.856 240.325c0 5.404-4.394 9.796-9.802 9.796-5.42 0-9.796-4.392-9.796-9.796 0-5.408 4.377-9.802 9.796-9.802 5.408 0 9.802 4.394 9.802 9.802z" opacity=".5"></path><radialGradient id="Q" cx="60.706" cy="233.292" r="22.054" gradientTransform="matrix(1 0 0 .40284 0 139.313)" gradientUnits="userSpaceOnUse"><stop offset=".236" stop-color="#f5f6f7"></stop><stop offset=".8" stop-color="#4b4b4d"></stop><stop offset=".909" stop-color="#3e3e40"></stop><stop offset="1" stop-color="#646466"></stop></radialGradient><path fill="url(#Q)" d="M69.783 240.325c0 4.818-3.906 8.721-8.73 8.721a8.722 8.722 0 0 1-8.722-8.72 8.723 8.723 0 0 1 8.723-8.728 8.724 8.724 0 0 1 8.729 8.727z"></path><linearGradient id="R" x1="128.539" x2="128.539" y1="230.164" y2="250.279" gradientUnits="userSpaceOnUse"><stop offset="0" stop-color="#626366"></stop><stop offset="1" stop-color="#949699"></stop></linearGradient><path fill="url(#R)" d="M138.334 240.325c0 5.404-4.394 9.796-9.796 9.796-5.419 0-9.796-4.392-9.796-9.796 0-5.408 4.377-9.802 9.796-9.802 5.402 0 9.796 4.394 9.796 9.802z" opacity=".5"></path><radialGradient id="S" cx="128.187" cy="233.292" r="22.057" gradientTransform="matrix(1 0 0 .40284 0 139.313)" gradientUnits="userSpaceOnUse"><stop offset=".236" stop-color="#f5f6f7"></stop><stop offset=".8" stop-color="#4b4b4d"></stop><stop offset=".909" stop-color="#3e3e40"></stop><stop offset="1" stop-color="#646466"></stop></radialGradient><path fill="url(#S)" d="M137.268 240.325c0 4.818-3.914 8.721-8.73 8.721-4.817 0-8.729-3.903-8.729-8.72 0-4.824 3.912-8.728 8.73-8.728 4.815 0 8.729 3.904 8.729 8.727z"></path><linearGradient id="T" x1="257.209" x2="257.209" y1="276.418" y2="288.914" gradientUnits="userSpaceOnUse"><stop offset="0" stop-color="#232122"></stop><stop offset="1" stop-color="#232122" stop-opacity="0"></stop></linearGradient><path fill="url(#T)" d="M26.605 274.994h461.207v15.311H26.605z" opacity=".7"></path></svg>