<svg xmlns="http://www.w3.org/2000/svg" width="512" height="512" id="command"><linearGradient id="a" x1="256.807" x2="256.807" y1="63.075" y2="76.536" gradientUnits="userSpaceOnUse"><stop offset="0" stop-color="#313133"></stop><stop offset=".406" stop-color="#3d3d40"></stop><stop offset=".624" stop-color="#555559"></stop><stop offset="1" stop-color="#636366"></stop></linearGradient><path fill="url(#a)" d="M23.28 72.418h466.18c5.617 0 10.566 2.831 13.521 7.135-3.243-5.533-7.944-8.957-11.127-11.8-4.348-3.88-12.236-4.788-19.207-4.788H40.337c-6.97 0-14.858.909-19.206 4.788-2.987 2.67-7.296 5.338-10.499 10.743 3.007-3.68 7.528-6.078 12.649-6.078z"></path><linearGradient id="b" x1="256.807" x2="256.807" y1="448.106" y2="74.926" gradientUnits="userSpaceOnUse"><stop offset="0" stop-color="#333"></stop><stop offset="1" stop-color="#7e7e80"></stop></linearGradient><path fill="url(#b)" d="M506.297 88.818c0-9.057-7.344-16.4-16.4-16.4H23.716c-9.057 0-16.4 7.343-16.4 16.4V430.77c0 9.056 7.343 16.4 16.4 16.4h466.18c9.056 0 16.4-7.344 16.4-16.4V88.818z"></path><linearGradient id="c" x1="483.509" x2="496.292" y1="78.841" y2="68.411" gradientUnits="userSpaceOnUse"><stop offset=".188" stop-color="#fff" stop-opacity="0"></stop><stop offset=".339" stop-color="#fff" stop-opacity=".5"></stop><stop offset=".582" stop-color="#fff" stop-opacity=".7"></stop><stop offset=".836" stop-color="#fff" stop-opacity="0"></stop></linearGradient><path fill="url(#c)" d="M507.09 85.972s-9.494-13.514-14.763-18.219c-4.348-3.88-12.236-4.788-19.208-4.788h-2.473l7.367 11.31h6.518c7.936 0 12.737 2.079 16.108 4.87 2.718 1.882 4.953 4.18 6.45 6.827z" opacity=".2"></path><linearGradient id="d" x1="-3728.486" x2="-3715.7" y1="78.843" y2="68.411" gradientTransform="matrix(-1 0 0 1 -3698.307 0)" gradientUnits="userSpaceOnUse"><stop offset=".188" stop-color="#fff" stop-opacity="0"></stop><stop offset=".339" stop-color="#fff" stop-opacity=".5"></stop><stop offset=".582" stop-color="#fff" stop-opacity=".7"></stop><stop offset=".836" stop-color="#fff" stop-opacity="0"></stop></linearGradient><path fill="url(#d)" d="M6.596 85.972S16.09 72.458 21.36 67.753c4.348-3.88 12.236-4.788 19.207-4.788h2.475l-7.364 11.31h-6.522c-7.936 0-12.737 2.079-16.109 4.87-2.718 1.882-4.952 4.18-6.45 6.827z" opacity=".2"></path><linearGradient id="e" x1="257.203" x2="257.203" y1="446.461" y2="75.193" gradientUnits="userSpaceOnUse"><stop offset="0" stop-color="#19191a"></stop><stop offset="1" stop-color="#3d3d40"></stop></linearGradient><path fill="url(#e)" d="M507.09 88.306c-.793-8.545-8.137-15.888-17.194-15.888H23.717c-9.057 0-16.4 7.343-16.4 16.4V430.77c0 9.056 7.343 16.4 16.4 16.4h466.18c9.056 0 16.4-7.344 17.193-16.913V88.307z"></path><linearGradient id="f" x1="257.137" x2="257.137" y1="446.055" y2="75.822" gradientUnits="userSpaceOnUse"><stop offset="0" stop-color="#252527"></stop><stop offset="1" stop-color="#555557"></stop></linearGradient><path fill="url(#f)" d="M23.717 446.487C15.04 446.487 8 439.447 8 430.77V88.818c0-8.678 7.04-15.716 15.717-15.716h466.18c8.677 0 15.717 7.038 16.377 15.29v341.95c-.66 9.105-7.7 16.145-16.378 16.145H23.717z"></path><linearGradient id="g" x1="257.071" x2="257.071" y1="445.644" y2="76.451" gradientUnits="userSpaceOnUse"><stop offset="0" stop-color="#313133"></stop><stop offset="1" stop-color="#6c6c6f"></stop></linearGradient><path fill="url(#g)" d="M23.717 445.803c-8.299 0-15.033-6.735-15.033-15.033V88.818c0-8.298 6.734-15.033 15.033-15.033h466.18c8.298 0 15.033 6.735 15.562 14.692v341.95c-.53 8.641-7.264 15.376-15.563 15.376H23.716z"></path><linearGradient id="h" x1="257.004" x2="257.004" y1="445.232" y2="77.081" gradientUnits="userSpaceOnUse"><stop offset="0" stop-color="#3c3d40"></stop><stop offset="1" stop-color="#848486"></stop></linearGradient><path fill="url(#h)" d="M23.717 445.12c-7.92 0-14.35-6.432-14.35-14.35V88.818c0-7.92 6.43-14.35 14.35-14.35h466.18c7.918 0 14.35 6.43 14.746 14.094v341.95c-.397 8.176-6.828 14.607-14.747 14.607H23.716z"></path><linearGradient id="i" x1="256.939" x2="256.939" y1="444.819" y2="77.711" gradientUnits="userSpaceOnUse"><stop offset="0" stop-color="#484a4d"></stop><stop offset="1" stop-color="#9b9b9d"></stop></linearGradient><path fill="url(#i)" d="M23.717 444.437c-7.54 0-13.667-6.127-13.667-13.667V88.818c0-7.54 6.127-13.667 13.667-13.667h466.18c7.54 0 13.666 6.126 13.931 13.496V430.6c-.265 7.71-6.391 13.838-13.932 13.838H23.716z"></path><linearGradient id="j" x1="256.873" x2="256.873" y1="444.403" y2="78.341" gradientUnits="userSpaceOnUse"><stop offset="0" stop-color="#545659"></stop><stop offset="1" stop-color="#b3b3b5"></stop></linearGradient><path fill="url(#j)" d="M23.717 443.753c-7.162 0-12.983-5.822-12.983-12.983V88.818c0-7.162 5.821-12.983 12.983-12.983h466.18c7.16 0 12.983 5.821 13.115 12.898v341.952c-.132 7.246-5.954 13.068-13.116 13.068H23.717z"></path><linearGradient id="k" x1="256.807" x2="256.807" y1="443.985" y2="78.971" gradientUnits="userSpaceOnUse"><stop offset="0" stop-color="#606266"></stop><stop offset="1" stop-color="#cacacc"></stop></linearGradient><path fill="url(#k)" d="M23.717 443.07c-6.782 0-12.3-5.518-12.3-12.3V88.818c0-6.782 5.518-12.3 12.3-12.3h466.18c6.782 0 12.3 5.518 12.3 12.3V430.77c0 6.782-5.518 12.3-12.3 12.3H23.716z"></path><linearGradient id="l" x1="12.486" x2="499.045" y1="259.794" y2="259.794" gradientUnits="userSpaceOnUse"><stop offset="0" stop-color="#fff" stop-opacity="0"></stop><stop offset=".291" stop-color="#fff"></stop><stop offset=".758" stop-color="#fff"></stop><stop offset="1" stop-color="#fff" stop-opacity="0"></stop></linearGradient><path fill="url(#l)" d="M489.896 76.518H23.717c-6.782 0-12.3 5.518-12.3 12.3V430.77c0 6.782 5.518 12.3 12.3 12.3h466.18c6.782 0 12.3-5.518 12.3-12.3V88.818c0-6.782-5.518-12.3-12.3-12.3zm8.2 354.252c0 4.52-3.679 8.2-8.2 8.2H23.717c-4.52 0-8.2-3.68-8.2-8.2V88.818c0-4.52 3.68-8.2 8.2-8.2h466.18c4.52 0 8.2 3.68 8.2 8.2V430.77z" opacity=".5"></path><linearGradient id="m" x1="256.807" x2="256.807" y1="405.747" y2="106.319" gradientUnits="userSpaceOnUse"><stop offset="0" stop-color="#0f0f12"></stop><stop offset="1" stop-color="#15161a"></stop></linearGradient><path fill="url(#m)" d="M473.496 389.768c0 9.057-7.344 16.4-16.4 16.4H56.518c-9.057 0-16.4-7.343-16.4-16.4V121.619c0-9.056 7.343-16.4 16.4-16.4h400.578c9.056 0 16.4 7.344 16.4 16.4v268.149z"></path><path fill="#787C80" d="M457.096 105.219H56.518c-9.057 0-16.4 7.344-16.4 16.4v268.149c0 9.057 7.343 16.4 16.4 16.4h400.578c9.056 0 16.4-7.343 16.4-16.4V121.619c0-9.056-7.344-16.4-16.4-16.4zm12.3 284.549c0 6.783-5.518 12.3-12.3 12.3H56.518c-6.783 0-12.3-5.517-12.3-12.3V121.619c0-6.783 5.517-12.3 12.3-12.3h400.578c6.782 0 12.3 5.517 12.3 12.3v268.149z"></path><linearGradient id="n" x1="36.018" x2="477.596" y1="255.693" y2="255.693" gradientUnits="userSpaceOnUse"><stop offset="0" stop-color="#fff" stop-opacity=".2"></stop><stop offset=".291" stop-color="#fff" stop-opacity=".8"></stop><stop offset=".758" stop-color="#fff" stop-opacity=".8"></stop><stop offset="1" stop-color="#fff" stop-opacity=".2"></stop></linearGradient><path fill="url(#n)" d="M457.096 101.119H56.518c-11.303 0-20.5 9.197-20.5 20.5v268.149c0 11.307 9.197 20.5 20.5 20.5h400.578c11.302 0 20.5-9.193 20.5-20.5V121.619c0-11.303-9.198-20.5-20.5-20.5zm16.4 288.649c0 9.057-7.344 16.4-16.4 16.4H56.518c-9.057 0-16.4-7.343-16.4-16.4V121.619c0-9.056 7.343-16.4 16.4-16.4h400.578c9.056 0 16.4 7.344 16.4 16.4v268.149z" opacity=".5"></path><path fill="#333" d="M66.068 131.293h381.474v249.603H66.068z"></path><linearGradient id="o" x1="260.395" x2="253.97" y1="213.466" y2="81.68" gradientUnits="userSpaceOnUse"><stop offset="0" stop-color="#fff" stop-opacity="0"></stop><stop offset="1" stop-color="#fff"></stop></linearGradient><path fill="url(#o)" d="M489.896 80.618H23.717c-4.52 0-8.2 3.68-8.2 8.2v102.287c54.763 16.048 123.808 25.65 198.923 25.65 122.711 0 229.358-25.554 283.657-63.135V88.818c0-4.52-3.68-8.2-8.2-8.2z" opacity=".6"></path><linearGradient id="p" x1="429.113" x2="429.113" y1="417.011" y2="439.05" gradientUnits="userSpaceOnUse"><stop offset="0" stop-color="#45474d"></stop><stop offset=".455" stop-color="#616266"></stop><stop offset=".57" stop-color="#6f7073"></stop><stop offset="1" stop-color="#b3b3b3"></stop></linearGradient><path fill="url(#p)" d="M448.932 434.87c0 2.266-1.834 4.1-4.1 4.1h-31.436a4.098 4.098 0 0 1-4.1-4.1v-13.414c0-2.267 1.834-4.1 4.1-4.1h31.435c2.267 0 4.1 1.833 4.1 4.1v13.413z"></path><path fill="gray" d="M444.831 432.411c0 2.266-1.834 4.1-4.1 4.1h-23.235a4.098 4.098 0 0 1-4.1-4.1v-8.497c0-2.266 1.833-4.1 4.1-4.1h23.235c2.266 0 4.1 1.834 4.1 4.1v8.497z" opacity=".8"></path><linearGradient id="q" x1="429.113" x2="429.113" y1="421.624" y2="434.976" gradientUnits="userSpaceOnUse"><stop offset="0" stop-color="#cef"></stop><stop offset=".515" stop-color="#1a5b80"></stop><stop offset=".588" stop-color="#237dac"></stop><stop offset=".886" stop-color="#2996cc"></stop><stop offset="1" stop-color="#3b7a99"></stop></linearGradient><path fill="url(#q)" d="M443.19 430.77c0 2.265-1.835 4.1-4.1 4.1h-19.952a4.098 4.098 0 0 1-4.1-4.1v-5.214c0-2.266 1.833-4.1 4.1-4.1h19.952c2.265 0 4.1 1.834 4.1 4.1v5.214z"></path><path fill="gray" d="M443.277 131.293H66.068v250.274H447.546V377.3h-.004v-12.133h.004v-4.268h-.004v-12.132h.004v-4.268h-.004v-12.133h.004V328.1h-.004v-12.133h.004v-4.268h-.004v-12.133h.004v-4.268h-.004v-12.132h.004v-4.269h-.004v-12.131h.004v-4.269h-.004v-12.132h.004v-4.268h-.004v-12.132h.004v-4.268h-.004v-12.133h.004v-4.268h-.004v-12.132h.004v-4.268h-.004v-12.132h.004v-4.269h-.004v-12.132h.004v-4.268h-.004v-12.132h.004v-4.269h-.004v-12.131h.004v-4.269H443.277zM82.468 377.3H70.332v-12.133h12.136V377.3zm0-16.4H70.332v-12.133h12.136v12.132zm0-16.401H70.332v-12.133h12.136V344.5zm0-16.4H70.332v-12.133h12.136v12.133zm0-16.4H70.332v-12.134h12.136v12.133zm0-16.402H70.332v-12.132h12.136v12.132zm0-16.4H70.332v-12.132h12.136v12.131zm0-16.4H70.332v-12.133h12.136v12.132zm0-16.4H70.332v-12.133h12.136v12.132zm0-16.401H70.332v-12.133h12.136v12.133zm0-16.4H70.332v-12.133h12.136v12.132zm0-16.401H70.332v-12.132h12.136v12.132zm0-16.4H70.332v-12.133h12.136v12.132zm0-16.401H70.332v-12.132h12.136v12.132zm0-16.4H70.332v-12.132h12.136v12.131zm16.4 229.606H86.733v-12.133H98.87V377.3zm0-16.4H86.733v-12.133H98.87v12.132zm0-16.401H86.733v-12.133H98.87V344.5zm0-16.4H86.733v-12.133H98.87v12.133zm0-16.4H86.733v-12.134H98.87v12.133zm0-16.402H86.733v-12.132H98.87v12.132zm0-16.4H86.733v-12.132H98.87v12.131zm0-16.4H86.733v-12.133H98.87v12.132zm0-16.4H86.733v-12.133H98.87v12.132zm0-16.401H86.733v-12.133H98.87v12.133zm0-16.4H86.733v-12.133H98.87v12.132zm0-16.401H86.733v-12.132H98.87v12.132zm0-16.4H86.733v-12.133H98.87v12.132zm0-16.401H86.733v-12.132H98.87v12.132zm0-16.4H86.733v-12.132H98.87v12.131zM115.27 377.3h-12.136v-12.133h12.136V377.3zm0-16.4h-12.136v-12.133h12.136v12.132zm0-16.401h-12.136v-12.133h12.136V344.5zm0-16.4h-12.136v-12.133h12.136v12.133zm0-16.4h-12.136v-12.134h12.136v12.133zm0-16.402h-12.136v-12.132h12.136v12.132zm0-16.4h-12.136v-12.132h12.136v12.131zm0-16.4h-12.136v-12.133h12.136v12.132zm0-16.4h-12.136v-12.133h12.136v12.132zm0-16.401h-12.136v-12.133h12.136v12.133zm0-16.4h-12.136v-12.133h12.136v12.132zm0-16.401h-12.136v-12.132h12.136v12.132zm0-16.4h-12.136v-12.133h12.136v12.132zm0-16.401h-12.136v-12.132h12.136v12.132zm0-16.4h-12.136v-12.132h12.136v12.131zm16.4 229.606h-12.136v-12.133h12.136V377.3zm0-16.4h-12.136v-12.133h12.136v12.132zm0-16.401h-12.136v-12.133h12.136V344.5zm0-16.4h-12.136v-12.133h12.136v12.133zm0-16.4h-12.136v-12.134h12.136v12.133zm0-16.402h-12.136v-12.132h12.136v12.132zm0-16.4h-12.136v-12.132h12.136v12.131zm0-16.4h-12.136v-12.133h12.136v12.132zm0-16.4h-12.136v-12.133h12.136v12.132zm0-16.401h-12.136v-12.133h12.136v12.133zm0-16.4h-12.136v-12.133h12.136v12.132zm0-16.401h-12.136v-12.132h12.136v12.132zm0-16.4h-12.136v-12.133h12.136v12.132zm0-16.401h-12.136v-12.132h12.136v12.132zm0-16.4h-12.136v-12.132h12.136v12.131zm16.4 229.606h-12.135v-12.133h12.136V377.3zm0-16.4h-12.135v-12.133h12.136v12.132zm0-16.401h-12.135v-12.133h12.136V344.5zm0-16.4h-12.135v-12.133h12.136v12.133zm0-16.4h-12.135v-12.134h12.136v12.133zm0-16.402h-12.135v-12.132h12.136v12.132zm0-16.4h-12.135v-12.132h12.136v12.131zm0-16.4h-12.135v-12.133h12.136v12.132zm0-16.4h-12.135v-12.133h12.136v12.132zm0-16.401h-12.135v-12.133h12.136v12.133zm0-16.4h-12.135v-12.133h12.136v12.132zm0-16.401h-12.135v-12.132h12.136v12.132zm0-16.4h-12.135v-12.133h12.136v12.132zm0-16.401h-12.135v-12.132h12.136v12.132zm0-16.4h-12.135v-12.132h12.136v12.131zM164.47 377.3h-12.136v-12.133h12.136V377.3zm0-16.4h-12.136v-12.133h12.136v12.132zm0-16.401h-12.136v-12.133h12.136V344.5zm0-16.4h-12.136v-12.133h12.136v12.133zm0-16.4h-12.136v-12.134h12.136v12.133zm0-16.402h-12.136v-12.132h12.136v12.132zm0-16.4h-12.136v-12.132h12.136v12.131zm0-16.4h-12.136v-12.133h12.136v12.132zm0-16.4h-12.136v-12.133h12.136v12.132zm0-16.401h-12.136v-12.133h12.136v12.133zm0-16.4h-12.136v-12.133h12.136v12.132zm0-16.401h-12.136v-12.132h12.136v12.132zm0-16.4h-12.136v-12.133h12.136v12.132zm0-16.401h-12.136v-12.132h12.136v12.132zm0-16.4h-12.136v-12.132h12.136v12.131zm16.4 229.606h-12.136v-12.133h12.137V377.3zm0-16.4h-12.136v-12.133h12.137v12.132zm0-16.401h-12.136v-12.133h12.137V344.5zm0-16.4h-12.136v-12.133h12.137v12.133zm0-16.4h-12.136v-12.134h12.137v12.133zm0-16.402h-12.136v-12.132h12.137v12.132zm0-16.4h-12.136v-12.132h12.137v12.131zm0-16.4h-12.136v-12.133h12.137v12.132zm0-16.4h-12.136v-12.133h12.137v12.132zm0-16.401h-12.136v-12.133h12.137v12.133zm0-16.4h-12.136v-12.133h12.137v12.132zm0-16.401h-12.136v-12.132h12.137v12.132zm0-16.4h-12.136v-12.133h12.137v12.132zm0-16.401h-12.136v-12.132h12.137v12.132zm0-16.4h-12.136v-12.132h12.137v12.131zM197.272 377.3h-12.136v-12.133h12.136V377.3zm0-16.4h-12.136v-12.133h12.136v12.132zm0-16.401h-12.136v-12.133h12.136V344.5zm0-16.4h-12.136v-12.133h12.136v12.133zm0-16.4h-12.136v-12.134h12.136v12.133zm0-16.402h-12.136v-12.132h12.136v12.132zm0-16.4h-12.136v-12.132h12.136v12.131zm0-16.4h-12.136v-12.133h12.136v12.132zm0-16.4h-12.136v-12.133h12.136v12.132zm0-16.401h-12.136v-12.133h12.136v12.133zm0-16.4h-12.136v-12.133h12.136v12.132zm0-16.401h-12.136v-12.132h12.136v12.132zm0-16.4h-12.136v-12.133h12.136v12.132zm0-16.401h-12.136v-12.132h12.136v12.132zm0-16.4h-12.136v-12.132h12.136v12.131zm16.4 229.606h-12.135v-12.133h12.135V377.3zm0-16.4h-12.135v-12.133h12.135v12.132zm0-16.401h-12.135v-12.133h12.135V344.5zm0-16.4h-12.135v-12.133h12.135v12.133zm0-16.4h-12.135v-12.134h12.135v12.133zm0-16.402h-12.135v-12.132h12.135v12.132zm0-16.4h-12.135v-12.132h12.135v12.131zm0-16.4h-12.135v-12.133h12.135v12.132zm0-16.4h-12.135v-12.133h12.135v12.132zm0-16.401h-12.135v-12.133h12.135v12.133zm0-16.4h-12.135v-12.133h12.135v12.132zm0-16.401h-12.135v-12.132h12.135v12.132zm0-16.4h-12.135v-12.133h12.135v12.132zm0-16.401h-12.135v-12.132h12.135v12.132zm0-16.4h-12.135v-12.132h12.135v12.131zM230.072 377.3h-12.136v-12.133h12.136V377.3zm0-16.4h-12.136v-12.133h12.136v12.132zm0-16.401h-12.136v-12.133h12.136V344.5zm0-16.4h-12.136v-12.133h12.136v12.133zm0-16.4h-12.136v-12.134h12.136v12.133zm0-16.402h-12.136v-12.132h12.136v12.132zm0-16.4h-12.136v-12.132h12.136v12.131zm0-16.4h-12.136v-12.133h12.136v12.132zm0-16.4h-12.136v-12.133h12.136v12.132zm0-16.401h-12.136v-12.133h12.136v12.133zm0-16.4h-12.136v-12.133h12.136v12.132zm0-16.401h-12.136v-12.132h12.136v12.132zm0-16.4h-12.136v-12.133h12.136v12.132zm0-16.401h-12.136v-12.132h12.136v12.132zm0-16.4h-12.136v-12.132h12.136v12.131zm16.4 229.606h-12.136v-12.133h12.137V377.3zm0-16.4h-12.136v-12.133h12.137v12.132zm0-16.401h-12.136v-12.133h12.137V344.5zm0-16.4h-12.136v-12.133h12.137v12.133zm0-16.4h-12.136v-12.134h12.137v12.133zm0-16.402h-12.136v-12.132h12.137v12.132zm0-16.4h-12.136v-12.132h12.137v12.131zm0-16.4h-12.136v-12.133h12.137v12.132zm0-16.4h-12.136v-12.133h12.137v12.132zm0-16.401h-12.136v-12.133h12.137v12.133zm0-16.4h-12.136v-12.133h12.137v12.132zm0-16.401h-12.136v-12.132h12.137v12.132zm0-16.4h-12.136v-12.133h12.137v12.132zm0-16.401h-12.136v-12.132h12.137v12.132zm0-16.4h-12.136v-12.132h12.137v12.131zM262.874 377.3h-12.136v-12.133h12.136V377.3zm0-16.4h-12.136v-12.133h12.136v12.132zm0-16.401h-12.136v-12.133h12.136V344.5zm0-16.4h-12.136v-12.133h12.136v12.133zm0-16.4h-12.136v-12.134h12.136v12.133zm0-16.402h-12.136v-12.132h12.136v12.132zm0-16.4h-12.136v-12.132h12.136v12.131zm0-16.4h-12.136v-12.133h12.136v12.132zm0-16.4h-12.136v-12.133h12.136v12.132zm0-16.401h-12.136v-12.133h12.136v12.133zm0-16.4h-12.136v-12.133h12.136v12.132zm0-16.401h-12.136v-12.132h12.136v12.132zm0-16.4h-12.136v-12.133h12.136v12.132zm0-16.401h-12.136v-12.132h12.136v12.132zm0-16.4h-12.136v-12.132h12.136v12.131zm16.4 229.606h-12.136v-12.133h12.136V377.3zm0-16.4h-12.136v-12.133h12.136v12.132zm0-16.401h-12.136v-12.133h12.136V344.5zm0-16.4h-12.136v-12.133h12.136v12.133zm0-16.4h-12.136v-12.134h12.136v12.133zm0-16.402h-12.136v-12.132h12.136v12.132zm0-16.4h-12.136v-12.132h12.136v12.131zm0-16.4h-12.136v-12.133h12.136v12.132zm0-16.4h-12.136v-12.133h12.136v12.132zm0-16.401h-12.136v-12.133h12.136v12.133zm0-16.4h-12.136v-12.133h12.136v12.132zm0-16.401h-12.136v-12.132h12.136v12.132zm0-16.4h-12.136v-12.133h12.136v12.132zm0-16.401h-12.136v-12.132h12.136v12.132zm0-16.4h-12.136v-12.132h12.136v12.131zm16.4 229.606h-12.136v-12.133h12.137V377.3zm0-16.4h-12.136v-12.133h12.137v12.132zm0-16.401h-12.136v-12.133h12.137V344.5zm0-16.4h-12.136v-12.133h12.137v12.133zm0-16.4h-12.136v-12.134h12.137v12.133zm0-16.402h-12.136v-12.132h12.137v12.132zm0-16.4h-12.136v-12.132h12.137v12.131zm0-16.4h-12.136v-12.133h12.137v12.132zm0-16.4h-12.136v-12.133h12.137v12.132zm0-16.401h-12.136v-12.133h12.137v12.133zm0-16.4h-12.136v-12.133h12.137v12.132zm0-16.401h-12.136v-12.132h12.137v12.132zm0-16.4h-12.136v-12.133h12.137v12.132zm0-16.401h-12.136v-12.132h12.137v12.132zm0-16.4h-12.136v-12.132h12.137v12.131zM312.075 377.3h-12.136v-12.133h12.136V377.3zm0-16.4h-12.136v-12.133h12.136v12.132zm0-16.401h-12.136v-12.133h12.136V344.5zm0-16.4h-12.136v-12.133h12.136v12.133zm0-16.4h-12.136v-12.134h12.136v12.133zm0-16.402h-12.136v-12.132h12.136v12.132zm0-16.4h-12.136v-12.132h12.136v12.131zm0-16.4h-12.136v-12.133h12.136v12.132zm0-16.4h-12.136v-12.133h12.136v12.132zm0-16.401h-12.136v-12.133h12.136v12.133zm0-16.4h-12.136v-12.133h12.136v12.132zm0-16.401h-12.136v-12.132h12.136v12.132zm0-16.4h-12.136v-12.133h12.136v12.132zm0-16.401h-12.136v-12.132h12.136v12.132zm0-16.4h-12.136v-12.132h12.136v12.131zm16.4 229.606H316.34v-12.133h12.136V377.3zm0-16.4H316.34v-12.133h12.136v12.132zm0-16.401H316.34v-12.133h12.136V344.5zm0-16.4H316.34v-12.133h12.136v12.133zm0-16.4H316.34v-12.134h12.136v12.133zm0-16.402H316.34v-12.132h12.136v12.132zm0-16.4H316.34v-12.132h12.136v12.131zm0-16.4H316.34v-12.133h12.136v12.132zm0-16.4H316.34v-12.133h12.136v12.132zm0-16.401H316.34v-12.133h12.136v12.133zm0-16.4H316.34v-12.133h12.136v12.132zm0-16.401H316.34v-12.132h12.136v12.132zm0-16.4H316.34v-12.133h12.136v12.132zm0-16.401H316.34v-12.132h12.136v12.132zm0-16.4H316.34v-12.132h12.136v12.131zM344.876 377.3h-12.136v-12.133h12.136V377.3zm0-16.4h-12.136v-12.133h12.136v12.132zm0-16.401h-12.136v-12.133h12.136V344.5zm0-16.4h-12.136v-12.133h12.136v12.133zm0-16.4h-12.136v-12.134h12.136v12.133zm0-16.402h-12.136v-12.132h12.136v12.132zm0-16.4h-12.136v-12.132h12.136v12.131zm0-16.4h-12.136v-12.133h12.136v12.132zm0-16.4h-12.136v-12.133h12.136v12.132zm0-16.401h-12.136v-12.133h12.136v12.133zm0-16.4h-12.136v-12.133h12.136v12.132zm0-16.401h-12.136v-12.132h12.136v12.132zm0-16.4h-12.136v-12.133h12.136v12.132zm0-16.401h-12.136v-12.132h12.136v12.132zm0-16.4h-12.136v-12.132h12.136v12.131zm16.4 229.606H349.14v-12.133h12.135V377.3zm0-16.4H349.14v-12.133h12.135v12.132zm0-16.401H349.14v-12.133h12.135V344.5zm0-16.4H349.14v-12.133h12.135v12.133zm0-16.4H349.14v-12.134h12.135v12.133zm0-16.402H349.14v-12.132h12.135v12.132zm0-16.4H349.14v-12.132h12.135v12.131zm0-16.4H349.14v-12.133h12.135v12.132zm0-16.4H349.14v-12.133h12.135v12.132zm0-16.401H349.14v-12.133h12.135v12.133zm0-16.4H349.14v-12.133h12.135v12.132zm0-16.401H349.14v-12.132h12.135v12.132zm0-16.4H349.14v-12.133h12.135v12.132zm0-16.401H349.14v-12.132h12.135v12.132zm0-16.4H349.14v-12.132h12.135v12.131zm16.4 229.606H365.54v-12.133h12.136V377.3zm0-16.4H365.54v-12.133h12.136v12.132zm0-16.401H365.54v-12.133h12.136V344.5zm0-16.4H365.54v-12.133h12.136v12.133zm0-16.4H365.54v-12.134h12.136v12.133zm0-16.402H365.54v-12.132h12.136v12.132zm0-16.4H365.54v-12.132h12.136v12.131zm0-16.4H365.54v-12.133h12.136v12.132zm0-16.4H365.54v-12.133h12.136v12.132zm0-16.401H365.54v-12.133h12.136v12.133zm0-16.4H365.54v-12.133h12.136v12.132zm0-16.401H365.54v-12.132h12.136v12.132zm0-16.4H365.54v-12.133h12.136v12.132zm0-16.401H365.54v-12.132h12.136v12.132zm0-16.4H365.54v-12.132h12.136v12.131zM394.077 377.3H381.94v-12.133h12.136V377.3zm0-16.4H381.94v-12.133h12.136v12.132zm0-16.401H381.94v-12.133h12.136V344.5zm0-16.4H381.94v-12.133h12.136v12.133zm0-16.4H381.94v-12.134h12.136v12.133zm0-16.402H381.94v-12.132h12.136v12.132zm0-16.4H381.94v-12.132h12.136v12.131zm0-16.4H381.94v-12.133h12.136v12.132zm0-16.4H381.94v-12.133h12.136v12.132zm0-16.401H381.94v-12.133h12.136v12.133zm0-16.4H381.94v-12.133h12.136v12.132zm0-16.401H381.94v-12.132h12.136v12.132zm0-16.4H381.94v-12.133h12.136v12.132zm0-16.401H381.94v-12.132h12.136v12.132zm0-16.4H381.94v-12.132h12.136v12.131zm16.4 229.606h-12.135v-12.133h12.136V377.3zm0-16.4h-12.135v-12.133h12.136v12.132zm0-16.401h-12.135v-12.133h12.136V344.5zm0-16.4h-12.135v-12.133h12.136v12.133zm0-16.4h-12.135v-12.134h12.136v12.133zm0-16.402h-12.135v-12.132h12.136v12.132zm0-16.4h-12.135v-12.132h12.136v12.131zm0-16.4h-12.135v-12.133h12.136v12.132zm0-16.4h-12.135v-12.133h12.136v12.132zm0-16.401h-12.135v-12.133h12.136v12.133zm0-16.4h-12.135v-12.133h12.136v12.132zm0-16.401h-12.135v-12.132h12.136v12.132zm0-16.4h-12.135v-12.133h12.136v12.132zm0-16.401h-12.135v-12.132h12.136v12.132zm0-16.4h-12.135v-12.132h12.136v12.131zM426.878 377.3h-12.136v-12.133h12.136V377.3zm0-16.4h-12.136v-12.133h12.136v12.132zm0-16.401h-12.136v-12.133h12.136V344.5zm0-16.4h-12.136v-12.133h12.136v12.133zm0-16.4h-12.136v-12.134h12.136v12.133zm0-16.402h-12.136v-12.132h12.136v12.132zm0-16.4h-12.136v-12.132h12.136v12.131zm0-16.4h-12.136v-12.133h12.136v12.132zm0-16.4h-12.136v-12.133h12.136v12.132zm0-16.401h-12.136v-12.133h12.136v12.133zm0-16.4h-12.136v-12.133h12.136v12.132zm0-16.401h-12.136v-12.132h12.136v12.132zm0-16.4h-12.136v-12.133h12.136v12.132zm0-16.401h-12.136v-12.132h12.136v12.132zm0-16.4h-12.136v-12.132h12.136v12.131zm16.4 229.606h-12.135v-12.133h12.135V377.3zm0-16.4h-12.135v-12.133h12.135v12.132zm0-16.401h-12.135v-12.133h12.135V344.5zm0-16.4h-12.135v-12.133h12.135v12.133zm0-16.4h-12.135v-12.134h12.135v12.133zm0-16.402h-12.135v-12.132h12.135v12.132zm0-16.4h-12.135v-12.132h12.135v12.131zm0-16.4h-12.135v-12.133h12.135v12.132zm0-16.4h-12.135v-12.133h12.135v12.132zm0-16.401h-12.135v-12.133h12.135v12.133zm0-16.4h-12.135v-12.133h12.135v12.132zm0-16.401h-12.135v-12.132h12.135v12.132zm0-16.4h-12.135v-12.133h12.135v12.132zm0-16.401h-12.135v-12.132h12.135v12.132zm0-16.4h-12.135v-12.132h12.135v12.131z" opacity=".5"></path><g fill="#FFF" opacity=".8"><path d="M119.533 233.964h12.136v12.132h-12.136zM135.934 233.964h12.136v12.132h-12.136zM152.334 217.563h12.136v12.132h-12.136zM86.524 217.563H98.66v12.132H86.524zM86.524 201.163H98.66v12.132H86.524zM86.524 184.763H98.66v12.132H86.524zM119.533 152.122h12.136v12.132h-12.136zM135.934 152.122h12.136v12.132h-12.136zM152.334 168.362h12.136v12.132h-12.136zM185.135 201.163h12.136v12.132h-12.136zM185.135 233.964h12.136v12.132h-12.136zM201.536 151.962h12.136v12.132h-12.136zM201.536 168.362h12.136v12.132h-12.136zM217.936 184.763h12.136v12.132h-12.136zM217.936 201.163h12.136v12.132h-12.136zM234.336 217.563h12.136v12.132h-12.136zM234.336 233.964h12.136v12.132h-12.136zM267.137 233.964h12.137v12.132h-12.137zM283.537 233.964h12.137v12.132h-12.137zM299.938 233.964h12.136v12.132h-12.136zM103.133 233.964h12.136v12.132h-12.136zM86.732 168.362h12.136v12.132H86.732zM103.133 151.962h12.136v12.132h-12.136zM316.339 233.964h12.136v12.132h-12.136z"></path></g></svg>