<svg xmlns="http://www.w3.org/2000/svg" width="512" height="512" id="disk"><linearGradient id="a" x1="444.358" x2="474.785" y1="454.839" y2="485.266" gradientUnits="userSpaceOnUse"><stop offset="0" stop-color="#0b0c0d"></stop><stop offset=".4" stop-color="#0b0b0d"></stop><stop offset=".424" stop-color="#1f2124"></stop><stop offset="1" stop-color="#2d2f33"></stop></linearGradient><path fill="url(#a)" d="M454.641 469.31v-20.443l-6.036-.013v30.91h30.876l.027-10.454z"></path><linearGradient id="b" x1="20.272" x2="50.016" y1="454.882" y2="484.625" gradientUnits="userSpaceOnUse"><stop offset="0" stop-color="#0b0c0d"></stop><stop offset=".4" stop-color="#0b0b0d"></stop><stop offset=".424" stop-color="#1f2124"></stop><stop offset="1" stop-color="#2d2f33"></stop></linearGradient><path fill="url(#b)" d="m30.511 469.31.009-20.443-6.041-.013v30.91h30.897V469.31z"></path><linearGradient id="c" x1="253.187" x2="253.187" y1="494.583" y2="28.82" gradientUnits="userSpaceOnUse"><stop offset="0" stop-color="#17171a"></stop><stop offset=".645" stop-color="#2f3033"></stop><stop offset=".976" stop-color="#525559"></stop><stop offset="1" stop-color="#727780"></stop></linearGradient><path fill="url(#c)" d="M479.151 25.763h-53.58l.004 5.361H75.007l.016-5.344h-22.64L16.389 61.775l-.016 428.558c.777 2.309 3.574 5.651 6.451 5.651H482.97c5.363 0 7.02-5.252 7.02-9.027l.012-450.36c-.012-5.966-4.86-10.85-10.85-10.834zM53.808 478.213H26.022V450.4H53.81l-.002 27.814zm424.131 0h-27.788V450.4h27.797l-.009 27.814z"></path><linearGradient id="d" x1="263.427" x2="263.427" y1="33.939" y2="200.667" gradientUnits="userSpaceOnUse"><stop offset="0" stop-color="#666673"></stop><stop offset=".072" stop-color="#393940"></stop><stop offset="1" stop-color="#17171a"></stop></linearGradient><path fill="url(#d)" d="M119.137 200.346h288.561c9.803 0 17.774-7.599 17.77-17.01l.016-152.202-324.115-.027.004 152.229c-.004 9.411 7.951 16.992 17.764 17.01z"></path><path fill="#B3B3B3" d="m105.717 183.336-.004-152.229h-4.344l.004 152.229c-.004 9.411 7.951 16.992 17.764 17.01h4.343c-9.815-.018-17.767-7.599-17.763-17.01z"></path><linearGradient id="e" x1="252.893" x2="252.893" y1="241.759" y2="496.443" gradientUnits="userSpaceOnUse"><stop offset="0" stop-color="#393940"></stop><stop offset="1" stop-color="#323233"></stop></linearGradient><path fill="url(#e)" d="m431.758 495.984-.004-225.688c-.004-10.648-8.636-19.294-19.292-19.294H93.318c-10.66.009-19.29 8.63-19.29 19.298v225.684h357.73z" opacity=".2"></path><path fill="#D0D2D3" d="M74.938 25.78h.085l-.016 5.344h.241l5.651-9.747-.253-.017.01-5.344h-.084z" opacity=".3"></path><linearGradient id="f" x1="37.84" x2="566.295" y1="81.484" y2="284.475" gradientUnits="userSpaceOnUse"><stop offset="0" stop-color="#262626"></stop><stop offset=".636" stop-color="#333"></stop><stop offset=".703" stop-color="#4d4d4d"></stop><stop offset=".721" stop-color="#1a1a1a"></stop><stop offset="1" stop-color="#17171a"></stop></linearGradient><path fill="url(#f)" d="M495.637 25.763c-.013-5.973-4.863-9.747-10.852-9.747h-53.584l-3.035 5.25-347.52.094.01-5.344H58.02L19.822 54.211l-3.491 7.605.057.038v-.104l35.996-35.97h22.64l-.017 5.344h350.568l-.005-5.36h53.581c5.99-.017 10.838 4.867 10.85 10.832l-.012 450.361c.025 2.086-.63 4.002-1.633 5.647l.11.07 5.79-10.013c.917-1.59 1.389-3.474 1.389-5.445l-.008-451.453z"></path><defs><filter id="g" width="337.146" height="176.745" x="94.855" y="30.116" filterUnits="userSpaceOnUse"><feFlood flood-color="#fff" flood-opacity="1" result="back"></feFlood><feBlend in="SourceGraphic" in2="back"></feBlend></filter></defs><mask id="i" width="337.146" height="176.745" x="94.855" y="30.116" maskUnits="userSpaceOnUse"><g filter="url(#g)"><linearGradient id="h" x1="94.855" x2="432.001" y1="118.489" y2="118.489" gradientUnits="userSpaceOnUse"><stop offset="0"></stop><stop offset=".291" stop-color="#fff"></stop><stop offset=".758" stop-color="#fff"></stop><stop offset="1"></stop></linearGradient><path fill="url(#h)" d="m94.855 30.116.004 153.216c-.008 12.952 10.881 23.507 24.278 23.53h288.561c6.429 0 12.491-2.408 17.065-6.783 4.66-4.454 7.221-10.401 7.22-16.74L432 30.117H94.855zm330.613 153.22c.004 9.411-7.967 17.01-17.77 17.01h-288.56c-9.814-.018-17.77-7.599-17.765-17.01l-.004-152.229 324.115.027-.016 152.202z" mask="url(#i)"></path></g></mask><linearGradient id="j" x1="94.855" x2="432.001" y1="118.489" y2="118.489" gradientUnits="userSpaceOnUse"><stop offset="0" stop-color="#fff"></stop><stop offset=".291" stop-color="#fff"></stop><stop offset=".758" stop-color="#fff"></stop><stop offset="1" stop-color="#fff"></stop></linearGradient><path fill="url(#j)" d="m94.855 30.116.004 153.216c-.008 12.952 10.881 23.507 24.278 23.53h288.561c6.429 0 12.491-2.408 17.065-6.783 4.66-4.454 7.221-10.401 7.22-16.74L432 30.117H94.855zm330.613 153.22c.004 9.411-7.967 17.01-17.77 17.01h-288.56c-9.814-.018-17.77-7.599-17.765-17.01l-.004-152.229 324.115.027-.016 152.202z" opacity=".4"></path><defs><filter id="k" width="370.761" height="251.499" x="67.513" y="244.485" filterUnits="userSpaceOnUse"><feFlood flood-color="#fff" flood-opacity="1" result="back"></feFlood><feBlend in="SourceGraphic" in2="back"></feBlend></filter></defs><mask id="m" width="370.761" height="251.499" x="67.513" y="244.485" maskUnits="userSpaceOnUse"><g filter="url(#k)"><linearGradient id="l" x1="65.511" x2="436.271" y1="370.234" y2="370.234" gradientUnits="userSpaceOnUse"><stop offset="0"></stop><stop offset=".291" stop-color="#fff"></stop><stop offset=".758" stop-color="#fff"></stop><stop offset="1"></stop></linearGradient><path fill="url(#l)" d="M74.028 495.984V270.3c0-10.668 8.63-19.29 19.29-19.298h319.144c10.656 0 19.288 8.646 19.292 19.294l.004 225.688h6.515l-.003-225.692c-.007-14.23-11.583-25.807-25.808-25.807H93.312c-14.229.015-25.8 11.594-25.8 25.815v225.684h6.516z" mask="url(#m)"></path></g></mask><linearGradient id="n" x1="65.511" x2="436.271" y1="370.234" y2="370.234" gradientUnits="userSpaceOnUse"><stop offset="0" stop-color="#fff"></stop><stop offset=".291" stop-color="#fff"></stop><stop offset=".758" stop-color="#fff"></stop><stop offset="1" stop-color="#fff"></stop></linearGradient><path fill="url(#n)" d="M74.028 495.984V270.3c0-10.668 8.63-19.29 19.29-19.298h319.144c10.656 0 19.288 8.646 19.292 19.294l.004 225.688h6.515l-.003-225.692c-.007-14.23-11.583-25.807-25.808-25.807H93.312c-14.229.015-25.8 11.594-25.8 25.815v225.684h6.516z" opacity=".2"></path><path fill="#B3B3B3" d="m124.634 21.08-5.622 9.036v147.47c-.017 8.586 6.218 15.524 13.92 15.516l225.557.008c7.7-.008 13.942-6.938 13.942-15.5V32.793l5.046-11.713H124.634zm77.63 154.444H153.98V50.534l48.285.01v124.98z"></path><linearGradient id="o" x1="241.377" x2="241.377" y1="193.11" y2="30.763" gradientUnits="userSpaceOnUse"><stop offset=".024" stop-color="gray"></stop><stop offset=".048" stop-color="#b4b4b5"></stop><stop offset=".524" stop-color="#b4b4b5"></stop><stop offset=".663" stop-color="#cbcbcc"></stop><stop offset="1" stop-color="#fff"></stop></linearGradient><path fill="url(#o)" d="M114.667 177.585c-.017 8.587 6.22 15.525 13.92 15.517l225.558.008c7.7-.008 13.943-6.938 13.943-15.5V30.13l-253.421-.014v147.47zm83.253-2.06h-48.284V50.533l48.284.01v124.98z"></path><defs><filter id="p" width="253.421" height="162.994" x="114.667" y="30.116" filterUnits="userSpaceOnUse"><feFlood flood-color="#fff" flood-opacity="1" result="back"></feFlood><feBlend in="SourceGraphic" in2="back"></feBlend></filter></defs><mask id="r" width="253.421" height="162.994" x="114.667" y="30.116" maskUnits="userSpaceOnUse"><g filter="url(#p)"><linearGradient id="q" x1="114.667" x2="368.088" y1="111.613" y2="111.613" gradientUnits="userSpaceOnUse"><stop offset="0" stop-color="#333"></stop><stop offset=".313" stop-color="#fff"></stop><stop offset=".717" stop-color="#fff"></stop><stop offset="1" stop-color="#333"></stop></linearGradient><path fill="url(#q)" d="M114.667 30.116v147.47c-.017 8.586 6.22 15.524 13.92 15.516l225.558.008c7.7-.008 13.943-6.938 13.943-15.5V30.13l-253.421-.014zM363.745 177.61c0 6.146-4.308 11.149-9.604 11.155h.004-.004l-225.553-.006c-2.296 0-4.51-.957-6.246-2.694-2.122-2.131-3.339-5.215-3.33-8.471V34.457l244.733.02V177.61z" mask="url(#r)"></path></g></mask><linearGradient id="s" x1="114.667" x2="368.088" y1="111.613" y2="111.613" gradientUnits="userSpaceOnUse"><stop offset="0" stop-color="#e6e6ff"></stop><stop offset=".313" stop-color="#e6e6ff"></stop><stop offset=".717" stop-color="#e6e6ff"></stop><stop offset="1" stop-color="#e6e6ff"></stop></linearGradient><path fill="url(#s)" d="M114.667 30.116v147.47c-.017 8.586 6.22 15.524 13.92 15.516l225.558.008c7.7-.008 13.943-6.938 13.943-15.5V30.13l-253.421-.014zM363.745 177.61c0 6.146-4.308 11.149-9.604 11.155h.004-.004l-225.553-.006c-2.296 0-4.51-.957-6.246-2.694-2.122-2.131-3.339-5.215-3.33-8.471V34.457l244.733.02V177.61z" opacity=".3"></path><linearGradient id="t" x1="243.902" x2="243.902" y1="29.589" y2="20.533" gradientUnits="userSpaceOnUse"><stop offset="0" stop-color="#8c8f99"></stop><stop offset="1" stop-color="#44454d"></stop></linearGradient><path fill="url(#t)" d="m114.667 30.879 254.252-.132 4.217-9.667H120.292z"></path><linearGradient id="u" x1="252.893" x2="252.893" y1="241.014" y2="494.893" gradientUnits="userSpaceOnUse"><stop offset="0" stop-color="#98999b"></stop><stop offset="1" stop-color="#afafb3"></stop></linearGradient><path fill="url(#u)" d="m428.009 482.9-.006-209.892c-.004-10.434-8.467-18.91-18.905-18.91H96.682c-10.442.017-18.905 8.468-18.905 18.919V482.9h350.232z" opacity=".8"></path><linearGradient id="v" x1="252.892" x2="252.892" y1="261.521" y2="451.973" gradientUnits="userSpaceOnUse"><stop offset="0" stop-color="#dedee6"></stop><stop offset="1" stop-color="#edeef2"></stop></linearGradient><path fill="url(#v)" d="m418.315 454.626-.003-172.615c-.004-9.382-7.623-17.012-17.013-17.012H104.483c-9.397.012-17.015 7.61-17.015 17.028v172.599h330.847z"></path><path fill="#FFF" d="M202.265 181.244V46.193h-56.972v133.674h56.972m-4.345-4.343h-48.284V50.534h48.284v124.99z" opacity=".3"></path><defs><filter id="w" width="473.538" height="7.613" x="16.372" y="488.371" filterUnits="userSpaceOnUse"><feFlood flood-color="#fff" flood-opacity="1" result="back"></feFlood><feBlend in="SourceGraphic" in2="back"></feBlend></filter></defs><mask id="y" width="473.538" height="7.613" x="16.372" y="488.371" maskUnits="userSpaceOnUse"><g filter="url(#w)"><linearGradient id="x" x1="253.141" x2="253.141" y1="495.961" y2="477.507" gradientUnits="userSpaceOnUse"><stop offset="0" stop-color="#fff"></stop><stop offset="1"></stop></linearGradient><path fill="url(#x)" d="M16.372 488.371v1.962c.777 2.309 3.574 5.651 6.451 5.651H482.97c4.716 0 6.562-4.064 6.941-7.613H16.372z" mask="url(#y)"></path></g></mask><linearGradient id="z" x1="253.141" x2="253.141" y1="495.961" y2="477.507" gradientUnits="userSpaceOnUse"><stop offset="0" stop-color="#231f20"></stop><stop offset="1" stop-color="#231f20"></stop></linearGradient><path fill="url(#z)" d="M16.372 488.371v1.962c.777 2.309 3.574 5.651 6.451 5.651H482.97c4.716 0 6.562-4.064 6.941-7.613H16.372z" opacity=".5"></path><path fill="#B3B3B3" d="M101.735 379.041h304.16v4.386h-304.16zM101.735 339.949h304.16v4.386h-304.16zM101.735 300.858h304.16v4.386h-304.16zM101.735 417.353h304.16v4.395h-304.16z"></path><path fill="#D0D2D3" d="M74.938 25.78h.085l-.016 5.344h.241l5.651-9.747-.253-.017.01-5.344h-.084z" opacity=".3"></path></svg>