<svg xmlns="http://www.w3.org/2000/svg" width="512" height="512" id="find"><radialGradient id="a" cx="-1820.864" cy="226.587" r="435.095" gradientTransform="matrix(-.6303 -.1111 -.01665 .09446 -653.465 278.846)" gradientUnits="userSpaceOnUse"><stop offset="0"></stop><stop offset=".582" stop-opacity=".3"></stop><stop offset="1" stop-opacity="0"></stop></radialGradient><path fill="url(#a)" d="M213.645 453.747c-2.47 14.025 55.428 35.956 129.319 48.984 73.894 13.029 135.803 12.226 138.273-1.8 2.476-14.026-55.424-35.956-129.318-48.985-73.892-13.028-135.8-12.224-138.274 1.801z"></path><linearGradient id="b" x1="227.676" x2="227.676" y1="-85.201" y2="-102.002" gradientTransform="rotate(-45.001 763.356 4.256)" gradientUnits="userSpaceOnUse"><stop offset="0" stop-color="#666"></stop><stop offset=".775"></stop><stop offset="1" stop-color="#1a1a1a"></stop></linearGradient><path fill="url(#b)" d="M293.448 335.377c3.823 3.828 16.634-2.81 28.639-14.816 12.013-12.01 18.662-24.846 14.84-28.645-3.804-3.82-16.637 2.83-28.642 14.837-12.003 12.005-18.65 24.825-14.837 28.624z"></path><linearGradient id="c" x1="196.938" x2="258.429" y1="-78.484" y2="-78.484" gradientTransform="rotate(-45.001 763.356 4.256)" gradientUnits="userSpaceOnUse"><stop offset="0" stop-color="#2b2c33"></stop><stop offset=".096" stop-color="#898d9c"></stop><stop offset=".303" stop-color="#c5c7cf"></stop><stop offset=".372" stop-color="#4b4c56"></stop><stop offset=".44" stop-color="#24242f"></stop><stop offset=".528" stop-color="#2d2e33"></stop><stop offset=".651" stop-color="#f2f4f6"></stop><stop offset=".807" stop-color="#f2f4fa"></stop><stop offset=".894" stop-color="#42454d"></stop><stop offset=".963" stop-color="#8e8f99"></stop></linearGradient><path fill="url(#c)" d="M322.087 320.56c-12.005 12.007-24.816 18.645-28.639 14.817l14.862 14.853c3.807 3.824 16.633-2.826 28.644-14.808 11.987-12.013 18.645-24.85 14.833-28.665l-14.86-14.841c3.822 3.799-2.827 16.636-14.84 28.645z"></path><path fill="#A6A8AB" d="M322.087 320.56c-12.005 12.007-24.816 18.645-28.639 14.817l1.53 1.539c3.82 3.814 16.628-2.831 28.637-14.831 12.011-11.997 18.658-24.828 14.845-28.646l-1.532-1.523c3.821 3.799-2.828 16.636-14.841 28.645zM335.408 333.878c-12.003 12-24.823 18.645-28.637 14.826l1.539 1.526c3.807 3.824 16.633-2.826 28.644-14.808 11.987-12.013 18.645-24.85 14.833-28.665l-1.525-1.523c3.806 3.808-2.845 16.638-14.854 28.644z" opacity=".5"></path><linearGradient id="d" x1="196.933" x2="258.429" y1="43.443" y2="43.443" gradientTransform="rotate(-45.001 763.356 4.256)" gradientUnits="userSpaceOnUse"><stop offset="0"></stop><stop offset=".087" stop-color="#19191a"></stop><stop offset=".303" stop-color="#313133"></stop><stop offset=".468"></stop><stop offset=".523"></stop><stop offset=".592" stop-color="#333131"></stop><stop offset=".706" stop-color="#807e7e"></stop><stop offset=".752" stop-color="#a4a4a4"></stop><stop offset=".803" stop-color="#b3b3b3"></stop><stop offset=".862" stop-color="#404040"></stop><stop offset="1" stop-color="#1a1a1a"></stop></linearGradient><path fill="url(#d)" d="M336.954 335.422c-12.01 11.982-24.837 18.632-28.644 14.808l157.576 157.593c3.815 3.813 16.632-2.828 28.64-14.829 12.001-12.014 18.659-24.834 14.845-28.65L351.787 306.758c3.812 3.815-2.846 16.652-14.833 28.665z"></path><linearGradient id="e" x1="201.538" x2="253.824" y1="-101.364" y2="-101.364" gradientTransform="rotate(-45.001 763.356 4.256)" gradientUnits="userSpaceOnUse"><stop offset="0" stop-color="#898d9c"></stop><stop offset=".303" stop-color="#c5c7cf"></stop><stop offset=".372" stop-color="#4b4c56"></stop><stop offset=".44" stop-color="#24242f"></stop><stop offset=".528" stop-color="#2d2e33"></stop><stop offset=".651" stop-color="#f2f4f6"></stop><stop offset=".807" stop-color="#f2f4fa"></stop><stop offset="1" stop-color="#8e8f99"></stop></linearGradient><path fill="url(#e)" d="M332.917 294.59c-.081-.097-.104-.28-.21-.402-.458-.435-1.061-.667-1.769-.785-3.142-1.852-9.178-5.274-17.663-9.354-3.851 5.24-7.957 10.313-12.669 15.031-4.695 4.69-9.77 8.799-15.006 12.657 4.138 8.617 7.833 14.944 9.827 18.178.123.692.37 1.312.811 1.748.099.097.27.105.392.174.202.318.335.54.335.54l.278-.222c4.076 1.656 13.91-3.895 23.166-13.412 9.262-9.523 14.568-19.508 12.827-23.565l.182-.263s-.19-.12-.501-.324z"></path><linearGradient id="f" x1="230.086" x2="247.235" y1="-103.484" y2="-108.148" gradientTransform="rotate(-45.001 763.356 4.256)" gradientUnits="userSpaceOnUse"><stop offset=".592" stop-color="#fff" stop-opacity="0"></stop><stop offset=".931" stop-color="#666"></stop><stop offset="1" stop-color="gray"></stop></linearGradient><path fill="url(#f)" d="M332.917 294.59c-.081-.097-.104-.28-.21-.402-.458-.435-1.061-.667-1.769-.785-3.142-1.852-9.178-5.274-17.663-9.354-3.851 5.24-7.957 10.313-12.669 15.031-4.695 4.69-9.77 8.799-15.006 12.657 4.138 8.617 7.833 14.944 9.827 18.178.123.692.37 1.312.811 1.748.099.097.27.105.392.174.202.318.335.54.335.54l.278-.222c4.076 1.656 13.91-3.895 23.166-13.412 9.262-9.523 14.568-19.508 12.827-23.565l.182-.263s-.19-.12-.501-.324z"></path><linearGradient id="g" x1="1228.439" x2="1245.587" y1="-103.485" y2="-108.149" gradientTransform="scale(-1 1) rotate(45 -36.5 -1750.545)" gradientUnits="userSpaceOnUse"><stop offset=".592" stop-color="#fff" stop-opacity="0"></stop><stop offset=".986" stop-color="gray"></stop></linearGradient><path fill="url(#g)" d="M296.142 331.364c-.11-.08-.295-.093-.399-.21-.433-.446-.67-1.05-.795-1.764-1.855-3.141-5.262-9.177-9.34-17.671 5.228-3.84 10.303-7.95 15.01-12.656 4.704-4.712 8.822-9.78 12.674-15.008 8.611 4.142 14.932 7.829 18.172 9.811.702.13 1.31.387 1.748.833.093.1.104.273.185.365.328.229.532.358.532.358l-.221.274c1.66 4.082-3.888 13.904-13.413 23.157-9.54 9.265-19.527 14.57-23.554 12.822l-.275.198s-.13-.19-.324-.509z"></path><linearGradient id="h" x1="227.686" x2="227.678" y1="159.122" y2="149.346" gradientTransform="rotate(-45.001 763.356 4.256)" gradientUnits="userSpaceOnUse"><stop offset="0" stop-color="#232323"></stop><stop offset=".665" stop-color="#232323" stop-opacity=".5"></stop><stop offset="1" stop-color="gray" stop-opacity=".5"></stop></linearGradient><path fill="url(#h)" d="M494.526 492.994c12.001-12.014 18.659-24.834 14.845-28.65l-43.485 43.48c3.815 3.812 16.632-2.829 28.64-14.83z"></path><linearGradient id="i" x1="227.68" x2="227.68" y1="-115.037" y2="-106.868" gradientTransform="rotate(-45.001 763.356 4.256)" gradientUnits="userSpaceOnUse"><stop offset="0" stop-color="#232323"></stop><stop offset="1" stop-color="#232323" stop-opacity="0"></stop></linearGradient><path fill="url(#i)" d="M305.972 304.447c5.723-5.72 10.271-11.764 13.38-17.388a532.31 532.31 0 0 0-6.077-3.01c-3.851 5.24-7.957 10.313-12.669 15.031-4.695 4.69-9.77 8.799-15.006 12.657 1.05 2.17 2.067 4.193 3.011 6.074 5.628-3.107 11.649-7.65 17.36-13.364z" opacity=".5"></path><linearGradient id="j" x1="227.679" x2="227.679" y1="-120.742" y2="-134.184" gradientTransform="rotate(-45.001 763.356 4.256)" gradientUnits="userSpaceOnUse"><stop offset="0" stop-color="#666"></stop><stop offset=".775"></stop><stop offset="1" stop-color="#1a1a1a"></stop></linearGradient><path fill="url(#j)" d="M273.896 307.133c3.05 3.048 13.311-2.26 22.916-11.87 9.604-9.597 14.925-19.872 11.874-22.906-3.055-3.058-13.318 2.257-22.92 11.866-9.608 9.606-14.92 19.861-11.87 22.91z"></path><linearGradient id="k" x1="203.084" x2="252.279" y1="-117.033" y2="-117.033" gradientTransform="rotate(-45.001 763.356 4.256)" gradientUnits="userSpaceOnUse"><stop offset="0" stop-color="#2b2c33"></stop><stop offset=".096" stop-color="#898d9c"></stop><stop offset=".303" stop-color="#c5c7cf"></stop><stop offset=".372" stop-color="#4b4c56"></stop><stop offset=".44" stop-color="#24242f"></stop><stop offset=".528" stop-color="#2d2e33"></stop><stop offset=".651" stop-color="#f2f4f6"></stop><stop offset=".807" stop-color="#f2f4fa"></stop><stop offset=".894" stop-color="#42454d"></stop><stop offset=".963" stop-color="#8e8f99"></stop></linearGradient><path fill="url(#k)" d="M296.812 295.263c-9.605 9.61-19.866 14.918-22.916 11.87l9.532 9.517c3.038 3.042 13.306-2.26 22.912-11.851 9.586-9.615 14.913-19.884 11.861-22.932l-9.515-9.51c3.051 3.034-2.27 13.309-11.874 22.906z"></path><path fill="#A6A8AB" d="M296.812 295.263c-9.605 9.61-19.866 14.918-22.916 11.87l1.22 1.222c3.055 3.051 13.308-2.258 22.914-11.869 9.604-9.605 14.925-19.857 11.874-22.916l-1.218-1.213c3.051 3.034-2.27 13.309-11.874 22.906zM305.1 303.56c-9.605 9.596-19.856 14.918-22.904 11.865l1.232 1.225c3.038 3.042 13.306-2.26 22.912-11.851 9.586-9.615 14.913-19.884 11.861-22.932l-1.223-1.223c3.048 3.047-2.273 13.315-11.878 22.916z" opacity=".5"></path><linearGradient id="l" x1="227.667" x2="227.667" y1="-148.339" y2="-159.097" gradientTransform="rotate(-45.001 763.356 4.256)" gradientUnits="userSpaceOnUse"><stop offset="0" stop-color="#666"></stop><stop offset=".775"></stop><stop offset="1" stop-color="#1a1a1a"></stop></linearGradient><path fill="url(#l)" d="M258.832 285.125c2.443 2.446 10.64-1.797 18.328-9.483 7.68-7.688 11.94-15.904 9.495-18.337-2.44-2.447-10.648 1.81-18.335 9.497-7.674 7.688-11.926 15.888-9.488 18.323z"></path><linearGradient id="m" x1="207.995" x2="247.343" y1="-138.7" y2="-138.7" gradientTransform="rotate(-45.001 763.356 4.256)" gradientUnits="userSpaceOnUse"><stop offset="0" stop-color="#2b2c33"></stop><stop offset=".096" stop-color="#898d9c"></stop><stop offset=".303" stop-color="#c5c7cf"></stop><stop offset=".372" stop-color="#4b4c56"></stop><stop offset=".44" stop-color="#24242f"></stop><stop offset=".528" stop-color="#2d2e33"></stop><stop offset=".651" stop-color="#f2f4f6"></stop><stop offset=".807" stop-color="#f2f4fa"></stop><stop offset=".894" stop-color="#42454d"></stop><stop offset=".963" stop-color="#8e8f99"></stop></linearGradient><path fill="url(#m)" d="M277.16 275.642c-7.687 7.686-15.885 11.93-18.328 9.483l17.06 17.058c2.443 2.446 10.649-1.801 18.336-9.48 7.67-7.69 11.932-15.901 9.49-18.338l-17.063-17.06c2.446 2.433-1.814 10.65-9.495 18.337z"></path><path fill="#A6A8AB" d="M277.16 275.642c-7.687 7.686-15.885 11.93-18.328 9.483l.97.977c2.45 2.447 10.643-1.805 18.33-9.49 7.681-7.684 11.937-15.888 9.5-18.327l-.977-.98c2.446 2.433-1.814 10.65-9.495 18.337zM293.234 291.724c-7.676 7.677-15.88 11.928-18.317 9.481l.976.978c2.442 2.446 10.648-1.801 18.335-9.48 7.67-7.69 11.932-15.901 9.49-18.338l-.976-.976c2.443 2.438-1.818 10.65-9.508 18.335z" opacity=".5"></path><linearGradient id="n" x1="122.512" x2="338.29" y1="-197.699" y2="-428.744" gradientTransform="rotate(-45.001 763.356 4.256)" gradientUnits="userSpaceOnUse"><stop offset="0" stop-color="#bbbfc0"></stop><stop offset="1" stop-color="#7c7e7c"></stop></linearGradient><path fill="url(#n)" d="M270.77 52.01c59.989 59.971 60.001 157.219.004 217.22-60.002 60.002-157.252 60.002-217.243.008-59.998-60.01-59.998-157.255.002-217.25 59.993-60 157.24-59.994 217.238.023z"></path><linearGradient id="o" x1="226.472" x2="349.29" y1="-308.363" y2="-439.872" gradientTransform="rotate(-45.001 763.356 4.256)" gradientUnits="userSpaceOnUse"><stop offset="0" stop-color="#ccc" stop-opacity="0"></stop><stop offset="1" stop-color="#fff"></stop></linearGradient><path fill="url(#o)" d="M53.533 51.988c-27.358 27.365-42.09 62.487-44.5 98.282 3.522-33.812 18.196-66.664 44.103-92.585C113.134-2.31 210.369-2.31 270.37 57.698c32.632 32.617 47.378 76.28 44.507 118.967 4.638-44.486-10.014-90.593-44.107-124.654-59.999-60.017-157.245-60.023-217.238-.023z" opacity=".4"></path><linearGradient id="p" x1="1227.75" x2="1351.157" y1="902.955" y2="770.817" gradientTransform="rotate(134.999 849.279 309.143)" gradientUnits="userSpaceOnUse"><stop offset="0" stop-color="#ccc" stop-opacity="0"></stop><stop offset="1" stop-color="#b3b3b3"></stop></linearGradient><path fill="url(#p)" d="M270.03 268.497c27.359-27.369 42.099-62.483 44.507-98.278-3.532 33.8-18.196 66.652-44.1 92.576-59.996 59.977-157.249 59.977-217.24-.009-32.642-32.625-45.44-77.19-42.578-119.867-4.63 44.468 8.074 91.483 42.17 125.566 60 60.01 157.24 60.013 217.241.012z"></path><path fill="none" d="M54.274 268.497c59.595 59.581 156.163 59.581 215.768-.014 59.585-59.583 59.593-156.166 0-215.747-59.597-59.604-156.181-59.604-215.772.002-59.59 59.587-59.586 156.17.004 215.76z"></path><linearGradient id="q" x1="333.422" x2="122.332" y1="-426.534" y2="-194.497" gradientTransform="rotate(-45.001 763.356 4.256)" gradientUnits="userSpaceOnUse"><stop offset="0" stop-color="#404040"></stop><stop offset="1" stop-color="#343434"></stop></linearGradient><path fill="url(#q)" d="M48.602 47.042c-62.732 62.729-62.732 164.405.004 227.126 62.715 62.724 164.38 62.724 227.115-.004 62.715-62.717 62.72-164.4.008-227.109-62.742-62.739-164.412-62.737-227.127-.013zm221.44 221.441c-59.604 59.595-156.173 59.595-215.768.014-59.59-59.588-59.594-156.172-.004-215.76 59.59-59.605 156.175-59.605 215.772-.001 59.593 59.581 59.585 156.164 0 215.747z"></path><linearGradient id="r" x1="330.247" x2="125.493" y1="-423.043" y2="-197.971" gradientTransform="rotate(-45.001 763.356 4.256)" gradientUnits="userSpaceOnUse"><stop offset="0" stop-color="#666"></stop><stop offset=".505" stop-color="#333"></stop><stop offset="1" stop-color="gray"></stop></linearGradient><path fill="url(#r)" d="M52.01 50.448c-60.847 60.858-60.85 159.466 0 220.319 60.842 60.834 159.448 60.841 220.295-.019 60.846-60.836 60.844-159.444 0-220.28-60.847-60.852-159.457-60.86-220.296-.02zm218.032 218.035c-59.604 59.595-156.173 59.595-215.768.014-59.59-59.588-59.594-156.172-.004-215.76 59.59-59.605 156.175-59.605 215.772-.001 59.593 59.581 59.585 156.164 0 215.747z" opacity=".5"></path><path fill="none" d="M65.066 257.713c53.63 53.635 140.53 53.624 194.193-.013 53.629-53.624 53.629-140.538 0-194.174-53.658-53.644-140.564-53.644-194.193 0-53.644 53.636-53.644 140.552 0 194.187z"></path><linearGradient id="s" x1="228.605" x2="320.471" y1="-310.622" y2="-402.487" gradientTransform="rotate(-45.001 763.356 4.256)" gradientUnits="userSpaceOnUse"><stop offset="0" stop-color="#ccc" stop-opacity="0"></stop><stop offset="1" stop-color="#fff"></stop></linearGradient><path fill="url(#s)" d="M27.212 135.305c50.874 9.377 143.57 19.628 270.74 6.004-4.027-28.454-16.82-55.896-38.693-77.783-53.658-53.644-140.564-53.644-194.193 0-20.342 20.337-32.932 45.49-37.854 71.779z"></path><linearGradient id="t" x1="200.735" x2="112.556" y1="-284.967" y2="-202.147" gradientTransform="rotate(-45.001 763.356 4.256)" gradientUnits="userSpaceOnUse"><stop offset="0" stop-color="#ccc" stop-opacity="0"></stop><stop offset="1" stop-color="#ccc"></stop></linearGradient><path fill="url(#t)" d="M163.037 244.341c-72.257.014-131.545-39.267-137.94-89.337-1.494 36.978 11.718 74.447 39.969 102.709 53.63 53.635 140.53 53.624 194.193-.013 26.095-26.115 39.395-60.111 40.078-94.314-11.541 45.997-68.116 80.971-136.3 80.955z"></path><linearGradient id="u" x1="194.652" x2="114.809" y1="-282.566" y2="-215.842" gradientTransform="rotate(-45.001 763.356 4.256)" gradientUnits="userSpaceOnUse"><stop offset="0" stop-color="#ccc" stop-opacity="0"></stop><stop offset="1" stop-color="#fff"></stop></linearGradient><path fill="url(#u)" d="M260.068 243.152c-53.631 53.641-140.563 53.641-194.193 0-21.924-21.912-34.684-49.395-38.635-77.895-.942-3.353-1.701-6.771-2.143-10.253-1.494 36.978 11.718 74.447 39.969 102.709 53.63 53.635 140.53 53.624 194.193-.013 26.095-26.115 39.395-60.111 40.078-94.314-.164.661-.428 1.308-.622 1.976-4 28.454-16.769 55.905-38.647 77.79z" opacity=".3"></path></svg>