<svg xmlns="http://www.w3.org/2000/svg" width="512" height="512" id="hammer"><radialGradient id="a" cx="85.082" cy="427.436" r="426.162" gradientTransform="matrix(.6303 -.1111 .01665 .09446 -27.977 457.67)" gradientUnits="userSpaceOnUse"><stop offset="0"></stop><stop offset=".582" stop-opacity=".3"></stop><stop offset="1" stop-opacity="0"></stop></radialGradient><path fill="url(#a)" d="M303.892 440.795c2.42 13.736-54.291 35.216-126.665 47.978-72.377 12.762-133.014 11.973-135.434-1.763-2.424-13.738 54.286-35.218 126.663-47.98 72.374-12.761 133.012-11.972 135.436 1.765z"></path><path fill="#262626" d="m252.808 291.692-39.991-39.979s-4.902-7.727-12.798-1.235c-7.9 6.49-6.5 9.31-16.318 16.326-9.827 7.014-84.303 73.073-101.846 93.423-17.546 20.335-49.865 61.094-55.473 63.89-5.615 2.804-16.096.658-21.707 6.272-5.606 5.6-5.606 15.424-1.402 19.637 4.211 4.204 34.897 34.912 40.167 40.167 5.273 5.262 17.496 9.05 23.281-6.202 5.79-15.26 23.553-25.909 47.234-46.423 23.68-20.513 138.499-136.76 138.853-145.876z"></path><linearGradient id="b" x1="-45.812" x2="33.231" y1="265.916" y2="265.916" gradientTransform="rotate(45.001 -64.897 478.616)" gradientUnits="userSpaceOnUse"><stop offset=".052" stop-color="#dadee6"></stop><stop offset=".191" stop-color="#303133"></stop><stop offset=".405" stop-color="#303133"></stop><stop offset=".909" stop-color="#dadee6"></stop></linearGradient><path fill="url(#b)" d="M7.567 438.188c5.616-5.6 16.087-3.453 21.702-6.256 5.611-2.802 37.939-43.558 55.484-63.89 17.542-20.367 92.02-86.426 101.85-93.433 9.819-7.014 6.44-8.104 14.347-14.595 7.893-6.473 13.972 1.862 13.972 1.862l35.023 35.024c.978-1.518 2.827-4.557 2.863-5.208l-39.991-39.979s-4.902-7.727-12.798-1.235c-7.9 6.49-6.5 9.31-16.318 16.326-9.827 7.014-84.303 73.073-101.846 93.423-17.546 20.335-49.865 61.094-55.473 63.89-5.615 2.804-16.096.658-21.707 6.272-5.606 5.6-5.606 15.424-1.402 19.637.024.017.08.08.103.102-.214-4.143.967-8.706 4.191-11.94z" opacity=".15"></path><linearGradient id="c" x1="213.741" x2="248.503" y1="262.422" y2="262.422" gradientUnits="userSpaceOnUse"><stop offset="0" stop-color="#2e2e2e"></stop><stop offset="1" stop-color="#141414"></stop></linearGradient><path fill="url(#c)" d="M252.808 291.692s2.143-11.242-1.187-16.332c-8.205-12.511-41.82-42.209-41.82-42.209l.659 16.205 42.348 42.336z"></path><linearGradient id="d" x1="30.906" x2="-150.337" y1="161.33" y2="395.703" gradientTransform="rotate(45.001 -64.897 478.616)" gradientUnits="userSpaceOnUse"><stop offset="0" stop-color="#333"></stop><stop offset=".03" stop-color="#4d4d4d"></stop><stop offset=".079" stop-color="#1a1a1a"></stop><stop offset=".307" stop-color="#262626"></stop><stop offset=".518" stop-color="#1a1a1a"></stop><stop offset=".673" stop-color="#1a1a1a"></stop><stop offset=".705" stop-color="#202026"></stop><stop offset=".735" stop-color="#404040"></stop><stop offset=".771" stop-color="#242426"></stop><stop offset=".8" stop-color="#1a1a1a"></stop><stop offset="1" stop-color="#1a1a1a"></stop></linearGradient><path fill="url(#d)" d="m210.998 249.89-.022-.015-.659-16.206c-2.174-1.565-5.785-2.742-10.47 1.102-7.898 6.499-6.492 9.318-16.319 16.326-9.82 7.014-84.294 73.08-101.839 93.423-17.544 20.34-49.865 61.105-55.475 63.89-5.62 2.796-16.098.66-21.7 6.264C-1.914 421.104.41 443.58.41 443.58c.186-6.537 4.344-11.195 7.193-14.123 7.185-3.626 14.971-2.67 19.297-4.824 5.608-2.794 37.927-43.556 55.473-63.89 17.542-20.35 92.019-86.409 101.85-93.425 9.818-7.008 8.41-9.832 16.311-16.323 4.686-3.854 8.285-2.671 10.464-1.105z"></path><linearGradient id="e" x1="29.346" x2="15.785" y1="265.991" y2="265.991" gradientTransform="rotate(45.001 -64.897 478.616)" gradientUnits="userSpaceOnUse"><stop offset=".218" stop-color="#4d4d4d"></stop><stop offset="1" stop-color="#fff" stop-opacity="0"></stop></linearGradient><path fill="url(#e)" d="M66.721 483.991c5.79-15.26 23.553-25.909 47.234-46.423 23.68-20.513 138.499-136.76 138.853-145.876l-4.601-4.587c-.348 9.116-115.165 125.347-138.845 145.86-23.681 20.521-41.454 31.17-47.232 46.423-5.791 15.26-18.016 11.462-23.287 6.2-1.315-1.315 2.78 2.78 4.597 4.605 5.273 5.262 17.496 9.05 23.281-6.202z" opacity=".5"></path><linearGradient id="f" x1="-36.835" x2="-31.935" y1="124.383" y2="128.855" gradientTransform="rotate(45.001 -64.897 478.616)" gradientUnits="userSpaceOnUse"><stop offset="0" stop-color="#999"></stop><stop offset="1" stop-color="#fff" stop-opacity="0"></stop></linearGradient><path fill="url(#f)" d="M205.627 256.665c-3.388 0-6.128-1.82-6.125-4.09-.008-2.245 2.745-4.07 6.13-4.07 3.396-.016 6.139 1.832 6.133 4.07.008 2.262-2.743 4.097-6.138 4.09z" opacity=".3"></path><path fill="#F1F1F2" d="M215.545 311.848a4.344 4.344 0 0 1-6.167.032c-1.698-1.725-1.706-4.488-.007-6.187a4.368 4.368 0 0 1 6.167 0c1.702 1.699 1.712 4.462.007 6.155z" opacity=".05"></path><path fill="gray" d="M214.727 311.033a3.18 3.18 0 0 1-4.538.016c-1.248-1.26-1.26-3.29-.004-4.543a3.213 3.213 0 0 1 4.534 0c1.253 1.253 1.261 3.282.008 4.527z"></path><path fill="#B9BABF" d="M213.493 306.844a3.203 3.203 0 0 1 .016 4.533c-.253.258-.552.424-.856.572.75-.048 1.494-.33 2.074-.916 1.253-1.245 1.245-3.274-.008-4.527-1.003-.993-2.491-1.16-3.686-.554.886-.063 1.788.218 2.46.892z"></path><path fill="#F1F1F2" d="M204.208 300.503a4.34 4.34 0 0 1-6.17.037c-1.7-1.722-1.703-4.486-.005-6.185s4.467-1.698 6.167 0c1.702 1.699 1.71 4.463.008 6.148z" opacity=".05"></path><path fill="gray" d="M203.39 299.696a3.181 3.181 0 0 1-4.538.016c-1.248-1.262-1.26-3.29-.004-4.542a3.208 3.208 0 0 1 4.53-.002c1.257 1.254 1.265 3.282.012 4.528z"></path><path fill="#B9BABF" d="M202.156 295.507a3.2 3.2 0 0 1 .011 4.533c-.252.257-.547.423-.857.571.755-.047 1.498-.33 2.08-.915 1.253-1.246 1.245-3.274-.013-4.528-.998-.992-2.487-1.158-3.685-.562.89-.054 1.787.226 2.464.9z"></path><path fill="#F1F1F2" d="M192.87 289.166a4.34 4.34 0 0 1-6.17.04c-1.699-1.725-1.702-4.49-.004-6.187a4.372 4.372 0 0 1 6.163-.008c1.702 1.706 1.71 4.47.012 6.155z" opacity=".05"></path><path fill="gray" d="M192.048 288.36a3.19 3.19 0 0 1-4.537.015c-1.248-1.262-1.256-3.29 0-4.542a3.207 3.207 0 0 1 4.53-.002c1.253 1.254 1.265 3.282.007 4.528z"></path><path fill="#B9BABF" d="M190.818 284.169a3.2 3.2 0 0 1 .012 4.534c-.253.25-.551.423-.858.571.752-.047 1.495-.33 2.076-.915 1.258-1.246 1.246-3.274-.007-4.528-.997-1-2.492-1.158-3.686-.561.886-.056 1.787.225 2.463.899z"></path><path fill="#F1F1F2" d="M219.729 296.321a4.33 4.33 0 0 1-6.165.03c-1.7-1.72-1.706-4.485-.008-6.185 1.703-1.698 4.47-1.698 6.165 0 1.704 1.7 1.713 4.473.008 6.155z" opacity=".05"></path><path fill="gray" d="M218.91 295.515a3.181 3.181 0 0 1-4.535.01 3.215 3.215 0 0 1-.004-4.545 3.201 3.201 0 0 1 4.531.008 3.194 3.194 0 0 1 .009 4.527z"></path><path fill="#B9BABF" d="M217.679 291.324c1.255 1.254 1.263 3.282.013 4.527-.253.258-.549.43-.854.57a3.131 3.131 0 0 0 2.073-.906 3.194 3.194 0 0 0-.009-4.527c-.996-1.002-2.489-1.166-3.68-.563.883-.055 1.782.22 2.457.9z"></path><path fill="#F1F1F2" d="M208.392 284.981a4.336 4.336 0 0 1-6.165.035c-1.705-1.723-1.708-4.487-.008-6.187a4.367 4.367 0 0 1 6.165 0c1.704 1.7 1.712 4.464.008 6.152z" opacity=".05"></path><path fill="gray" d="M207.575 284.169a3.18 3.18 0 0 1-4.537.016 3.212 3.212 0 0 1-.004-4.541 3.207 3.207 0 0 1 4.531 0c1.254 1.261 1.262 3.28.01 4.525z"></path><path fill="#B9BABF" d="M206.341 279.987a3.196 3.196 0 0 1 .014 4.529c-.253.256-.55.42-.86.569a3.114 3.114 0 0 0 2.08-.916c1.252-1.245 1.244-3.264-.01-4.525-1-.994-2.489-1.16-3.685-.556.888-.056 1.783.22 2.461.9z"></path><path fill="#F1F1F2" d="M194.706 332.682a4.331 4.331 0 0 1-6.165.032c-1.705-1.723-1.708-4.479-.008-6.179a4.359 4.359 0 0 1 6.165-.009c1.704 1.71 1.712 4.473.008 6.156z" opacity=".05"></path><path fill="gray" d="M193.89 331.875a3.19 3.19 0 0 1-4.538.016c-1.25-1.26-1.262-3.288-.005-4.541a3.203 3.203 0 0 1 4.532 0 3.194 3.194 0 0 1 .01 4.525z"></path><path fill="#B9BABF" d="M192.653 327.686a3.205 3.205 0 0 1 .016 4.535c-.253.25-.55.422-.858.57.753-.048 1.499-.33 2.078-.916a3.194 3.194 0 0 0-.01-4.525c-1-1.001-2.49-1.16-3.688-.562.889-.056 1.79.226 2.462.898z"></path><path fill="#F1F1F2" d="M183.368 321.345a4.337 4.337 0 0 1-6.169.031c-1.7-1.722-1.704-4.486-.004-6.187a4.367 4.367 0 0 1 6.165 0c1.701 1.7 1.713 4.473.008 6.156z" opacity=".05"></path><path fill="gray" d="M182.546 320.538a3.189 3.189 0 0 1-4.536.018 3.228 3.228 0 0 1 0-4.552 3.204 3.204 0 0 1 4.528.008 3.187 3.187 0 0 1 .008 4.526z"></path><path fill="#B9BABF" d="M181.316 316.348a3.202 3.202 0 0 1 .012 4.536c-.253.249-.546.42-.856.563a3.14 3.14 0 0 0 2.074-.909 3.187 3.187 0 0 0-.008-4.526c-.996-1-2.485-1.158-3.684-.564.884-.052 1.786.228 2.462.9z"></path><path fill="#F1F1F2" d="M172.027 310.007a4.33 4.33 0 0 1-6.165.03c-1.7-1.72-1.708-4.484-.004-6.184a4.362 4.362 0 0 1 6.161 0c1.705 1.7 1.712 4.471.008 6.154z" opacity=".05"></path><path fill="gray" d="M171.208 309.2a3.18 3.18 0 0 1-4.535.008 3.212 3.212 0 0 1-.004-4.541 3.2 3.2 0 0 1 4.532.008 3.193 3.193 0 0 1 .007 4.525z"></path><path fill="#B9BABF" d="M169.975 305.01c1.257 1.255 1.27 3.283.016 4.527-.254.259-.552.43-.857.571a3.136 3.136 0 0 0 2.074-.908 3.193 3.193 0 0 0-.007-4.525c-.997-1.003-2.49-1.167-3.684-.564.884-.053 1.786.22 2.458.9z"></path><path fill="#F1F1F2" d="M198.891 317.155a4.33 4.33 0 0 1-6.166.04c-1.7-1.722-1.707-4.487-.009-6.185 1.705-1.7 4.473-1.7 6.167-.008 1.703 1.706 1.71 4.47.008 6.153z" opacity=".05"></path><path fill="gray" d="M198.075 316.348a3.182 3.182 0 0 1-4.54.016c-1.247-1.26-1.262-3.288-.004-4.54a3.21 3.21 0 0 1 4.534 0c1.251 1.252 1.26 3.28.01 4.524z"></path><path fill="#B9BABF" d="M196.839 312.16a3.201 3.201 0 0 1 .016 4.532c-.253.261-.552.423-.856.574.751-.048 1.495-.329 2.076-.918 1.25-1.244 1.241-3.272-.01-4.524-.999-.996-2.49-1.158-3.684-.565.886-.056 1.784.23 2.458.901z"></path><path fill="#F1F1F2" d="M187.552 305.817a4.332 4.332 0 0 1-6.169.04c-1.698-1.722-1.702-4.486-.004-6.184a4.369 4.369 0 0 1 6.165-.009c1.705 1.707 1.712 4.47.008 6.153z" opacity=".05"></path><path fill="gray" d="M186.735 305.01a3.188 3.188 0 0 1-4.537.018c-1.25-1.262-1.261-3.29-.004-4.54a3.205 3.205 0 0 1 4.53 0 3.19 3.19 0 0 1 .011 4.523z"></path><path fill="#B9BABF" d="M185.502 300.823a3.203 3.203 0 0 1 .012 4.533c-.256.252-.548.422-.857.573.756-.048 1.5-.33 2.078-.918a3.19 3.19 0 0 0-.011-4.524c-.999-1.005-2.486-1.159-3.684-.565.888-.056 1.784.226 2.462.901z"></path><path fill="#F1F1F2" d="M175.04 352.349a4.34 4.34 0 0 1-6.168.032c-1.7-1.723-1.703-4.485-.004-6.185a4.361 4.361 0 0 1 6.164 0c1.705 1.7 1.713 4.462.009 6.153z" opacity=".05"></path><path fill="gray" d="M174.22 351.544a3.183 3.183 0 0 1-4.534.006 3.21 3.21 0 0 1-.004-4.54 3.198 3.198 0 0 1 4.53.009 3.19 3.19 0 0 1 .008 4.525z"></path><path fill="#B9BABF" d="M172.99 347.354c1.256 1.254 1.263 3.283.012 4.527-.255.259-.548.429-.856.571a3.128 3.128 0 0 0 2.074-.908 3.19 3.19 0 0 0-.008-4.525c-.999-1.003-2.485-1.167-3.684-.566.884-.054 1.786.222 2.462.901z"></path><path fill="#F1F1F2" d="M163.7 341.012a4.334 4.334 0 0 1-6.166.031c-1.698-1.722-1.706-4.486-.004-6.185a4.36 4.36 0 0 1 6.161 0c1.705 1.699 1.712 4.465.008 6.154z" opacity=".05"></path><path fill="gray" d="M162.88 340.2c-1.255 1.282-3.277 1.267-4.535.013a3.21 3.21 0 0 1-.004-4.54 3.211 3.211 0 0 1 4.534 0c1.251 1.262 1.26 3.28.005 4.526z"></path><path fill="#B9BABF" d="M161.649 336.01a3.2 3.2 0 0 1 .018 4.533c-.257.259-.554.423-.858.571.75-.047 1.494-.328 2.071-.915 1.254-1.246 1.246-3.264-.005-4.526-.999-.992-2.49-1.158-3.684-.558.884-.053 1.784.222 2.458.895z"></path><path fill="#F1F1F2" d="M152.362 329.667a4.329 4.329 0 0 1-6.165.04c-1.698-1.723-1.708-4.487-.008-6.186a4.368 4.368 0 0 1 6.167 0c1.702 1.7 1.71 4.463.006 6.146z" opacity=".05"></path><path fill="gray" d="M151.543 328.86a3.178 3.178 0 0 1-4.535.016c-1.25-1.258-1.262-3.288-.005-4.54a3.208 3.208 0 0 1 4.532 0c1.254 1.252 1.262 3.28.008 4.523z"></path><path fill="#B9BABF" d="M150.312 324.672a3.207 3.207 0 0 1 .017 4.534c-.257.259-.553.421-.86.571.754-.048 1.497-.328 2.074-.918 1.254-1.243 1.246-3.271-.008-4.523-1-.994-2.487-1.158-3.681-.565.886-.054 1.783.229 2.458.9z"></path><path fill="#F1F1F2" d="M179.226 336.824a4.338 4.338 0 0 1-6.17.031c-1.697-1.723-1.701-4.48 0-6.184a4.363 4.363 0 0 1 6.164 0c1.702 1.704 1.709 4.469.006 6.153z" opacity=".05"></path><path fill="gray" d="M178.41 336.018a3.186 3.186 0 0 1-4.538.015 3.224 3.224 0 0 1-.006-4.55 3.212 3.212 0 0 1 4.531.008 3.194 3.194 0 0 1 .013 4.527z"></path><path fill="#B9BABF" d="M177.176 331.83a3.198 3.198 0 0 1 .012 4.531c-.255.251-.55.423-.858.574a3.195 3.195 0 0 0 2.08-.917 3.194 3.194 0 0 0-.013-4.527c-1-1.002-2.487-1.158-3.685-.563.89-.055 1.786.227 2.464.902z"></path><path fill="#F1F1F2" d="M167.889 325.486a4.338 4.338 0 0 1-6.171.033c-1.697-1.725-1.7-4.489-.004-6.187 1.7-1.7 4.469-1.7 6.163 0 1.702 1.698 1.71 4.47.012 6.154z" opacity=".05"></path><path fill="gray" d="M167.068 324.68a3.181 3.181 0 0 1-4.54.007 3.215 3.215 0 0 1 0-4.54 3.203 3.203 0 0 1 4.533.007 3.193 3.193 0 0 1 .007 4.526z"></path><path fill="#B9BABF" d="M165.838 320.492a3.2 3.2 0 0 1 .012 4.532 2.959 2.959 0 0 1-.858.564 3.128 3.128 0 0 0 2.076-.908 3.193 3.193 0 0 0-.007-4.526c-1-1.003-2.492-1.167-3.686-.563.886-.056 1.785.22 2.463.901z"></path><path fill="#F1F1F2" d="M154.203 373.185a4.338 4.338 0 0 1-6.171.04c-1.697-1.723-1.7-4.487-.004-6.185a4.372 4.372 0 0 1 6.167-.009c1.698 1.707 1.71 4.471.008 6.154z" opacity=".05"></path><path fill="gray" d="M153.382 372.378a3.19 3.19 0 0 1-4.54.018c-1.241-1.263-1.255-3.29 0-4.542a3.207 3.207 0 0 1 4.532 0 3.186 3.186 0 0 1 .008 4.524z"></path><path fill="#B9BABF" d="M152.152 368.19a3.2 3.2 0 0 1 .012 4.534 3.13 3.13 0 0 1-.858.572c.752-.048 1.499-.331 2.076-.918a3.186 3.186 0 0 0-.008-4.524c-1-1.004-2.487-1.16-3.686-.565.886-.056 1.786.227 2.464.901z"></path><path fill="#F1F1F2" d="M142.861 361.848a4.326 4.326 0 0 1-6.167.03c-1.698-1.713-1.706-4.48-.004-6.176 1.701-1.7 4.47-1.7 6.164-.008 1.702 1.704 1.71 4.47.007 6.154z" opacity=".05"></path><path fill="gray" d="M142.043 361.041a3.186 3.186 0 0 1-4.538.016c-1.247-1.262-1.257-3.288-.002-4.542a3.205 3.205 0 0 1 4.532 0c1.254 1.254 1.261 3.28.008 4.526z"></path><path fill="#B9BABF" d="M140.811 356.854a3.199 3.199 0 0 1 .016 4.533c-.257.25-.554.42-.858.571.751-.047 1.494-.33 2.074-.917 1.253-1.246 1.246-3.272-.008-4.526-.996-1.002-2.49-1.159-3.683-.564.885-.053 1.785.228 2.459.903z"></path><path fill="#F1F1F2" d="M131.524 350.51a4.331 4.331 0 0 1-6.167.032c-1.702-1.725-1.706-4.479-.008-6.185 1.7-1.7 4.469-1.7 6.167 0 1.703 1.706 1.71 4.468.008 6.153z" opacity=".05"></path><path fill="gray" d="M130.706 349.703a3.187 3.187 0 0 1-4.538.017 3.224 3.224 0 0 1-.004-4.55 3.213 3.213 0 0 1 4.534.008 3.197 3.197 0 0 1 .008 4.525z"></path><path fill="#B9BABF" d="M129.474 345.516a3.203 3.203 0 0 1 .016 4.532c-.258.253-.554.423-.863.565a3.14 3.14 0 0 0 2.079-.91 3.197 3.197 0 0 0-.008-4.525c-1.003-1.003-2.49-1.158-3.688-.564.89-.053 1.79.228 2.464.902z"></path><path fill="#F1F1F2" d="M158.388 357.668a4.347 4.347 0 0 1-6.17.03c-1.699-1.722-1.703-4.487-.005-6.185a4.37 4.37 0 0 1 6.167 0c1.703 1.698 1.713 4.463.008 6.155z" opacity=".05"></path><path fill="gray" d="M157.57 356.854a3.182 3.182 0 0 1-4.538.015c-1.247-1.262-1.26-3.29-.002-4.544 1.246-1.25 3.279-1.243 4.528 0 1.257 1.254 1.265 3.282.012 4.529z"></path><path fill="#B9BABF" d="M156.336 352.663a3.2 3.2 0 0 1 .012 4.534c-.253.257-.546.423-.858.574.757-.05 1.5-.333 2.08-.917 1.253-1.247 1.245-3.275-.012-4.529-.998-.992-2.487-1.158-3.685-.554.89-.063 1.787.218 2.463.892z"></path><path fill="#F1F1F2" d="M147.051 346.322a4.338 4.338 0 0 1-6.17.04c-1.7-1.724-1.707-4.488-.005-6.188a4.366 4.366 0 0 1 6.163 0c1.703 1.7 1.71 4.464.012 6.148z" opacity=".05"></path><path fill="gray" d="M146.229 345.516a3.179 3.179 0 0 1-4.536.015 3.214 3.214 0 0 1 0-4.543c1.245-1.252 3.278-1.244 4.528 0 1.253 1.253 1.265 3.283.008 4.528z"></path><path fill="#B9BABF" d="M144.999 341.326a3.199 3.199 0 0 1 .012 4.533c-.254.258-.552.424-.859.573.752-.048 1.497-.33 2.077-.916 1.257-1.245 1.245-3.275-.008-4.528-.999-.993-2.492-1.159-3.686-.561.886-.056 1.788.225 2.464.9z"></path><path fill="#F1F1F2" d="M134.209 393.322a4.329 4.329 0 0 1-6.165.032c-1.702-1.722-1.706-4.478-.01-6.178a4.364 4.364 0 0 1 6.167-.008c1.705 1.708 1.71 4.472.008 6.154z" opacity=".05"></path><path fill="gray" d="M133.393 392.516a3.188 3.188 0 0 1-4.54.015 3.225 3.225 0 0 1-.004-4.549 3.219 3.219 0 0 1 4.536.008 3.195 3.195 0 0 1 .008 4.526z"></path><path fill="#B9BABF" d="M132.159 388.326a3.204 3.204 0 0 1 .016 4.533c-.26.252-.554.426-.863.573a3.174 3.174 0 0 0 2.08-.916 3.195 3.195 0 0 0-.007-4.526c-1.003-1-2.491-1.159-3.69-.561.89-.058 1.785.225 2.464.897z"></path><path fill="#F1F1F2" d="M122.872 381.985a4.332 4.332 0 0 1-6.169.032c-1.699-1.722-1.703-4.487-.006-6.187a4.372 4.372 0 0 1 6.17 0c1.697 1.7 1.71 4.473.005 6.155z" opacity=".05"></path><path fill="gray" d="M122.051 381.179a3.18 3.18 0 0 1-4.537.008 3.21 3.21 0 0 1 0-4.54 3.2 3.2 0 0 1 4.53.005 3.19 3.19 0 0 1 .007 4.527z"></path><path fill="#B9BABF" d="M120.821 376.99a3.203 3.203 0 0 1 .012 4.534 2.967 2.967 0 0 1-.858.564 3.128 3.128 0 0 0 2.076-.91 3.19 3.19 0 0 0-.008-4.526c-1-1.002-2.487-1.158-3.685-.563.886-.053 1.786.227 2.463.9z"></path><path fill="#F1F1F2" d="M111.53 370.65a4.34 4.34 0 0 1-6.164.03c-1.7-1.723-1.707-4.487-.01-6.187a4.372 4.372 0 0 1 6.169 0c1.702 1.7 1.708 4.464.006 6.157z" opacity=".05"></path><path fill="gray" d="M110.714 369.842a3.194 3.194 0 0 1-4.54.008 3.215 3.215 0 0 1-.002-4.542 3.211 3.211 0 0 1 4.534 0 3.205 3.205 0 0 1 .008 4.534z"></path><path fill="#B9BABF" d="M109.48 365.653c1.258 1.252 1.268 3.28.016 4.527-.255.257-.554.423-.858.571a3.16 3.16 0 0 0 2.076-.91 3.205 3.205 0 0 0-.008-4.533c-1-.993-2.491-1.16-3.685-.554.885-.056 1.785.218 2.46.9z"></path><path fill="#F1F1F2" d="M138.395 377.796a4.33 4.33 0 0 1-6.165.04c-1.705-1.72-1.709-4.487-.008-6.186a4.37 4.37 0 0 1 6.165-.007c1.704 1.706 1.71 4.47.008 6.153z" opacity=".05"></path><path fill="gray" d="M137.576 376.99a3.185 3.185 0 0 1-4.537.015c-1.248-1.26-1.26-3.286-.004-4.54a3.211 3.211 0 0 1 4.533 0c1.254 1.254 1.262 3.28.008 4.524z"></path><path fill="#B9BABF" d="M136.343 372.8a3.204 3.204 0 0 1 .015 4.535c-.253.259-.551.42-.862.571.757-.047 1.501-.328 2.08-.917 1.254-1.244 1.246-3.27-.008-4.524-1-1.002-2.489-1.158-3.683-.566.884-.051 1.785.23 2.458.902z"></path><path fill="#F1F1F2" d="M127.058 366.458a4.325 4.325 0 0 1-6.17.032c-1.7-1.715-1.703-4.476-.003-6.177a4.372 4.372 0 0 1 6.165-.007c1.702 1.706 1.71 4.47.008 6.152z" opacity=".05"></path><path fill="gray" d="M126.235 365.651a3.182 3.182 0 0 1-4.534.016c-1.247-1.259-1.26-3.286-.004-4.54a3.198 3.198 0 0 1 4.53 0c1.258 1.254 1.266 3.283.008 4.524z"></path><path fill="#B9BABF" d="M125.005 361.464a3.2 3.2 0 0 1 .012 4.534c-.253.251-.547.42-.858.571.751-.048 1.503-.328 2.076-.918 1.258-1.24 1.25-3.27-.008-4.523-.997-1.003-2.485-1.16-3.681-.566.882-.051 1.783.23 2.46.902z"></path><path fill="#F1F1F2" d="M113.372 414.164a4.343 4.343 0 0 1-6.171.034c-1.699-1.722-1.703-4.486-.004-6.187a4.371 4.371 0 0 1 6.167 0c1.702 1.7 1.71 4.465.008 6.153z" opacity=".05"></path><path fill="gray" d="M112.553 413.352a3.183 3.183 0 0 1-4.538.017 3.216 3.216 0 0 1-.002-4.543 3.206 3.206 0 0 1 4.528 0c1.257 1.26 1.266 3.28.012 4.526z"></path><path fill="#B9BABF" d="M111.32 409.162a3.2 3.2 0 0 1 .011 4.533c-.253.26-.548.424-.858.572.755-.045 1.5-.329 2.08-.915 1.254-1.247 1.245-3.265-.012-4.526-.999-.993-2.487-1.159-3.686-.555.89-.056 1.788.218 2.464.891z"></path><path fill="#F1F1F2" d="M102.034 402.82a4.337 4.337 0 0 1-6.17.04c-1.699-1.721-1.703-4.486-.003-6.186a4.362 4.362 0 0 1 6.161 0c1.703 1.7 1.71 4.465.012 6.145z" opacity=".05"></path><path fill="gray" d="M101.212 402.015a3.182 3.182 0 0 1-4.538.013 3.214 3.214 0 0 1 0-4.54c1.247-1.253 3.28-1.243 4.53 0 1.254 1.254 1.265 3.283.008 4.527z"></path><path fill="#B9BABF" d="M99.982 397.824a3.2 3.2 0 0 1 .012 4.534c-.253.26-.552.423-.858.572.75-.045 1.494-.328 2.076-.915 1.257-1.244 1.246-3.273-.008-4.527-.999-.994-2.492-1.158-3.686-.563.886-.056 1.788.227 2.464.9z"></path><path fill="#F1F1F2" d="M90.693 391.481a4.332 4.332 0 0 1-6.167.04c-1.698-1.722-1.706-4.486-.006-6.184a4.37 4.37 0 0 1 6.165-.008c1.702 1.706 1.71 4.47.008 6.152z" opacity=".05"></path><path fill="gray" d="M89.875 390.677a3.19 3.19 0 0 1-4.538.016c-1.248-1.261-1.26-3.289-.004-4.542a3.21 3.21 0 0 1 4.534 0c1.253 1.253 1.26 3.28.008 4.526z"></path><path fill="#B9BABF" d="M88.64 386.487a3.203 3.203 0 0 1 .016 4.534c-.255.251-.553.423-.858.572.752-.046 1.495-.328 2.077-.916 1.253-1.245 1.245-3.273-.008-4.526-.999-1.003-2.492-1.159-3.686-.565.886-.054 1.787.23 2.46.901z"></path><path fill="#F1F1F2" d="M117.555 398.64a4.33 4.33 0 0 1-6.165.03c-1.702-1.723-1.708-4.485-.008-6.184a4.365 4.365 0 0 1 6.165 0c1.704 1.699 1.713 4.47.008 6.154z" opacity=".05"></path><path fill="gray" d="M116.737 397.832a3.18 3.18 0 0 1-4.536.009 3.21 3.21 0 0 1-.004-4.54 3.2 3.2 0 0 1 4.532.008 3.19 3.19 0 0 1 .008 4.523z"></path><path fill="#B9BABF" d="M115.507 393.645a3.203 3.203 0 0 1 .012 4.532c-.253.25-.55.423-.86.565.755-.04 1.5-.33 2.078-.91a3.19 3.19 0 0 0-.008-4.523c-1-1.002-2.49-1.168-3.686-.566.89-.055 1.784.22 2.464.902z"></path><path fill="#F1F1F2" d="M106.218 387.302a4.343 4.343 0 0 1-6.17.032c-1.697-1.725-1.701-4.486-.003-6.186a4.363 4.363 0 0 1 6.165 0c1.7 1.7 1.712 4.461.008 6.154z" opacity=".05"></path><path fill="gray" d="M105.397 386.495a3.186 3.186 0 0 1-4.537.008 3.215 3.215 0 0 1 0-4.541 3.204 3.204 0 0 1 4.528 0 3.197 3.197 0 0 1 .01 4.533z"></path><path fill="#B9BABF" d="M104.166 382.308a3.19 3.19 0 0 1 .014 4.523c-.256.26-.548.424-.859.573a3.13 3.13 0 0 0 2.076-.909 3.197 3.197 0 0 0-.01-4.533c-.996-.995-2.485-1.157-3.68-.556.88-.055 1.782.219 2.459.902z"></path><path fill="#F1F1F2" d="M92.864 434.672a4.343 4.343 0 0 1-6.169.031c-1.7-1.724-1.704-4.486-.004-6.184 1.7-1.7 4.469-1.7 6.161 0 1.705 1.698 1.712 4.46.012 6.153z" opacity=".05"></path><path fill="gray" d="M92.042 433.865c-1.256 1.278-3.279 1.26-4.536.008a3.212 3.212 0 0 1 0-4.542 3.208 3.208 0 0 1 4.528 0c1.253 1.262 1.265 3.282.008 4.534z"></path><path fill="#B9BABF" d="M90.813 429.678c1.256 1.25 1.264 3.279.012 4.523-.255.26-.551.423-.858.573.754-.039 1.5-.33 2.075-.909 1.257-1.252 1.245-3.272-.008-4.534-.997-.994-2.488-1.158-3.682-.556.884-.052 1.783.22 2.461.903z"></path><path fill="#F1F1F2" d="M81.522 423.334a4.337 4.337 0 0 1-6.164.032c-1.699-1.724-1.709-4.486-.008-6.184 1.702-1.7 4.472-1.7 6.165 0 1.704 1.698 1.712 4.46.007 6.152z" opacity=".05"></path><path fill="gray" d="M80.704 422.52a3.178 3.178 0 0 1-4.536.016c-1.25-1.262-1.26-3.288-.003-4.542a3.21 3.21 0 0 1 4.531 0c1.254 1.254 1.262 3.28.008 4.526z"></path><path fill="#B9BABF" d="M79.472 418.33c1.256 1.264 1.264 3.282.018 4.534-.257.259-.553.423-.86.574.753-.048 1.497-.33 2.074-.918 1.254-1.246 1.246-3.272-.008-4.526-.996-.994-2.487-1.158-3.681-.556.883-.061 1.783.22 2.457.892z"></path><path fill="#F1F1F2" d="M70.186 411.99a4.331 4.331 0 0 1-6.165.04c-1.705-1.723-1.709-4.489-.008-6.188a4.37 4.37 0 0 1 6.167 0c1.702 1.699 1.71 4.465.006 6.147z" opacity=".05"></path><path fill="gray" d="M69.367 411.183a3.177 3.177 0 0 1-4.536.015c-1.25-1.261-1.261-3.288-.004-4.54a3.209 3.209 0 0 1 4.532.001 3.19 3.19 0 0 1 .008 4.524z"></path><path fill="#B9BABF" d="M68.137 406.995a3.204 3.204 0 0 1 .012 4.531c-.257.26-.55.424-.86.574.757-.047 1.5-.33 2.078-.917a3.19 3.19 0 0 0-.008-4.524c-1-.997-2.487-1.161-3.686-.565.89-.054 1.784.226 2.464.901z"></path><path fill="#F1F1F2" d="M97.05 419.146a4.336 4.336 0 0 1-6.171.03c-1.699-1.722-1.7-4.478-.004-6.186a4.371 4.371 0 0 1 6.167 0c1.698 1.708 1.71 4.472.008 6.156z" opacity=".05"></path><path fill="gray" d="M96.227 418.34a3.19 3.19 0 0 1-4.538.015 3.23 3.23 0 0 1 0-4.55 3.21 3.21 0 0 1 4.532.008 3.19 3.19 0 0 1 .006 4.527z"></path><path fill="#B9BABF" d="M95 414.152a3.198 3.198 0 0 1 .011 4.532c-.253.25-.55.423-.858.564a3.142 3.142 0 0 0 2.074-.908 3.19 3.19 0 0 0-.006-4.527c-.998-1.001-2.487-1.16-3.685-.562.885-.056 1.785.226 2.464.901z"></path><path fill="#F1F1F2" d="M85.708 407.81a4.332 4.332 0 0 1-6.166.029c-1.697-1.722-1.707-4.486-.004-6.187a4.368 4.368 0 0 1 6.163 0c1.702 1.7 1.71 4.473.007 6.158z" opacity=".05"></path><path fill="gray" d="M84.89 407.003a3.183 3.183 0 0 1-4.538.008 3.217 3.217 0 0 1-.004-4.542 3.208 3.208 0 0 1 4.534.006 3.196 3.196 0 0 1 .008 4.528z"></path><path fill="#B9BABF" d="M83.658 402.813c1.256 1.253 1.267 3.28.016 4.526-.257.257-.554.43-.858.57a3.123 3.123 0 0 0 2.074-.906 3.196 3.196 0 0 0-.008-4.528c-.999-1-2.49-1.166-3.684-.562.886-.057 1.786.218 2.46.9z"></path><path fill="#F1F1F2" d="M72.022 455.508a4.332 4.332 0 0 1-6.165.039c-1.698-1.724-1.708-4.488-.005-6.187 1.7-1.698 4.468-1.698 6.162-.007 1.703 1.706 1.71 4.47.008 6.155z" opacity=".05"></path><path fill="gray" d="M71.204 454.701a3.186 3.186 0 0 1-4.536.016 3.211 3.211 0 0 1 0-4.542 3.204 3.204 0 0 1 4.528 0c1.251 1.252 1.265 3.28.008 4.526z"></path><path fill="#B9BABF" d="M69.976 450.513a3.197 3.197 0 0 1 .012 4.532c-.256.25-.554.423-.859.571.752-.048 1.496-.33 2.075-.915 1.257-1.246 1.243-3.274-.008-4.526-.999-1.002-2.49-1.16-3.684-.564.886-.054 1.786.228 2.464.902z"></path><path fill="#F1F1F2" d="M60.685 444.17a4.333 4.333 0 0 1-6.167.032c-1.698-1.717-1.706-4.48-.008-6.179a4.36 4.36 0 0 1 6.167-.007c1.702 1.708 1.71 4.47.008 6.154z" opacity=".05"></path><path fill="gray" d="M59.866 443.363a3.19 3.19 0 0 1-4.537.016c-1.25-1.26-1.26-3.29-.004-4.543a3.206 3.206 0 0 1 4.533 0 3.199 3.199 0 0 1 .008 4.527z"></path><path fill="#B9BABF" d="M58.635 439.174a3.204 3.204 0 0 1 .013 4.534c-.252.251-.551.423-.856.571.751-.048 1.495-.328 2.074-.916a3.199 3.199 0 0 0-.008-4.527c-1.002-1.001-2.489-1.16-3.683-.562.886-.055 1.785.226 2.46.9z"></path><path fill="#F1F1F2" d="M49.348 432.833a4.338 4.338 0 0 1-6.171.031c-1.698-1.723-1.7-4.48-.002-6.186a4.365 4.365 0 0 1 6.165.002c1.702 1.705 1.71 4.468.008 6.153z" opacity=".05"></path><path fill="gray" d="M48.53 432.026a3.19 3.19 0 0 1-4.539.016 3.223 3.223 0 0 1-.004-4.55 3.206 3.206 0 0 1 4.53.008 3.194 3.194 0 0 1 .012 4.526z"></path><path fill="#B9BABF" d="M47.297 427.837a3.2 3.2 0 0 1 .01 4.533 2.899 2.899 0 0 1-.856.564 3.137 3.137 0 0 0 2.078-.908 3.194 3.194 0 0 0-.012-4.526c-.998-1.002-2.485-1.16-3.683-.565.89-.053 1.785.227 2.463.902z"></path><path fill="#F1F1F2" d="M76.212 439.988a4.341 4.341 0 0 1-6.169.03c-1.7-1.72-1.704-4.484-.006-6.185a4.37 4.37 0 0 1 6.167 0c1.7 1.701 1.71 4.465.008 6.155z" opacity=".05"></path><path fill="gray" d="M75.39 439.174a3.18 3.18 0 0 1-4.536.015 3.212 3.212 0 0 1 0-4.54c1.246-1.253 3.278-1.245 4.527 0 1.258 1.252 1.266 3.28.009 4.525z"></path><path fill="#B9BABF" d="M74.16 434.984a3.2 3.2 0 0 1 .011 4.534c-.254.26-.553.423-.858.57.751-.044 1.499-.327 2.077-.914 1.257-1.244 1.25-3.273-.009-4.526-.998-.995-2.485-1.159-3.685-.553.886-.066 1.787.217 2.464.89z"></path><path fill="#F1F1F2" d="M64.87 428.644a4.333 4.333 0 0 1-6.166.037c-1.699-1.72-1.706-4.485-.008-6.185 1.702-1.698 4.47-1.698 6.167-.008 1.704 1.708 1.708 4.473.008 6.156z" opacity=".05"></path><path fill="gray" d="M64.052 427.837a3.183 3.183 0 0 1-4.537.016c-1.25-1.262-1.262-3.289-.002-4.542a3.212 3.212 0 0 1 4.531 0 3.196 3.196 0 0 1 .008 4.526z"></path><path fill="#B9BABF" d="M62.818 423.646c1.258 1.262 1.27 3.283.016 4.535-.255.258-.553.423-.858.571.752-.045 1.495-.328 2.076-.915a3.196 3.196 0 0 0-.008-4.526c-.998-.995-2.49-1.159-3.685-.564.886-.056 1.787.226 2.46.9z"></path><linearGradient id="g" x1="437.979" x2="463.792" y1="200.449" y2="223.732" gradientUnits="userSpaceOnUse"><stop offset="0" stop-color="#1a1a1a"></stop><stop offset=".448" stop-color="#333"></stop><stop offset=".552" stop-color="#404040"></stop><stop offset="1" stop-color="#4d4d4d"></stop></linearGradient><path fill="url(#g)" d="M464.163 225.333c-17.687 17.685-37.887 26.15-45.103 18.932-7.237-7.234 1.233-27.421 18.921-45.103 17.68-17.699 37.872-26.15 45.096-18.916 7.225 7.21-1.23 27.415-18.914 45.087z"></path><linearGradient id="h" x1="138.145" x2="138.145" y1="-118.551" y2="-32.101" gradientTransform="rotate(45.001 -64.897 478.616)" gradientUnits="userSpaceOnUse"><stop offset=".073" stop-color="#45474d"></stop><stop offset=".17" stop-color="#b4b4b4"></stop><stop offset=".248" stop-color="#fffffe"></stop><stop offset=".455" stop-color="#f2f2f3"></stop><stop offset=".527" stop-color="#c5c5c5"></stop><stop offset=".576" stop-color="#aeaeae"></stop><stop offset=".606" stop-color="gray"></stop><stop offset=".752" stop-color="#4d4d4d"></stop><stop offset=".83" stop-color="#9a9ca6"></stop><stop offset=".855" stop-color="#ccc"></stop><stop offset=".921" stop-color="#d9d9d9"></stop><stop offset="1" stop-color="#5f5f5f"></stop></linearGradient><path fill="url(#h)" d="m507.54 204.7-24.463-24.454c7.225 7.21-1.23 27.415-18.914 45.087-17.687 17.685-37.887 26.15-45.103 18.932l24.461 24.453c7.221 7.217 27.424-1.24 45.088-18.93 17.7-17.673 26.159-37.862 18.93-45.088z"></path><path fill="#7F7F80" d="M465.527 226.706c17.685-17.692 26.147-37.872 18.922-45.106l-1.372-1.354c7.225 7.21-1.23 27.415-18.914 45.087-17.687 17.685-37.887 26.15-45.103 18.932l1.368 1.362c7.224 7.217 27.424-1.231 45.1-18.921z" opacity=".5"></path><path fill="#7F7F80" d="M488.744 250.701c17.676-17.684 26.139-37.88 18.914-45.106l-1.376-1.37c7.233 7.229-1.226 27.416-18.914 45.114-17.684 17.682-37.87 26.133-45.1 18.904l1.368 1.38c7.23 7.217 27.412-1.242 45.108-18.922z" opacity=".3"></path><linearGradient id="i" x1="92.128" x2="92.128" y1="-107.509" y2="-38.833" gradientTransform="rotate(45.001 -64.897 478.616)" gradientUnits="userSpaceOnUse"><stop offset="0" stop-color="#999"></stop><stop offset="1" stop-color="#4d4d4d"></stop></linearGradient><path fill="url(#i)" d="M461.193 220.367c14.34-14.79 20.283-32.118 14.292-38.129-35.95-.01-42.913-24.849-42.913-24.849l-7.648 7.64-10.538 10.533-18.19 18.192s24.865 7.833 24.868 42.907c6.007 5.997 23.343.042 38.113-14.271.052-.034.557-.5 1.044-.991.482-.49.949-.99.972-1.032z"></path><linearGradient id="j" x1="92.129" x2="92.129" y1="-111.276" y2="-35.655" gradientTransform="rotate(45.001 -64.897 478.616)" gradientUnits="userSpaceOnUse"><stop offset=".121" stop-color="#c5c5c5"></stop><stop offset=".2" stop-color="#eaeaea"></stop><stop offset=".455" stop-color="#f3f3f3"></stop><stop offset=".527" stop-color="#c5c5c5"></stop><stop offset=".576" stop-color="#aeaeae"></stop><stop offset=".606" stop-color="#999"></stop><stop offset=".83" stop-color="#d9d9d9"></stop><stop offset=".855" stop-color="#ccc"></stop><stop offset=".921" stop-color="#d9d9d9"></stop><stop offset="1" stop-color="#4f4f5f"></stop></linearGradient><path fill="url(#j)" d="M461.162 220.398c13.75-14.208 19.242-31.073 13.247-37.076-35.241-.723-42.573-25.21-42.573-25.21l-7.335 7.34-10.115 10.11-17.455 17.458s24.513 8.172 25.225 42.547c5.994 6.003 22.872.516 37.06-13.229.052-.026.538-.457 1.005-.94.466-.474.914-.948.941-1z"></path><radialGradient id="k" cx="109.182" cy="-93.385" r="32.661" gradientTransform="matrix(.7012 .71295 -.5323 .5228 327.457 177.157)" gradientUnits="userSpaceOnUse"><stop offset=".364" stop-color="#fff"></stop><stop offset=".697" stop-color="#ccc"></stop><stop offset="1" stop-color="gray"></stop></radialGradient><path fill="url(#k)" d="M461.162 220.398c13.75-14.208 19.242-31.073 13.247-37.076-35.241-.723-42.573-25.21-42.573-25.21l-7.335 7.34-10.115 10.11-17.455 17.458s24.513 8.172 25.225 42.547c5.994 6.003 22.872.516 37.06-13.229.052-.026.538-.457 1.005-.94.466-.474.914-.948.941-1z" opacity=".5"></path><linearGradient id="l" x1="59.716" x2="77.975" y1="-86.969" y2="-86.969" gradientTransform="rotate(45.001 -75.632 474.169) scale(1 .96)" gradientUnits="userSpaceOnUse"><stop offset=".188" stop-color="gray"></stop><stop offset="1" stop-color="#fff"></stop></linearGradient><path fill="url(#l)" d="M461.162 220.398c13.75-14.208 19.242-31.073 13.247-37.076-35.241-.723-42.573-25.21-42.573-25.21l-7.335 7.34-10.115 10.11-17.455 17.458s24.513 8.172 25.225 42.547c5.994 6.003 22.872.516 37.06-13.229.052-.026.538-.457 1.005-.94.466-.474.914-.948.941-1z" opacity=".7"></path><radialGradient id="m" cx="84.204" cy="-109.163" r="49.347" gradientTransform="matrix(.85776 .51403 -.22045 .36786 359.86 165.3)" gradientUnits="userSpaceOnUse"><stop offset=".63" stop-color="#1a1a1a"></stop><stop offset=".848" stop-color="gray" stop-opacity=".8"></stop><stop offset="1" stop-color="gray" stop-opacity="0"></stop></radialGradient><path fill="url(#m)" d="M461.193 220.367c14.34-14.79 20.283-32.118 14.292-38.129-35.95-.01-42.913-24.849-42.913-24.849l-7.648 7.64-10.538 10.533-18.19 18.192s24.865 7.833 24.868 42.907c6.007 5.997 23.343.042 38.113-14.271.052-.034.557-.5 1.044-.991.482-.49.949-.99.972-1.032z" opacity=".6"></path><radialGradient id="n" cx="88.533" cy="-58.867" r="77.221" gradientTransform="matrix(.64444 .76424 -.14827 .12322 349.91 154.599)" gradientUnits="userSpaceOnUse"><stop offset=".103" stop-color="#fff"></stop><stop offset=".545" stop-color="#fff" stop-opacity=".5"></stop><stop offset="1" stop-opacity="0"></stop></radialGradient><path fill="url(#n)" d="M461.162 220.398c13.75-14.208 19.242-31.073 13.247-37.076-35.241-.723-42.573-25.21-42.573-25.21l-7.335 7.34-10.115 10.11-17.455 17.458s24.513 8.172 25.225 42.547c5.994 6.003 22.872.516 37.06-13.229.052-.026.538-.457 1.005-.94.466-.474.914-.948.941-1z" opacity=".5"></path><radialGradient id="o" cx="89.488" cy="-50.336" r="65.331" gradientTransform="matrix(.68917 .72459 -.26759 .2545 343.149 161.728)" gradientUnits="userSpaceOnUse"><stop offset="0" stop-color="#0d141a" stop-opacity=".5"></stop><stop offset=".279" stop-color="#0d141a" stop-opacity=".933"></stop><stop offset=".679" stop-color="#0d141a"></stop><stop offset=".848" stop-color="#737b80" stop-opacity=".8"></stop><stop offset="1" stop-color="gray" stop-opacity="0"></stop></radialGradient><path fill="url(#o)" d="M461.193 220.367c14.34-14.79 20.283-32.118 14.292-38.129-35.95-.01-42.913-24.849-42.913-24.849l-7.648 7.64-10.538 10.533-18.19 18.192s24.865 7.833 24.868 42.907c6.007 5.997 23.343.042 38.113-14.271.052-.034.557-.5 1.044-.991.482-.49.949-.99.972-1.032z" opacity=".3"></path><linearGradient id="p" x1="157.666" x2="157.666" y1="-118.557" y2="-32.099" gradientTransform="rotate(45.001 -64.897 478.616)" gradientUnits="userSpaceOnUse"><stop offset=".073" stop-color="#353946"></stop><stop offset=".176" stop-color="#777b80"></stop><stop offset=".606" stop-color="#3e3f4d"></stop><stop offset=".758" stop-color="#494b5c"></stop><stop offset=".848" stop-color="#626980"></stop><stop offset="1" stop-color="#4f4f5f"></stop></linearGradient><path fill="url(#p)" d="M509.098 206.25c-.274-.265-.689-.362-.994-.613 5.897 7.865-2.435 27.115-19.495 44.15-17.043 17.07-36.317 25.39-44.154 19.5.233.309.348.714.612.988 7.692 7.692 28.26-.41 45.947-18.095 17.673-17.664 25.767-38.231 18.084-45.93z"></path><linearGradient id="q" x1="-28.771" x2="15.708" y1="67.717" y2="67.717" gradientTransform="rotate(45.001 -64.897 478.616)" gradientUnits="userSpaceOnUse"><stop offset="0" stop-color="#e4e4e6"></stop><stop offset=".097" stop-color="#666"></stop><stop offset=".127" stop-color="gray"></stop><stop offset=".2" stop-color="#999"></stop><stop offset=".824" stop-color="#999"></stop><stop offset=".848" stop-color="gray"></stop><stop offset="1" stop-color="#313133"></stop></linearGradient><path fill="url(#q)" d="m215.154 249.655 31.443 31.451 72.092-72.086-31.45-31.452z"></path><linearGradient id="r" x1="-6.532" x2="-6.532" y1="14.293" y2="70.592" gradientTransform="rotate(45.001 -64.897 478.616)" gradientUnits="userSpaceOnUse"><stop offset="0" stop-color="#fff" stop-opacity=".8"></stop><stop offset="1" stop-color="#fbfeff" stop-opacity="0"></stop></linearGradient><path fill="url(#r)" d="m215.154 249.655 31.443 31.451 72.092-72.086-31.45-31.452z" opacity=".6"></path><linearGradient id="s" x1="-6.532" x2="-6.532" y1="17.558" y2="33.873" gradientTransform="rotate(45.001 -64.897 478.616)" gradientUnits="userSpaceOnUse"><stop offset="0"></stop><stop offset=".448" stop-color="#fff" stop-opacity="0"></stop></linearGradient><path fill="url(#s)" d="m215.154 249.655 31.443 31.451 72.092-72.086-31.45-31.452z" opacity=".6"></path><linearGradient id="t" x1="1223.407" x2="1223.407" y1="-623.253" y2="-724.978" gradientTransform="rotate(45.001 -345.731 -1377.086)" gradientUnits="userSpaceOnUse"><stop offset="0" stop-color="#fff" stop-opacity="0"></stop><stop offset=".788" stop-color="#fff"></stop><stop offset=".891" stop-color="#4d4d4d"></stop></linearGradient><path fill="url(#t)" d="m287.239 177.568 31.45 31.452-72.092 72.086-31.443-31.451z" opacity=".5"></path><linearGradient id="u" x1="-37.384" x2="-26.762" y1="65.306" y2="64.326" gradientTransform="rotate(45.001 -64.897 478.616)" gradientUnits="userSpaceOnUse"><stop offset="0" stop-color="#262626"></stop><stop offset="1" stop-color="#3c3d40"></stop></linearGradient><path fill="url(#u)" d="m215.154 249.655 72.085-72.087-1.218-9.302-72.239 72.229z"></path><path fill="#D0D2D3" d="m423.809 143.429 1.882 2.057-43.993 43.985-1.969-1.963zM320.646 216.586l-37.629-37.638-1.642 2.808 37.049 37.051z" opacity=".2"></path><linearGradient id="v" x1="-194.817" x2="53.435" y1="-74.616" y2="-74.616" gradientTransform="rotate(45.001 -64.897 478.616)" gradientUnits="userSpaceOnUse"><stop offset=".17" stop-color="#999"></stop><stop offset=".721" stop-color="#333"></stop><stop offset="1" stop-color="#333"></stop></linearGradient><path fill="url(#v)" d="M444.818 136.245c-2.423-6.588-33.236-52.158-66.208-74.878-34.727-23.934-96.46-54.812-139.682-45.527-43.218 9.267-39.35 16.202-39.35 16.202s3.908 14.95 8.877 19.463c9.354-10.774 36.197-19.025 67.546-14.374 44.487 6.598 75.98 24.235 99.145 39.29 16.988 11.042 56.481 47.706 69.672 59.824z"></path><linearGradient id="w" x1="-145.538" x2="-176.617" y1="-90.093" y2="-19.355" gradientTransform="rotate(45.001 -64.897 478.616)" gradientUnits="userSpaceOnUse"><stop offset="0" stop-opacity="0"></stop><stop offset=".236" stop-color="#fff" stop-opacity=".5"></stop><stop offset=".77" stop-color="#fff"></stop><stop offset="1" stop-color="#fff" stop-opacity="0"></stop></linearGradient><path fill="url(#w)" d="M276.001 37.13c4.117.614 8.004 1.405 11.9 2.187l-8.124-22.546c-14.405-2.876-28.409-3.592-40.85-.93-43.217 9.266-39.35 16.2-39.35 16.2s3.91 14.951 8.878 19.464c9.354-10.774 36.197-19.025 67.546-14.374z" opacity=".8"></path><linearGradient id="x" x1="-179.289" x2="-148.753" y1="-18.666" y2="-80.273" gradientTransform="rotate(45.001 -64.897 478.616)" gradientUnits="userSpaceOnUse"><stop offset="0" stop-color="#606366"></stop><stop offset=".164" stop-color="#19191a" stop-opacity=".776"></stop><stop offset=".461" stop-color="#fff" stop-opacity="0"></stop></linearGradient><path fill="url(#x)" d="M276.001 37.13c4.117.614 8.004 1.405 11.9 2.187l-8.124-22.546c-14.405-2.876-28.409-3.592-40.85-.93-43.217 9.266-39.35 16.2-39.35 16.2s3.91 14.951 8.878 19.464c9.354-10.774 36.197-19.025 67.546-14.374z"></path><linearGradient id="y" x1="-187.452" x2="-25.7" y1="-73.611" y2="-73.611" gradientTransform="rotate(45.001 -64.897 478.616)" gradientUnits="userSpaceOnUse"><stop offset="0" stop-color="#303133"></stop><stop offset="1" stop-color="#606266" stop-opacity="0"></stop></linearGradient><path fill="url(#y)" d="M380.805 70.169c-34.724-23.934-90.9-49.763-126.63-48.516-28.287.992-48.279 13.195-52.514 17.088.49 1.43-.065-.025.586 1.604 3.907-3.222 18.694-11.637 41.5-14.169 43.924-4.875 101.97 22.746 136.706 46.672 7.671 5.288 18.95 10.12.352-2.68z"></path><linearGradient id="z" x1="66.862" x2="-130.723" y1="-28.647" y2="-73.683" gradientTransform="rotate(45.001 -64.897 478.616)" gradientUnits="userSpaceOnUse"><stop offset="0" stop-color="#737373"></stop><stop offset=".248" stop-color="#999"></stop><stop offset=".315" stop-color="#a6a6a6"></stop><stop offset=".673" stop-color="#d9d9d9"></stop><stop offset="1" stop-color="#ccc"></stop></linearGradient><path fill="url(#z)" d="m225.558 54.528-.008-.008c13.718 2.309 33.744 7.399 48.11 17.656 21.603 15.434 39.35 37.81 27.005 59.419-12.35 21.6-21.607 32.418-21.607 32.418l2.317 17.743 37.049 37.05s31.928-20.859 53.08-19.144c10.02.81 22.663 2.281 22.663 2.281l43.996-43.985S320.903 26.89 225.558 54.528z"></path><radialGradient id="A" cx="-5.007" cy="-31.439" r="154.121" gradientTransform="matrix(.78315 .62182 -.306 .3854 332.412 175.534)" gradientUnits="userSpaceOnUse"><stop offset=".891" stop-color="#fff"></stop><stop offset="1" stop-color="#bdbfcc"></stop></radialGradient><path fill="url(#A)" d="m225.558 54.528-.008-.008c13.718 2.309 33.744 7.399 48.11 17.656 21.603 15.434 39.35 37.81 27.005 59.419-12.35 21.6-21.607 32.418-21.607 32.418l2.317 17.743 37.049 37.05s29.851-20.343 53.08-19.144c10.04.516 22.663 2.281 22.663 2.281l43.996-43.985S320.903 26.89 225.558 54.528z" opacity=".3"></path><linearGradient id="B" x1="-168.326" x2="65.29" y1="-68.23" y2="-68.23" gradientTransform="rotate(45.001 -64.897 478.616)" gradientUnits="userSpaceOnUse"><stop offset="0" stop-color="#ccc"></stop><stop offset=".709" stop-color="#ccc"></stop><stop offset="1" stop-color="#e6e6e6"></stop></linearGradient><path fill="url(#B)" d="M221.856 53.96c1.203.18 2.391.344 3.702.568 95.345-27.638 212.605 103.43 212.605 103.43s1.546-2.214 2.404-6.847c.162-.853-2.329-3.462-2.016-4.34 0 0-136.245-135.478-216.695-92.811z"></path><path fill="#D0D2D3" d="M440.567 151.111c.06-.302-.24-.835-.604-1.438-.827 2.902-1.8 4.341-1.8 4.341S328.801 31.964 236.59 48.12c-5.038 1.413-9.971 3.326-14.733 5.84 1.203.18 2.391.344 3.702.568 95.345-27.638 212.605 103.43 212.605 103.43s1.546-2.214 2.404-6.847z" opacity=".5"></path><linearGradient id="C" x1="-173.624" x2="56.446" y1="-70.123" y2="-70.123" gradientTransform="rotate(45.001 -64.897 478.616)" gradientUnits="userSpaceOnUse"><stop offset="0" stop-color="#e6e6e6"></stop><stop offset=".127" stop-color="#b8b8b8"></stop><stop offset=".164" stop-color="#999"></stop><stop offset=".709" stop-color="gray"></stop><stop offset="1" stop-color="#b3b3b3"></stop></linearGradient><path fill="url(#C)" d="M438.55 146.771c1.401-3.885 6.874-8.097 6.557-9.646-.051-.2-.17-.526-.289-.887-13.21-12.128-52.684-48.775-69.672-59.816C351.98 61.366 320.488 43.729 276 37.13c-30.972-4.581-57.466 3.42-67.13 13.988-.048.396-.103.782-.143 1.162.775.275 1.51.594 2.42.594 1.675 0 5.615.36 10.708 1.085 80.45-42.667 216.695 92.811 216.695 92.811z"></path><linearGradient id="D" x1="-173.624" x2="54.954" y1="-70.123" y2="-70.123" gradientTransform="rotate(45.001 -64.897 478.616)" gradientUnits="userSpaceOnUse"><stop offset="0" stop-color="#fff" stop-opacity="0"></stop><stop offset=".539" stop-color="#fff"></stop></linearGradient><path fill="url(#D)" d="M275.29 39.843c44.479 6.597 75.98 24.245 99.124 39.283 17.004 11.051 56.473 47.698 69.689 59.824.016.052.016.078.028.13.64-.82 1.063-1.517.976-1.955-.051-.2-.17-.526-.289-.887-13.21-12.128-52.684-48.775-69.672-59.816C351.98 61.366 320.488 43.729 276 37.13c-30.972-4.581-57.466 3.42-67.13 13.988-.048.396-.103.782-.143 1.162.296.103.64.137.949.241 10.617-9.896 35.969-17.053 65.612-12.679z" opacity=".2"></path><linearGradient id="E" x1="-71.227" x2="-100.282" y1="-57.809" y2=".551" gradientTransform="rotate(45.001 -64.897 478.616)" gradientUnits="userSpaceOnUse"><stop offset="0" stop-color="#232326"></stop><stop offset=".315" stop-color="#303033"></stop><stop offset=".6" stop-color="#37373a"></stop><stop offset=".673" stop-color="#48484d"></stop></linearGradient><path fill="url(#E)" d="M305.094 148.717c11.59-17.311 12.12-37.32.984-52.632-27.981-38.395-72.865-41.702-97.623-44.58 0 4.848 40.117 2.532 65.205 20.67 21.531 15.546 39.35 37.81 27.005 59.42-12.35 21.6-21.607 32.418-21.607 32.418l2.317 17.743s10.697-13.548 23.719-33.039z"></path><linearGradient id="F" x1="-82.324" x2="-100.512" y1="-59.261" y2="-.546" gradientTransform="rotate(45.001 -64.897 478.616)" gradientUnits="userSpaceOnUse"><stop offset="0" stop-color="#fbfeff"></stop><stop offset="1" stop-color="#fff" stop-opacity=".8"></stop></linearGradient><path fill="url(#F)" d="M302.603 96.275c11.15 15.295 10.597 35.322-.977 52.64-8.938 13.376-16.695 23.831-20.737 29.148l.486 3.693s10.697-13.548 23.719-33.039c11.59-17.311 12.12-37.32.984-52.632-27.981-38.395-72.865-41.702-97.623-44.58 0 .206.17.415.336.621 25.344 2.859 67.198 7.656 93.812 44.149z"></path><path fill="#D0D2D3" d="m438.163 154.014 1.966 1.971-45.962 45.958-1.97-1.963z" opacity=".2"></path></svg>